<svg width="375" height="210" viewBox="0 0 375 210" fill="none" xmlns="http://www.w3.org/2000/svg">
<g clip-path="url(#clip0_80_111)">
<rect width="375" height="210" fill="white"/>
<g clip-path="url(#clip1_80_111)">
<rect width="528" height="239" transform="translate(-76 -14)" fill="url(#paint0_linear_80_111)"/>
<g opacity="0.15">
<path d="M182.262 5.94642L193.024 16.7085L191.748 17.9848L180.986 7.22266L182.262 5.94642Z" fill="white"/>
<path d="M192.749 -4.54081L203.511 6.22132L201.209 8.52414L187.684 3.48944C191.009 6.31456 194.055 9.5277 197.13 12.6026L195.715 14.0175L184.953 3.25537L187.2 1.00811L200.78 6.04248C197.483 3.29996 194.354 -0.105807 191.334 -3.12582L192.749 -4.54081Z" fill="white"/>
<path d="M201.295 -13.0864L202.171 -11.6559L199.341 -8.82593L208.95 0.783134L207.701 2.03158L198.092 -7.57749L195.179 -4.66432L194.248 -6.03936L201.295 -13.0864Z" fill="white"/>
</g>
<g opacity="0.15">
<path fill-rule="evenodd" clip-rule="evenodd" d="M202.854 128.382L212.821 118.416C213.459 117.777 214.537 117.744 215.196 118.403L230.531 133.738C231.19 134.397 231.157 135.475 230.519 136.113L220.552 146.08C219.913 146.719 218.836 146.752 218.176 146.092L202.842 130.758C202.182 130.098 202.215 129.021 202.854 128.382Z" fill="#4B75A4"/>
<path d="M185.262 153.946L196.024 164.709L194.748 165.985L183.986 155.223L185.262 153.946Z" fill="white"/>
<path d="M195.749 143.459L206.511 154.221L204.209 156.524L190.684 151.489C194.009 154.315 197.055 157.528 200.13 160.603L198.715 162.017L187.953 151.255L190.2 149.008L203.78 154.042C200.483 151.3 197.354 147.894 194.334 144.874L195.749 143.459Z" fill="white"/>
<path d="M204.295 134.914L205.171 136.344L202.341 139.174L211.95 148.783L210.701 150.032L201.092 140.423L198.179 143.336L197.248 141.961L204.295 134.914Z" fill="white"/>
<path d="M219.341 141.391L208.579 130.629L207.17 132.038L217.933 142.8L219.341 141.391Z" fill="#FEFEFE"/>
<path d="M217.198 122.01L218.103 123.412L215.257 126.257L224.866 135.866L223.485 137.248L213.876 127.639L210.975 130.539L210.071 129.138L217.198 122.01Z" fill="#FEFEFE"/>
<path d="M227.788 123.172L230.507 120.453C229.103 119.66 227.37 118.703 224.398 117.062C225.929 119.814 226.913 121.576 227.788 123.172ZM232.13 121.355L228.718 124.767L228.663 124.712C229.401 126.061 230.194 127.464 231.288 129.446L229.762 130.972L222.273 116.936L224.354 114.855L238.39 122.343L236.781 123.952C234.662 122.777 233.369 122.038 232.13 121.355Z" fill="white"/>
<path fill-rule="evenodd" clip-rule="evenodd" d="M233.244 105.805L231.997 107.052L238.71 122.022L239.985 120.748L233.244 105.805Z" fill="#4B75A4"/>
<path fill-rule="evenodd" clip-rule="evenodd" d="M243.089 114.528L244.925 105.801L235.762 107.201L234.204 105.643L245.408 104.171L246.692 105.456L244.647 116.086L243.089 114.528Z" fill="#4B75A4"/>
</g>
<g opacity="0.15">
<path fill-rule="evenodd" clip-rule="evenodd" d="M199.854 53.3824L209.821 43.4155C210.459 42.7769 211.537 42.7439 212.196 43.4034L227.531 58.7377C228.19 59.3973 228.157 60.4747 227.519 61.1132L217.552 71.0801C216.913 71.7187 215.836 71.7517 215.176 71.0922L199.842 55.7579C199.182 55.0983 199.215 54.0209 199.854 53.3824Z" fill="#4B75A4"/>
<path d="M182.262 78.9464L193.024 89.7085L191.748 90.9848L180.986 80.2227L182.262 78.9464Z" fill="white"/>
<path d="M192.749 68.4592L203.511 79.2213L201.209 81.5241L187.684 76.4894C191.009 79.3146 194.055 82.5277 197.13 85.6026L195.715 87.0175L184.953 76.2554L187.2 74.0081L200.78 79.0425C197.483 76.3 194.354 72.8942 191.334 69.8742L192.749 68.4592Z" fill="white"/>
<path d="M201.295 59.9136L202.171 61.3441L199.341 64.1741L208.95 73.7831L207.701 75.0316L198.092 65.4225L195.179 68.3357L194.248 66.9606L201.295 59.9136Z" fill="white"/>
<path d="M216.341 66.3913L205.579 55.6292L204.17 57.0381L214.933 67.8002L216.341 66.3913Z" fill="#FEFEFE"/>
<path d="M214.198 47.0103L215.103 48.412L212.257 51.2574L221.866 60.8665L220.485 62.2477L210.876 52.6386L207.975 55.5393L207.071 54.1376L214.198 47.0103Z" fill="#FEFEFE"/>
<path d="M224.788 48.1716L227.507 45.4526C226.103 44.6596 224.37 43.7027 221.398 42.0625C222.929 44.8143 223.913 46.5755 224.788 48.1716ZM229.13 46.3549L225.718 49.7674L225.663 49.7125C226.401 51.061 227.194 52.4643 228.288 54.4457L226.762 55.9716L219.273 41.9357L221.354 39.8549L235.39 47.3431L233.781 48.9523C231.662 47.7767 230.369 47.0383 229.13 46.3549Z" fill="white"/>
<path fill-rule="evenodd" clip-rule="evenodd" d="M230.244 30.8052L228.997 32.0519L235.71 47.022L236.985 45.7475L230.244 30.8052Z" fill="#4B75A4"/>
<path fill-rule="evenodd" clip-rule="evenodd" d="M240.089 39.5275L241.925 30.8015L232.762 32.2009L231.204 30.6426L242.408 29.1711L243.692 30.456L241.647 41.0858L240.089 39.5275Z" fill="#4B75A4"/>
</g>
<g opacity="0.15">
<path fill-rule="evenodd" clip-rule="evenodd" d="M202.854 201.382L212.821 191.416C213.459 190.777 214.537 190.744 215.196 191.403L230.531 206.738C231.19 207.397 231.157 208.475 230.519 209.113L220.552 219.08C219.913 219.719 218.836 219.752 218.176 219.092L202.842 203.758C202.182 203.098 202.215 202.021 202.854 201.382Z" fill="#4B75A4"/>
<path d="M204.295 207.914L205.171 209.344L202.341 212.174L211.95 221.783L210.701 223.032L201.092 213.423L198.179 216.336L197.248 214.961L204.295 207.914Z" fill="white"/>
<path d="M219.341 214.391L208.579 203.629L207.17 205.038L217.933 215.8L219.341 214.391Z" fill="#FEFEFE"/>
<path d="M217.198 195.01L218.103 196.412L215.257 199.257L224.866 208.866L223.485 210.248L213.876 200.639L210.975 203.539L210.071 202.138L217.198 195.01Z" fill="#FEFEFE"/>
<path d="M227.788 196.172L230.507 193.453C229.103 192.66 227.37 191.703 224.398 190.062C225.929 192.814 226.913 194.576 227.788 196.172ZM232.13 194.355L228.718 197.767L228.663 197.712C229.401 199.061 230.194 200.464 231.288 202.446L229.762 203.972L222.273 189.936L224.354 187.855L238.39 195.343L236.781 196.952C234.662 195.777 233.369 195.038 232.13 194.355Z" fill="white"/>
<path fill-rule="evenodd" clip-rule="evenodd" d="M233.244 178.805L231.997 180.052L238.71 195.022L239.985 193.748L233.244 178.805Z" fill="#4B75A4"/>
<path fill-rule="evenodd" clip-rule="evenodd" d="M243.089 187.528L244.925 178.801L235.762 180.201L234.204 178.643L245.408 177.171L246.692 178.456L244.647 189.086L243.089 187.528Z" fill="#4B75A4"/>
</g>
<g opacity="0.15">
<path d="M40.2621 4.94642L51.0242 15.7085L49.748 16.9848L38.9858 6.22266L40.2621 4.94642Z" fill="white"/>
<path d="M50.7493 -5.54081L61.5114 5.22132L59.2086 7.52414L45.6841 2.48944C49.0087 5.31456 52.0553 8.5277 55.1302 11.6026L53.7152 13.0175L42.9531 2.25537L45.2004 0.00811064L58.78 5.04248C55.4827 2.29996 52.3543 -1.10581 49.3343 -4.12582L50.7493 -5.54081Z" fill="white"/>
<path d="M59.2949 -14.0864L60.1705 -12.6559L57.3405 -9.82593L66.9496 -0.216866L65.7012 1.03158L56.0921 -8.57749L53.1789 -5.66432L52.2479 -7.03936L59.2949 -14.0864Z" fill="white"/>
</g>
<g opacity="0.15">
<path fill-rule="evenodd" clip-rule="evenodd" d="M60.854 127.382L70.8208 117.416C71.4594 116.777 72.5368 116.744 73.1963 117.403L88.5306 132.738C89.1902 133.397 89.1571 134.475 88.5185 135.113L78.5517 145.08C77.9131 145.719 76.8357 145.752 76.1762 145.092L60.8418 129.758C60.1823 129.098 60.2154 128.021 60.854 127.382Z" fill="#4B75A4"/>
<path d="M43.2621 152.946L54.0242 163.709L52.748 164.985L41.9858 154.223L43.2621 152.946Z" fill="white"/>
<path d="M53.7493 142.459L64.5114 153.221L62.2086 155.524L48.6841 150.489C52.0087 153.315 55.0553 156.528 58.1302 159.603L56.7152 161.017L45.9531 150.255L48.2004 148.008L61.78 153.042C58.4827 150.3 55.3543 146.894 52.3343 143.874L53.7493 142.459Z" fill="white"/>
<path d="M62.2949 133.914L63.1705 135.344L60.3405 138.174L69.9496 147.783L68.7012 149.032L59.0921 139.423L56.1789 142.336L55.2479 140.961L62.2949 133.914Z" fill="white"/>
<path d="M77.3414 140.391L66.5793 129.629L65.1704 131.038L75.9325 141.8L77.3414 140.391Z" fill="#FEFEFE"/>
<path d="M75.1982 121.01L76.1026 122.412L73.2572 125.257L82.8663 134.866L81.485 136.248L71.876 126.639L68.9753 129.539L68.0709 128.138L75.1982 121.01Z" fill="#FEFEFE"/>
<path d="M85.7879 122.172L88.5069 119.453C87.1034 118.66 85.3698 117.703 82.3978 116.062C83.9288 118.814 84.9131 120.576 85.7879 122.172ZM90.1304 120.355L86.7179 123.767L86.663 123.712C87.401 125.061 88.194 126.464 89.2876 128.446L87.7616 129.972L80.2733 115.936L82.3541 113.855L96.3901 121.343L94.7809 122.952C92.662 121.777 91.3687 121.038 90.1304 120.355Z" fill="white"/>
<path fill-rule="evenodd" clip-rule="evenodd" d="M91.2436 104.805L89.9969 106.052L96.7105 121.022L97.985 119.748L91.2436 104.805Z" fill="#4B75A4"/>
<path fill-rule="evenodd" clip-rule="evenodd" d="M101.089 113.528L102.925 104.801L93.7619 106.201L92.2036 104.643L103.408 103.171L104.692 104.456L102.647 115.086L101.089 113.528Z" fill="#4B75A4"/>
</g>
<g opacity="0.15">
<path fill-rule="evenodd" clip-rule="evenodd" d="M57.854 52.3824L67.8208 42.4155C68.4594 41.7769 69.5368 41.7439 70.1963 42.4034L85.5306 57.7377C86.1902 58.3973 86.1571 59.4747 85.5185 60.1132L75.5517 70.0801C74.9131 70.7187 73.8357 70.7517 73.1762 70.0922L57.8418 54.7579C57.1823 54.0983 57.2154 53.0209 57.854 52.3824Z" fill="#4B75A4"/>
<path d="M40.2621 77.9464L51.0242 88.7085L49.748 89.9848L38.9858 79.2227L40.2621 77.9464Z" fill="white"/>
<path d="M50.7493 67.4592L61.5114 78.2213L59.2086 80.5241L45.6841 75.4894C49.0087 78.3146 52.0553 81.5277 55.1302 84.6026L53.7152 86.0175L42.9531 75.2554L45.2004 73.0081L58.78 78.0425C55.4827 75.3 52.3543 71.8942 49.3343 68.8742L50.7493 67.4592Z" fill="white"/>
<path d="M59.2949 58.9136L60.1705 60.3441L57.3405 63.1741L66.9496 72.7831L65.7012 74.0316L56.0921 64.4225L53.1789 67.3357L52.2479 65.9606L59.2949 58.9136Z" fill="white"/>
<path d="M74.3414 65.3913L63.5793 54.6292L62.1704 56.0381L72.9325 66.8002L74.3414 65.3913Z" fill="#FEFEFE"/>
<path d="M72.1982 46.0103L73.1026 47.412L70.2572 50.2574L79.8663 59.8665L78.485 61.2477L68.876 51.6386L65.9753 54.5393L65.0709 53.1376L72.1982 46.0103Z" fill="#FEFEFE"/>
<path d="M82.7879 47.1716L85.5069 44.4526C84.1034 43.6596 82.3698 42.7027 79.3978 41.0625C80.9288 43.8143 81.9131 45.5755 82.7879 47.1716ZM87.1304 45.3549L83.7179 48.7674L83.663 48.7125C84.401 50.061 85.194 51.4643 86.2876 53.4457L84.7616 54.9716L77.2733 40.9357L79.3541 38.8549L93.3901 46.3431L91.7809 47.9523C89.662 46.7767 88.3687 46.0383 87.1304 45.3549Z" fill="white"/>
<path fill-rule="evenodd" clip-rule="evenodd" d="M88.2436 29.8052L86.9969 31.0519L93.7105 46.022L94.985 44.7475L88.2436 29.8052Z" fill="#4B75A4"/>
<path fill-rule="evenodd" clip-rule="evenodd" d="M98.0886 38.5275L99.9253 29.8015L90.7619 31.2009L89.2036 29.6426L100.408 28.1711L101.692 29.456L99.6469 40.0858L98.0886 38.5275Z" fill="#4B75A4"/>
</g>
<g opacity="0.15">
<path fill-rule="evenodd" clip-rule="evenodd" d="M60.854 200.382L70.8208 190.416C71.4594 189.777 72.5368 189.744 73.1963 190.403L88.5306 205.738C89.1902 206.397 89.1571 207.475 88.5185 208.113L78.5517 218.08C77.9131 218.719 76.8357 218.752 76.1762 218.092L60.8418 202.758C60.1823 202.098 60.2154 201.021 60.854 200.382Z" fill="#4B75A4"/>
<path d="M62.2949 206.914L63.1705 208.344L60.3405 211.174L69.9496 220.783L68.7012 222.032L59.0921 212.423L56.1789 215.336L55.2479 213.961L62.2949 206.914Z" fill="white"/>
<path d="M77.3414 213.391L66.5793 202.629L65.1704 204.038L75.9325 214.8L77.3414 213.391Z" fill="#FEFEFE"/>
<path d="M75.1982 194.01L76.1026 195.412L73.2572 198.257L82.8663 207.866L81.485 209.248L71.876 199.639L68.9753 202.539L68.0709 201.138L75.1982 194.01Z" fill="#FEFEFE"/>
<path d="M85.7879 195.172L88.5069 192.453C87.1034 191.66 85.3698 190.703 82.3978 189.062C83.9288 191.814 84.9131 193.576 85.7879 195.172ZM90.1304 193.355L86.7179 196.767L86.663 196.712C87.401 198.061 88.194 199.464 89.2876 201.446L87.7616 202.972L80.2733 188.936L82.3541 186.855L96.3901 194.343L94.7809 195.952C92.662 194.777 91.3687 194.038 90.1304 193.355Z" fill="white"/>
<path fill-rule="evenodd" clip-rule="evenodd" d="M91.2436 177.805L89.9969 179.052L96.7105 194.022L97.985 192.748L91.2436 177.805Z" fill="#4B75A4"/>
<path fill-rule="evenodd" clip-rule="evenodd" d="M101.089 186.528L102.925 177.801L93.7619 179.201L92.2036 177.643L103.408 176.171L104.692 177.456L102.647 188.086L101.089 186.528Z" fill="#4B75A4"/>
</g>
<g opacity="0.15">
<path d="M324.262 4.94642L335.024 15.7085L333.748 16.9848L322.986 6.22266L324.262 4.94642Z" fill="white"/>
<path d="M334.749 -5.54081L345.511 5.22132L343.209 7.52414L329.684 2.48944C333.009 5.31456 336.055 8.5277 339.13 11.6026L337.715 13.0175L326.953 2.25537L329.2 0.00811064L342.78 5.04248C339.483 2.29996 336.354 -1.10581 333.334 -4.12582L334.749 -5.54081Z" fill="white"/>
<path d="M343.294 -14.0864L344.17 -12.6559L341.34 -9.82593L350.949 -0.216866L349.701 1.03158L340.092 -8.57749L337.178 -5.66432L336.247 -7.03936L343.294 -14.0864Z" fill="white"/>
</g>
<g opacity="0.15">
<path fill-rule="evenodd" clip-rule="evenodd" d="M344.854 127.382L354.821 117.416C355.459 116.777 356.537 116.744 357.196 117.403L372.531 132.738C373.19 133.397 373.157 134.475 372.519 135.113L362.552 145.08C361.913 145.719 360.836 145.752 360.176 145.092L344.842 129.758C344.182 129.098 344.215 128.021 344.854 127.382Z" fill="#4B75A4"/>
<path d="M327.262 152.946L338.024 163.709L336.748 164.985L325.986 154.223L327.262 152.946Z" fill="white"/>
<path d="M337.749 142.459L348.511 153.221L346.209 155.524L332.684 150.489C336.009 153.315 339.055 156.528 342.13 159.603L340.715 161.017L329.953 150.255L332.2 148.008L345.78 153.042C342.483 150.3 339.354 146.894 336.334 143.874L337.749 142.459Z" fill="white"/>
<path d="M346.294 133.914L347.17 135.344L344.34 138.174L353.949 147.783L352.701 149.032L343.092 139.423L340.178 142.336L339.247 140.961L346.294 133.914Z" fill="white"/>
<path d="M361.342 140.391L350.58 129.629L349.171 131.038L359.933 141.8L361.342 140.391Z" fill="#FEFEFE"/>
<path d="M359.198 121.01L360.103 122.412L357.257 125.257L366.866 134.866L365.485 136.248L355.876 126.639L352.975 129.539L352.071 128.138L359.198 121.01Z" fill="#FEFEFE"/>
<path d="M369.787 122.172L372.506 119.453C371.103 118.66 369.369 117.703 366.397 116.062C367.928 118.814 368.913 120.576 369.787 122.172ZM374.13 120.355L370.717 123.767L370.662 123.712C371.401 125.061 372.193 126.464 373.287 128.446L371.761 129.972L364.273 115.936L366.354 113.855L380.39 121.343L378.78 122.952C376.662 121.777 375.368 121.038 374.13 120.355Z" fill="white"/>
<path fill-rule="evenodd" clip-rule="evenodd" d="M375.244 104.805L373.997 106.052L380.711 121.022L381.986 119.748L375.244 104.805Z" fill="#4B75A4"/>
</g>
<g opacity="0.15">
<path fill-rule="evenodd" clip-rule="evenodd" d="M341.854 52.3824L351.821 42.4155C352.459 41.7769 353.537 41.7439 354.196 42.4034L369.531 57.7377C370.19 58.3973 370.157 59.4747 369.519 60.1132L359.552 70.0801C358.913 70.7187 357.836 70.7517 357.176 70.0922L341.842 54.7579C341.182 54.0983 341.215 53.0209 341.854 52.3824Z" fill="#4B75A4"/>
<path d="M324.262 77.9464L335.024 88.7085L333.748 89.9848L322.986 79.2227L324.262 77.9464Z" fill="white"/>
<path d="M334.749 67.4592L345.511 78.2213L343.209 80.5241L329.684 75.4894C333.009 78.3146 336.055 81.5277 339.13 84.6026L337.715 86.0175L326.953 75.2554L329.2 73.0081L342.78 78.0425C339.483 75.3 336.354 71.8942 333.334 68.8742L334.749 67.4592Z" fill="white"/>
<path d="M343.294 58.9136L344.17 60.3441L341.34 63.1741L350.949 72.7831L349.701 74.0316L340.092 64.4225L337.178 67.3357L336.247 65.9606L343.294 58.9136Z" fill="white"/>
<path d="M358.342 65.3913L347.58 54.6292L346.171 56.0381L356.933 66.8002L358.342 65.3913Z" fill="#FEFEFE"/>
<path d="M356.198 46.0103L357.103 47.412L354.257 50.2574L363.866 59.8665L362.485 61.2477L352.876 51.6386L349.975 54.5393L349.071 53.1376L356.198 46.0103Z" fill="#FEFEFE"/>
<path d="M366.787 47.1716L369.506 44.4526C368.103 43.6596 366.369 42.7027 363.397 41.0625C364.928 43.8143 365.913 45.5755 366.787 47.1716ZM371.13 45.3549L367.717 48.7674L367.662 48.7125C368.401 50.061 369.193 51.4643 370.287 53.4457L368.761 54.9716L361.273 40.9357L363.354 38.8549L377.39 46.3431L375.78 47.9523C373.662 46.7767 372.368 46.0383 371.13 45.3549Z" fill="white"/>
<path fill-rule="evenodd" clip-rule="evenodd" d="M372.244 29.8052L370.997 31.0519L377.711 46.022L378.986 44.7475L372.244 29.8052Z" fill="#4B75A4"/>
<path fill-rule="evenodd" clip-rule="evenodd" d="M382.089 38.5275L383.926 29.8015L374.762 31.2009L373.204 29.6426L384.408 28.1711L385.693 29.456L383.647 40.0858L382.089 38.5275Z" fill="#4B75A4"/>
</g>
<g opacity="0.15">
<path fill-rule="evenodd" clip-rule="evenodd" d="M344.854 200.382L354.821 190.416C355.459 189.777 356.537 189.744 357.196 190.403L372.531 205.738C373.19 206.397 373.157 207.475 372.519 208.113L362.552 218.08C361.913 218.719 360.836 218.752 360.176 218.092L344.842 202.758C344.182 202.098 344.215 201.021 344.854 200.382Z" fill="#4B75A4"/>
<path d="M346.294 206.914L347.17 208.344L344.34 211.174L353.949 220.783L352.701 222.032L343.092 212.423L340.178 215.336L339.247 213.961L346.294 206.914Z" fill="white"/>
<path d="M361.342 213.391L350.58 202.629L349.171 204.038L359.933 214.8L361.342 213.391Z" fill="#FEFEFE"/>
<path d="M359.198 194.01L360.103 195.412L357.257 198.257L366.866 207.866L365.485 209.248L355.876 199.639L352.975 202.539L352.071 201.138L359.198 194.01Z" fill="#FEFEFE"/>
<path d="M369.787 195.172L372.506 192.453C371.103 191.66 369.369 190.703 366.397 189.062C367.928 191.814 368.913 193.576 369.787 195.172ZM374.13 193.355L370.717 196.767L370.662 196.712C371.401 198.061 372.193 199.464 373.287 201.446L371.761 202.972L364.273 188.936L366.354 186.855L380.39 194.343L378.78 195.952C376.662 194.777 375.368 194.038 374.13 193.355Z" fill="white"/>
<path fill-rule="evenodd" clip-rule="evenodd" d="M375.244 177.805L373.997 179.052L380.711 194.022L381.986 192.748L375.244 177.805Z" fill="#4B75A4"/>
</g>
<g opacity="0.15">
</g>
<g opacity="0.15">
<path fill-rule="evenodd" clip-rule="evenodd" d="M-10.146 128.382L-0.179196 118.416C0.459386 117.777 1.53675 117.744 2.1963 118.403L17.5306 133.738C18.1902 134.397 18.1571 135.475 17.5185 136.113L7.55168 146.08C6.9131 146.719 5.83571 146.752 5.17619 146.092L-10.1582 130.758C-10.8177 130.098 -10.7846 129.021 -10.146 128.382Z" fill="#4B75A4"/>
<path d="M-8.70513 134.914L-7.82948 136.344L-10.6595 139.174L-1.05039 148.783L-2.29883 150.032L-11.9079 140.423L-14.8211 143.336L-15.7521 141.961L-8.70513 134.914Z" fill="white"/>
<path d="M6.34142 141.391L-4.4207 130.629L-5.82959 132.038L4.93253 142.8L6.34142 141.391Z" fill="#FEFEFE"/>
<path d="M4.1982 122.01L5.10265 123.412L2.25719 126.257L11.8663 135.866L10.485 137.248L0.875976 127.639L-2.02467 130.539L-2.92912 129.138L4.1982 122.01Z" fill="#FEFEFE"/>
<path d="M14.7879 123.172L17.5069 120.453C16.1034 119.66 14.3698 118.703 11.3978 117.062C12.9288 119.814 13.9131 121.576 14.7879 123.172ZM19.1304 121.355L15.7179 124.767L15.663 124.712C16.401 126.061 17.194 127.464 18.2876 129.446L16.7616 130.972L9.27328 116.936L11.3541 114.855L25.3901 122.343L23.7809 123.952C21.662 122.777 20.3687 122.038 19.1304 121.355Z" fill="white"/>
<path fill-rule="evenodd" clip-rule="evenodd" d="M20.2436 105.805L18.9969 107.052L25.7105 122.022L26.985 120.748L20.2436 105.805Z" fill="#4B75A4"/>
<path fill-rule="evenodd" clip-rule="evenodd" d="M30.0886 114.528L31.9253 105.801L22.7619 107.201L21.2036 105.643L32.4075 104.171L33.6924 105.456L31.6469 116.086L30.0886 114.528Z" fill="#4B75A4"/>
</g>
<g opacity="0.15">
<path fill-rule="evenodd" clip-rule="evenodd" d="M-13.146 53.3824L-3.1792 43.4155C-2.54061 42.7769 -1.46325 42.7439 -0.803704 43.4034L14.5306 58.7377C15.1902 59.3973 15.1571 60.4747 14.5185 61.1132L4.55168 71.0801C3.9131 71.7187 2.83571 71.7517 2.17619 71.0922L-13.1582 55.7579C-13.8177 55.0983 -13.7846 54.0209 -13.146 53.3824Z" fill="#4B75A4"/>
<path d="M3.34142 66.3913L-7.4207 55.6292L-8.82959 57.0381L1.93253 67.8002L3.34142 66.3913Z" fill="#FEFEFE"/>
<path d="M1.1982 47.0103L2.10265 48.412L-0.742811 51.2574L8.86625 60.8665L7.48504 62.2477L-2.12402 52.6386L-5.02467 55.5393L-5.92912 54.1376L1.1982 47.0103Z" fill="#FEFEFE"/>
<path d="M11.7879 48.1716L14.5069 45.4526C13.1034 44.6596 11.3698 43.7027 8.39778 42.0625C9.92878 44.8143 10.9131 46.5755 11.7879 48.1716ZM16.1304 46.3549L12.7179 49.7674L12.663 49.7125C13.401 51.061 14.194 52.4643 15.2876 54.4457L13.7616 55.9716L6.27328 41.9357L8.35412 39.8549L22.3901 47.3431L20.7809 48.9523C18.662 47.7767 17.3687 47.0383 16.1304 46.3549Z" fill="white"/>
<path fill-rule="evenodd" clip-rule="evenodd" d="M17.2436 30.8052L15.9969 32.0519L22.7105 47.022L23.985 45.7475L17.2436 30.8052Z" fill="#4B75A4"/>
<path fill-rule="evenodd" clip-rule="evenodd" d="M27.0886 39.5275L28.9253 30.8015L19.7619 32.2009L18.2036 30.6426L29.4075 29.1711L30.6924 30.456L28.6469 41.0858L27.0886 39.5275Z" fill="#4B75A4"/>
</g>
<g opacity="0.15">
<path fill-rule="evenodd" clip-rule="evenodd" d="M-10.146 201.382L-0.179196 191.416C0.459386 190.777 1.53675 190.744 2.1963 191.403L17.5306 206.738C18.1902 207.397 18.1571 208.475 17.5185 209.113L7.55168 219.08C6.9131 219.719 5.83571 219.752 5.17619 219.092L-10.1582 203.758C-10.8177 203.098 -10.7846 202.021 -10.146 201.382Z" fill="#4B75A4"/>
<path d="M-8.70513 207.914L-7.82948 209.344L-10.6595 212.174L-1.05039 221.783L-2.29883 223.032L-11.9079 213.423L-14.8211 216.336L-15.7521 214.961L-8.70513 207.914Z" fill="white"/>
<path d="M6.34142 214.391L-4.4207 203.629L-5.82959 205.038L4.93253 215.8L6.34142 214.391Z" fill="#FEFEFE"/>
<path d="M4.1982 195.01L5.10265 196.412L2.25719 199.257L11.8663 208.866L10.485 210.248L0.875976 200.639L-2.02467 203.539L-2.92912 202.138L4.1982 195.01Z" fill="#FEFEFE"/>
<path d="M14.7879 196.172L17.5069 193.453C16.1034 192.66 14.3698 191.703 11.3978 190.062C12.9288 192.814 13.9131 194.576 14.7879 196.172ZM19.1304 194.355L15.7179 197.767L15.663 197.712C16.401 199.061 17.194 200.464 18.2876 202.446L16.7616 203.972L9.27328 189.936L11.3541 187.855L25.3901 195.343L23.7809 196.952C21.662 195.777 20.3687 195.038 19.1304 194.355Z" fill="white"/>
<path fill-rule="evenodd" clip-rule="evenodd" d="M20.2436 178.805L18.9969 180.052L25.7105 195.022L26.985 193.748L20.2436 178.805Z" fill="#4B75A4"/>
<path fill-rule="evenodd" clip-rule="evenodd" d="M30.0886 187.528L31.9253 178.801L22.7619 180.201L21.2036 178.643L32.4075 177.171L33.6924 178.456L31.6469 189.086L30.0886 187.528Z" fill="#4B75A4"/>
</g>
<g opacity="0.15">
<path d="M253.262 5.94642L264.024 16.7085L262.748 17.9848L251.986 7.22266L253.262 5.94642Z" fill="white"/>
<path d="M263.749 -4.54081L274.511 6.22132L272.209 8.52414L258.684 3.48944C262.009 6.31456 265.055 9.5277 268.13 12.6026L266.715 14.0175L255.953 3.25537L258.2 1.00811L271.78 6.04248C268.483 3.29996 265.354 -0.105807 262.334 -3.12582L263.749 -4.54081Z" fill="white"/>
<path d="M272.295 -13.0864L273.171 -11.6559L270.341 -8.82593L279.95 0.783134L278.701 2.03158L269.092 -7.57749L266.179 -4.66432L265.248 -6.03936L272.295 -13.0864Z" fill="white"/>
</g>
<g opacity="0.15">
<path fill-rule="evenodd" clip-rule="evenodd" d="M273.854 128.382L283.821 118.416C284.459 117.777 285.537 117.744 286.196 118.403L301.531 133.738C302.19 134.397 302.157 135.475 301.519 136.113L291.552 146.08C290.913 146.719 289.836 146.752 289.176 146.092L273.842 130.758C273.182 130.098 273.215 129.021 273.854 128.382Z" fill="#4B75A4"/>
<path d="M256.262 153.946L267.024 164.709L265.748 165.985L254.986 155.223L256.262 153.946Z" fill="white"/>
<path d="M266.749 143.459L277.511 154.221L275.209 156.524L261.684 151.489C265.009 154.315 268.055 157.528 271.13 160.603L269.715 162.017L258.953 151.255L261.2 149.008L274.78 154.042C271.483 151.3 268.354 147.894 265.334 144.874L266.749 143.459Z" fill="white"/>
<path d="M275.295 134.914L276.171 136.344L273.341 139.174L282.95 148.783L281.701 150.032L272.092 140.423L269.179 143.336L268.248 141.961L275.295 134.914Z" fill="white"/>
<path d="M290.341 141.391L279.579 130.629L278.17 132.038L288.933 142.8L290.341 141.391Z" fill="#FEFEFE"/>
<path d="M288.198 122.01L289.103 123.412L286.257 126.257L295.866 135.866L294.485 137.248L284.876 127.639L281.975 130.539L281.071 129.138L288.198 122.01Z" fill="#FEFEFE"/>
<path d="M298.788 123.172L301.507 120.453C300.103 119.66 298.37 118.703 295.398 117.062C296.929 119.814 297.913 121.576 298.788 123.172ZM303.13 121.355L299.718 124.767L299.663 124.712C300.401 126.061 301.194 127.464 302.288 129.446L300.762 130.972L293.273 116.936L295.354 114.855L309.39 122.343L307.781 123.952C305.662 122.777 304.369 122.038 303.13 121.355Z" fill="white"/>
<path fill-rule="evenodd" clip-rule="evenodd" d="M304.244 105.805L302.997 107.052L309.71 122.022L310.985 120.748L304.244 105.805Z" fill="#4B75A4"/>
<path fill-rule="evenodd" clip-rule="evenodd" d="M314.089 114.528L315.925 105.801L306.762 107.201L305.204 105.643L316.408 104.171L317.692 105.456L315.647 116.086L314.089 114.528Z" fill="#4B75A4"/>
</g>
<g opacity="0.15">
<path fill-rule="evenodd" clip-rule="evenodd" d="M270.854 53.3824L280.821 43.4155C281.459 42.7769 282.537 42.7439 283.196 43.4034L298.531 58.7377C299.19 59.3973 299.157 60.4747 298.519 61.1132L288.552 71.0801C287.913 71.7187 286.836 71.7517 286.176 71.0922L270.842 55.7579C270.182 55.0983 270.215 54.0209 270.854 53.3824Z" fill="#4B75A4"/>
<path d="M253.262 78.9464L264.024 89.7085L262.748 90.9848L251.986 80.2227L253.262 78.9464Z" fill="white"/>
<path d="M263.749 68.4592L274.511 79.2213L272.209 81.5241L258.684 76.4894C262.009 79.3146 265.055 82.5277 268.13 85.6026L266.715 87.0175L255.953 76.2554L258.2 74.0081L271.78 79.0425C268.483 76.3 265.354 72.8942 262.334 69.8742L263.749 68.4592Z" fill="white"/>
<path d="M272.295 59.9136L273.171 61.3441L270.341 64.1741L279.95 73.7831L278.701 75.0316L269.092 65.4225L266.179 68.3357L265.248 66.9606L272.295 59.9136Z" fill="white"/>
<path d="M287.341 66.3913L276.579 55.6292L275.17 57.0381L285.933 67.8002L287.341 66.3913Z" fill="#FEFEFE"/>
<path d="M285.198 47.0103L286.103 48.412L283.257 51.2574L292.866 60.8665L291.485 62.2477L281.876 52.6386L278.975 55.5393L278.071 54.1376L285.198 47.0103Z" fill="#FEFEFE"/>
<path d="M295.788 48.1716L298.507 45.4526C297.103 44.6596 295.37 43.7027 292.398 42.0625C293.929 44.8143 294.913 46.5755 295.788 48.1716ZM300.13 46.3549L296.718 49.7674L296.663 49.7125C297.401 51.061 298.194 52.4643 299.288 54.4457L297.762 55.9716L290.273 41.9357L292.354 39.8549L306.39 47.3431L304.781 48.9523C302.662 47.7767 301.369 47.0383 300.13 46.3549Z" fill="white"/>
<path fill-rule="evenodd" clip-rule="evenodd" d="M301.244 30.8052L299.997 32.0519L306.71 47.022L307.985 45.7475L301.244 30.8052Z" fill="#4B75A4"/>
<path fill-rule="evenodd" clip-rule="evenodd" d="M311.089 39.5275L312.925 30.8015L303.762 32.2009L302.204 30.6426L313.408 29.1711L314.692 30.456L312.647 41.0858L311.089 39.5275Z" fill="#4B75A4"/>
</g>
<g opacity="0.15">
<path fill-rule="evenodd" clip-rule="evenodd" d="M273.854 201.382L283.821 191.416C284.459 190.777 285.537 190.744 286.196 191.403L301.531 206.738C302.19 207.397 302.157 208.475 301.519 209.113L291.552 219.08C290.913 219.719 289.836 219.752 289.176 219.092L273.842 203.758C273.182 203.098 273.215 202.021 273.854 201.382Z" fill="#4B75A4"/>
<path d="M275.295 207.914L276.171 209.344L273.341 212.174L282.95 221.783L281.701 223.032L272.092 213.423L269.179 216.336L268.248 214.961L275.295 207.914Z" fill="white"/>
<path d="M290.341 214.391L279.579 203.629L278.17 205.038L288.933 215.8L290.341 214.391Z" fill="#FEFEFE"/>
<path d="M288.198 195.01L289.103 196.412L286.257 199.257L295.866 208.866L294.485 210.248L284.876 200.639L281.975 203.539L281.071 202.138L288.198 195.01Z" fill="#FEFEFE"/>
<path d="M298.788 196.172L301.507 193.453C300.103 192.66 298.37 191.703 295.398 190.062C296.929 192.814 297.913 194.576 298.788 196.172ZM303.13 194.355L299.718 197.767L299.663 197.712C300.401 199.061 301.194 200.464 302.288 202.446L300.762 203.972L293.273 189.936L295.354 187.855L309.39 195.343L307.781 196.952C305.662 195.777 304.369 195.038 303.13 194.355Z" fill="white"/>
<path fill-rule="evenodd" clip-rule="evenodd" d="M304.244 178.805L302.997 180.052L309.71 195.022L310.985 193.748L304.244 178.805Z" fill="#4B75A4"/>
<path fill-rule="evenodd" clip-rule="evenodd" d="M314.089 187.528L315.925 178.801L306.762 180.201L305.204 178.643L316.408 177.171L317.692 178.456L315.647 189.086L314.089 187.528Z" fill="#4B75A4"/>
</g>
<g opacity="0.15">
<path d="M111.262 4.94642L122.024 15.7085L120.748 16.9848L109.986 6.22266L111.262 4.94642Z" fill="white"/>
<path d="M121.749 -5.54081L132.511 5.22132L130.209 7.52414L116.684 2.48944C120.009 5.31456 123.055 8.5277 126.13 11.6026L124.715 13.0175L113.953 2.25537L116.2 0.00811064L129.78 5.04248C126.483 2.29996 123.354 -1.10581 120.334 -4.12582L121.749 -5.54081Z" fill="white"/>
<path d="M130.295 -14.0864L131.171 -12.6559L128.341 -9.82593L137.95 -0.216866L136.701 1.03158L127.092 -8.57749L124.179 -5.66432L123.248 -7.03936L130.295 -14.0864Z" fill="white"/>
</g>
<g opacity="0.15">
<path fill-rule="evenodd" clip-rule="evenodd" d="M131.854 127.382L141.821 117.416C142.459 116.777 143.537 116.744 144.196 117.403L159.531 132.738C160.19 133.397 160.157 134.475 159.519 135.113L149.552 145.08C148.913 145.719 147.836 145.752 147.176 145.092L131.842 129.758C131.182 129.098 131.215 128.021 131.854 127.382Z" fill="#4B75A4"/>
<path d="M114.262 152.946L125.024 163.709L123.748 164.985L112.986 154.223L114.262 152.946Z" fill="white"/>
<path d="M124.749 142.459L135.511 153.221L133.209 155.524L119.684 150.489C123.009 153.315 126.055 156.528 129.13 159.603L127.715 161.017L116.953 150.255L119.2 148.008L132.78 153.042C129.483 150.3 126.354 146.894 123.334 143.874L124.749 142.459Z" fill="white"/>
<path d="M133.295 133.914L134.171 135.344L131.341 138.174L140.95 147.783L139.701 149.032L130.092 139.423L127.179 142.336L126.248 140.961L133.295 133.914Z" fill="white"/>
<path d="M148.341 140.391L137.579 129.629L136.17 131.038L146.933 141.8L148.341 140.391Z" fill="#FEFEFE"/>
<path d="M146.198 121.01L147.103 122.412L144.257 125.257L153.866 134.866L152.485 136.248L142.876 126.639L139.975 129.539L139.071 128.138L146.198 121.01Z" fill="#FEFEFE"/>
<path d="M156.788 122.172L159.507 119.453C158.103 118.66 156.37 117.703 153.398 116.062C154.929 118.814 155.913 120.576 156.788 122.172ZM161.13 120.355L157.718 123.767L157.663 123.712C158.401 125.061 159.194 126.464 160.288 128.446L158.762 129.972L151.273 115.936L153.354 113.855L167.39 121.343L165.781 122.952C163.662 121.777 162.369 121.038 161.13 120.355Z" fill="white"/>
<path fill-rule="evenodd" clip-rule="evenodd" d="M162.244 104.805L160.997 106.052L167.71 121.022L168.985 119.748L162.244 104.805Z" fill="#4B75A4"/>
<path fill-rule="evenodd" clip-rule="evenodd" d="M172.089 113.528L173.925 104.801L164.762 106.201L163.204 104.643L174.408 103.171L175.692 104.456L173.647 115.086L172.089 113.528Z" fill="#4B75A4"/>
</g>
<g opacity="0.15">
<path fill-rule="evenodd" clip-rule="evenodd" d="M128.854 52.3824L138.821 42.4155C139.459 41.7769 140.537 41.7439 141.196 42.4034L156.531 57.7377C157.19 58.3973 157.157 59.4747 156.519 60.1132L146.552 70.0801C145.913 70.7187 144.836 70.7517 144.176 70.0922L128.842 54.7579C128.182 54.0983 128.215 53.0209 128.854 52.3824Z" fill="#4B75A4"/>
<path d="M111.262 77.9464L122.024 88.7085L120.748 89.9848L109.986 79.2227L111.262 77.9464Z" fill="white"/>
<path d="M121.749 67.4592L132.511 78.2213L130.209 80.5241L116.684 75.4894C120.009 78.3146 123.055 81.5277 126.13 84.6026L124.715 86.0175L113.953 75.2554L116.2 73.0081L129.78 78.0425C126.483 75.3 123.354 71.8942 120.334 68.8742L121.749 67.4592Z" fill="white"/>
<path d="M130.295 58.9136L131.171 60.3441L128.341 63.1741L137.95 72.7831L136.701 74.0316L127.092 64.4225L124.179 67.3357L123.248 65.9606L130.295 58.9136Z" fill="white"/>
<path d="M145.341 65.3913L134.579 54.6292L133.17 56.0381L143.933 66.8002L145.341 65.3913Z" fill="#FEFEFE"/>
<path d="M143.198 46.0103L144.103 47.412L141.257 50.2574L150.866 59.8665L149.485 61.2477L139.876 51.6386L136.975 54.5393L136.071 53.1376L143.198 46.0103Z" fill="#FEFEFE"/>
<path d="M153.788 47.1716L156.507 44.4526C155.103 43.6596 153.37 42.7027 150.398 41.0625C151.929 43.8143 152.913 45.5755 153.788 47.1716ZM158.13 45.3549L154.718 48.7674L154.663 48.7125C155.401 50.061 156.194 51.4643 157.288 53.4457L155.762 54.9716L148.273 40.9357L150.354 38.8549L164.39 46.3431L162.781 47.9523C160.662 46.7767 159.369 46.0383 158.13 45.3549Z" fill="white"/>
<path fill-rule="evenodd" clip-rule="evenodd" d="M159.244 29.8052L157.997 31.0519L164.71 46.022L165.985 44.7475L159.244 29.8052Z" fill="#4B75A4"/>
<path fill-rule="evenodd" clip-rule="evenodd" d="M169.089 38.5275L170.925 29.8015L161.762 31.2009L160.204 29.6426L171.408 28.1711L172.692 29.456L170.647 40.0858L169.089 38.5275Z" fill="#4B75A4"/>
</g>
<g opacity="0.15">
<path fill-rule="evenodd" clip-rule="evenodd" d="M131.854 200.382L141.821 190.416C142.459 189.777 143.537 189.744 144.196 190.403L159.531 205.738C160.19 206.397 160.157 207.475 159.519 208.113L149.552 218.08C148.913 218.719 147.836 218.752 147.176 218.092L131.842 202.758C131.182 202.098 131.215 201.021 131.854 200.382Z" fill="#4B75A4"/>
<path d="M133.295 206.914L134.171 208.344L131.341 211.174L140.95 220.783L139.701 222.032L130.092 212.423L127.179 215.336L126.248 213.961L133.295 206.914Z" fill="white"/>
<path d="M148.341 213.391L137.579 202.629L136.17 204.038L146.933 214.8L148.341 213.391Z" fill="#FEFEFE"/>
<path d="M146.198 194.01L147.103 195.412L144.257 198.257L153.866 207.866L152.485 209.248L142.876 199.639L139.975 202.539L139.071 201.138L146.198 194.01Z" fill="#FEFEFE"/>
<path d="M156.788 195.172L159.507 192.453C158.103 191.66 156.37 190.703 153.398 189.062C154.929 191.814 155.913 193.576 156.788 195.172ZM161.13 193.355L157.718 196.767L157.663 196.712C158.401 198.061 159.194 199.464 160.288 201.446L158.762 202.972L151.273 188.936L153.354 186.855L167.39 194.343L165.781 195.952C163.662 194.777 162.369 194.038 161.13 193.355Z" fill="white"/>
<path fill-rule="evenodd" clip-rule="evenodd" d="M162.244 177.805L160.997 179.052L167.71 194.022L168.985 192.748L162.244 177.805Z" fill="#4B75A4"/>
<path fill-rule="evenodd" clip-rule="evenodd" d="M172.089 186.528L173.925 177.801L164.762 179.201L163.204 177.643L174.408 176.171L175.692 177.456L173.647 188.086L172.089 186.528Z" fill="#4B75A4"/>
</g>
<path fill-rule="evenodd" clip-rule="evenodd" d="M181.082 72H205.54C207.107 72 208.47 73.2981 208.47 74.9379V113.062C208.47 114.702 207.107 116 205.54 116H181.082C179.515 116 178.153 114.702 178.153 113.062V74.9379C178.153 73.2981 179.515 72 181.082 72Z" fill="#4B75A4"/>
<path d="M128.132 81.9097V108.666H125V81.9097H128.132Z" fill="white"/>
<path d="M153.867 81.9097V108.666H148.216L137.799 85.5956C138.412 93.2403 138.208 101.022 138.208 108.666H134.736V81.9097H140.25L150.735 105.049C150.054 97.5406 150.395 89.418 150.395 81.9097H153.867Z" fill="white"/>
<path d="M174.836 81.9097L174.155 84.7764H167.211V108.666H164.147V84.7764H156.999L157.543 81.9097H174.836Z" fill="white"/>
<path d="M185.35 108.666V81.9097H181.893V108.666H185.35Z" fill="#FEFEFE"/>
<path d="M206.501 81.9097L205.891 84.7764H198.908V108.666H195.519V84.7764H188.401L189.011 81.9097H206.501Z" fill="#FEFEFE"/>
<path d="M218.068 96.5167H224.74C223.991 93.7863 223.038 90.4417 221.404 84.7082C219.906 90.0322 218.953 93.4452 218.068 96.5167ZM225.625 99.6565H217.251V99.52C216.502 102.114 215.753 104.844 214.664 108.666H210.919L218.953 81.9097H224.059L232.093 108.666H228.144C226.987 104.571 226.306 102.045 225.625 99.6565Z" fill="white"/>
<path fill-rule="evenodd" clip-rule="evenodd" d="M246.07 81.7119H243.011L232.88 108.667H236.008L246.07 81.7119Z" fill="#4B75A4"/>
<path fill-rule="evenodd" clip-rule="evenodd" d="M247.448 104.792L260.408 96.2283L247.448 86.5768V82.7026L263 94.8011V97.9956L247.448 108.667V104.792Z" fill="#4B75A4"/>
<g filter="url(#filter0_d_80_111)">
<path d="M120.982 154.273V163H119.413V155.585H115.595V163H114.027V154.273H120.982ZM122.873 163V154.273H126.145C126.816 154.273 127.378 154.398 127.833 154.648C128.29 154.898 128.635 155.241 128.868 155.679C129.104 156.114 129.222 156.608 129.222 157.162C129.222 157.722 129.104 158.219 128.868 158.653C128.632 159.088 128.284 159.43 127.824 159.68C127.364 159.928 126.797 160.051 126.124 160.051H123.955V158.751H125.911C126.303 158.751 126.624 158.683 126.874 158.547C127.124 158.411 127.309 158.223 127.428 157.984C127.55 157.746 127.611 157.472 127.611 157.162C127.611 156.852 127.55 156.58 127.428 156.344C127.309 156.108 127.123 155.925 126.87 155.794C126.62 155.661 126.297 155.594 125.902 155.594H124.453V163H122.873ZM138.393 158.636C138.393 159.577 138.217 160.382 137.865 161.053C137.516 161.72 137.038 162.232 136.433 162.587C135.831 162.942 135.148 163.119 134.384 163.119C133.619 163.119 132.935 162.942 132.33 162.587C131.727 162.229 131.25 161.716 130.898 161.048C130.548 160.378 130.374 159.574 130.374 158.636C130.374 157.696 130.548 156.892 130.898 156.224C131.25 155.554 131.727 155.041 132.33 154.686C132.935 154.331 133.619 154.153 134.384 154.153C135.148 154.153 135.831 154.331 136.433 154.686C137.038 155.041 137.516 155.554 137.865 156.224C138.217 156.892 138.393 157.696 138.393 158.636ZM136.804 158.636C136.804 157.974 136.7 157.416 136.493 156.962C136.288 156.504 136.004 156.159 135.641 155.926C135.277 155.69 134.858 155.572 134.384 155.572C133.909 155.572 133.49 155.69 133.126 155.926C132.763 156.159 132.477 156.504 132.27 156.962C132.065 157.416 131.963 157.974 131.963 158.636C131.963 159.298 132.065 159.858 132.27 160.315C132.477 160.77 132.763 161.115 133.126 161.351C133.49 161.584 133.909 161.7 134.384 161.7C134.858 161.7 135.277 161.584 135.641 161.351C136.004 161.115 136.288 160.77 136.493 160.315C136.7 159.858 136.804 159.298 136.804 158.636ZM145.5 154.273V155.598H141.469V163H139.888V154.273H145.5ZM146.837 163V154.273H150.11C150.781 154.273 151.343 154.398 151.798 154.648C152.255 154.898 152.6 155.241 152.833 155.679C153.069 156.114 153.187 156.608 153.187 157.162C153.187 157.722 153.069 158.219 152.833 158.653C152.597 159.088 152.249 159.43 151.789 159.68C151.329 159.928 150.762 160.051 150.089 160.051H147.92V158.751H149.876C150.268 158.751 150.589 158.683 150.839 158.547C151.089 158.411 151.273 158.223 151.393 157.984C151.515 157.746 151.576 157.472 151.576 157.162C151.576 156.852 151.515 156.58 151.393 156.344C151.273 156.108 151.087 155.925 150.835 155.794C150.585 155.661 150.262 155.594 149.867 155.594H148.418V163H146.837ZM154.708 163H153.021L156.093 154.273H158.045L161.121 163H159.434L157.103 156.062H157.035L154.708 163ZM154.763 159.578H159.366V160.848H154.763V159.578ZM162.271 154.273H164.206L166.797 160.597H166.899L169.49 154.273H171.424V163H169.907V157.004H169.826L167.414 162.974H166.281L163.869 156.991H163.788V163H162.271V154.273ZM173.926 163.119V161.79H174.424C174.649 161.79 174.833 161.757 174.978 161.692C175.123 161.626 175.24 161.533 175.328 161.411C175.419 161.288 175.494 161.146 175.554 160.984L175.669 160.69L172.549 154.273H174.203L176.376 158.943L178.255 154.273H179.883L176.875 161.389C176.735 161.696 176.575 161.982 176.393 162.246C176.211 162.507 175.974 162.719 175.681 162.881C175.392 163.04 175.014 163.119 174.548 163.119H173.926ZM181.009 154.273H182.577V160.222H182.658L186.762 154.273H188.181V163H186.6V157.055H186.528L182.411 163H181.009V154.273ZM185.441 152.023H186.596C186.596 152.52 186.415 152.923 186.055 153.233C185.697 153.54 185.211 153.693 184.597 153.693C183.989 153.693 183.505 153.54 183.144 153.233C182.786 152.923 182.609 152.52 182.612 152.023H183.758C183.758 152.227 183.82 152.411 183.945 152.572C184.073 152.732 184.29 152.811 184.597 152.811C184.898 152.811 185.113 152.732 185.241 152.572C185.371 152.413 185.438 152.23 185.441 152.023ZM192.88 154.273H194.815L197.406 160.597H197.508L200.099 154.273H202.034V163H200.517V157.004H200.436L198.024 162.974H196.89L194.478 156.991H194.397V163H192.88V154.273ZM204.876 163H203.189L206.261 154.273H208.213L211.289 163H209.602L207.271 156.062H207.203L204.876 163ZM204.931 159.578H209.534V160.848H204.931V159.578ZM212.439 154.273H214.007V160.222H214.088L218.192 154.273H219.611V163H218.03V157.055H217.957L213.841 163H212.439V154.273ZM216.871 152.023H218.026C218.026 152.52 217.845 152.923 217.484 153.233C217.126 153.54 216.641 153.693 216.027 153.693C215.419 153.693 214.935 153.54 214.574 153.233C214.216 152.923 214.038 152.52 214.041 152.023H215.188C215.188 152.227 215.25 152.411 215.375 152.572C215.503 152.732 215.72 152.811 216.027 152.811C216.328 152.811 216.543 152.732 216.67 152.572C216.801 152.413 216.868 152.23 216.871 152.023ZM221.333 163V154.273H226.946V155.598H222.914V157.643H224.598C225.265 157.643 225.838 157.753 226.315 157.972C226.795 158.187 227.163 158.493 227.419 158.888C227.674 159.283 227.802 159.747 227.802 160.281C227.802 160.818 227.674 161.291 227.419 161.7C227.163 162.107 226.795 162.425 226.315 162.655C225.838 162.885 225.265 163 224.598 163H221.333ZM222.914 161.705H224.598C224.95 161.705 225.248 161.638 225.493 161.504C225.737 161.371 225.922 161.195 226.047 160.976C226.174 160.757 226.238 160.52 226.238 160.264C226.238 159.895 226.096 159.581 225.812 159.322C225.531 159.061 225.126 158.93 224.598 158.93H222.914V161.705ZM229.965 163.119V161.79H230.463C230.688 161.79 230.873 161.757 231.017 161.692C231.162 161.626 231.279 161.533 231.367 161.411C231.458 161.288 231.533 161.146 231.593 160.984L231.708 160.69L228.588 154.273H230.242L232.415 158.943L234.294 154.273H235.922L232.914 161.389C232.775 161.696 232.614 161.982 232.432 162.246C232.25 162.507 232.013 162.719 231.721 162.881C231.431 163.04 231.053 163.119 230.587 163.119H229.965ZM237.216 155.598V154.273H244.179V155.598H241.481V163H239.913V155.598H237.216ZM245.521 163V154.273H247.102V157.967H251.146V154.273H252.731V163H251.146V159.293H247.102V163H245.521ZM257.787 163.119C257.074 163.119 256.451 162.95 255.917 162.612C255.382 162.271 254.968 161.797 254.672 161.189C254.377 160.578 254.229 159.866 254.229 159.054V158.432C254.229 157.577 254.378 156.828 254.676 156.186C254.978 155.544 255.398 155.045 255.938 154.69C256.478 154.332 257.108 154.153 257.83 154.153C258.478 154.153 259.049 154.274 259.543 154.516C260.04 154.754 260.435 155.098 260.728 155.547C261.023 155.996 261.192 156.53 261.235 157.149H259.662C259.642 156.805 259.549 156.509 259.381 156.259C259.216 156.009 258.999 155.817 258.729 155.683C258.462 155.55 258.162 155.483 257.83 155.483C257.424 155.483 257.066 155.601 256.756 155.837C256.449 156.07 256.209 156.398 256.036 156.821C255.865 157.241 255.78 157.73 255.78 158.287V159.19C255.78 159.71 255.864 160.168 256.032 160.562C256.199 160.957 256.434 161.266 256.735 161.487C257.036 161.706 257.387 161.815 257.787 161.815C258.123 161.815 258.426 161.75 258.699 161.619C258.975 161.489 259.198 161.301 259.368 161.057C259.539 160.812 259.634 160.521 259.654 160.183H261.235C261.203 160.791 261.04 161.315 260.745 161.756C260.449 162.193 260.049 162.53 259.543 162.766C259.037 163.001 258.452 163.119 257.787 163.119ZM255.124 159.374V158.061H258.746V159.374H255.124ZM264.509 154.273L264.368 160.435H262.996L262.859 154.273H264.509ZM263.682 163.094C263.423 163.094 263.202 163.003 263.017 162.821C262.835 162.639 262.744 162.418 262.744 162.156C262.744 161.901 262.835 161.682 263.017 161.5C263.202 161.318 263.423 161.227 263.682 161.227C263.935 161.227 264.153 161.318 264.338 161.5C264.526 161.682 264.619 161.901 264.619 162.156C264.619 162.33 264.575 162.487 264.487 162.629C264.402 162.771 264.288 162.885 264.146 162.97C264.007 163.053 263.852 163.094 263.682 163.094Z" fill="white"/>
</g>
</g>
</g>
<defs>
<filter id="filter0_d_80_111" x="110.027" y="152.023" width="158.592" height="19.0962" filterUnits="userSpaceOnUse" color-interpolation-filters="sRGB">
<feFlood flood-opacity="0" result="BackgroundImageFix"/>
<feColorMatrix in="SourceAlpha" type="matrix" values="0 0 0 0 0 0 0 0 0 0 0 0 0 0 0 0 0 0 127 0" result="hardAlpha"/>
<feOffset dy="4"/>
<feGaussianBlur stdDeviation="2"/>
<feComposite in2="hardAlpha" operator="out"/>
<feColorMatrix type="matrix" values="0 0 0 0 0 0 0 0 0 0 0 0 0 0 0 0 0 0 0.25 0"/>
<feBlend mode="normal" in2="BackgroundImageFix" result="effect1_dropShadow_80_111"/>
<feBlend mode="normal" in="SourceGraphic" in2="effect1_dropShadow_80_111" result="shape"/>
</filter>
<linearGradient id="paint0_linear_80_111" x1="264" y1="0" x2="264" y2="239" gradientUnits="userSpaceOnUse">
<stop stop-color="#0FF6F6"/>
<stop offset="1" stop-color="#569CB9"/>
</linearGradient>
<clipPath id="clip0_80_111">
<rect width="375" height="210" fill="white"/>
</clipPath>
<clipPath id="clip1_80_111">
<rect width="528" height="239" fill="white" transform="translate(-76 -14)"/>
</clipPath>
</defs>
</svg>
