<svg width="940" height="528" viewBox="0 0 940 528" fill="none" xmlns="http://www.w3.org/2000/svg">
<g clip-path="url(#clip0_80_112)">
<rect width="940" height="528" fill="white"/>
<g clip-path="url(#clip1_80_112)">
<rect width="955" height="536" transform="translate(0 -8)" fill="url(#paint0_linear_80_112)"/>
<g opacity="0.15">
<path fill-rule="evenodd" clip-rule="evenodd" d="M40.9352 54.2738L58.7872 36.2218C59.931 35.0652 61.8607 35.0052 63.0421 36.1998L90.5081 63.9735C91.6894 65.168 91.6302 67.1194 90.4864 68.276L72.6343 86.3281C71.4905 87.4847 69.5608 87.5445 68.3795 86.35L40.9134 58.5763C39.7321 57.3817 39.7914 55.4304 40.9352 54.2738Z" fill="#4B75A4"/>
<path d="M9.42558 100.577L28.7021 120.069L26.4162 122.381L7.13965 102.888L9.42558 100.577Z" fill="white"/>
<path d="M28.2092 81.5812L47.4857 101.074L43.361 105.245L19.1368 96.1256C25.0916 101.242 30.5485 107.062 36.056 112.631L33.5216 115.194L14.2451 95.7017L18.2703 91.6314L42.5934 100.75C36.6874 95.7824 31.084 89.6139 25.6748 84.144L28.2092 81.5812Z" fill="white"/>
<path d="M43.5149 66.1044L45.0834 68.6952L40.0145 73.8209L57.2257 91.2249L54.9895 93.4861L37.7783 76.0821L32.5604 81.3585L30.8927 78.868L43.5149 66.1044Z" fill="white"/>
<path d="M70.4661 77.8362L51.1895 58.3437L48.666 60.8955L67.9425 80.388L70.4661 77.8362Z" fill="#FEFEFE"/>
<path d="M66.6274 42.7329L68.2474 45.2717L63.1508 50.4254L80.362 67.8294L77.888 70.3311L60.6768 52.927L55.4813 58.1807L53.8613 55.642L66.6274 42.7329Z" fill="#FEFEFE"/>
<path d="M85.5948 44.8366L90.4648 39.912C87.951 38.4758 84.8458 36.7427 79.5226 33.7718C82.2648 38.756 84.0279 41.9459 85.5948 44.8366ZM93.3728 41.5463L87.2606 47.727L87.1622 47.6276C88.4841 50.07 89.9044 52.6117 91.8632 56.2003L89.13 58.9641L75.7173 33.5422L79.4444 29.7734L104.585 43.3362L101.703 46.2508C97.9073 44.1215 95.5909 42.784 93.3728 41.5463Z" fill="white"/>
<path fill-rule="evenodd" clip-rule="evenodd" d="M95.3676 13.3815L93.1345 15.6396L105.16 42.7535L107.442 40.4451L95.3676 13.3815Z" fill="#4B75A4"/>
<path fill-rule="evenodd" clip-rule="evenodd" d="M113 29.1804L116.29 13.3757L99.877 15.9103L97.0859 13.0879L117.154 10.4228L119.455 12.75L115.791 32.0028L113 29.1804Z" fill="#4B75A4"/>
</g>
<g opacity="0.15">
<path fill-rule="evenodd" clip-rule="evenodd" d="M46.3082 322.334L64.1603 304.282C65.304 303.125 67.2338 303.065 68.4151 304.26L95.8812 332.034C97.0625 333.228 97.0032 335.179 95.8594 336.336L78.0074 354.388C76.8636 355.545 74.9338 355.605 73.7525 354.41L46.2865 326.636C45.1051 325.442 45.1644 323.49 46.3082 322.334Z" fill="#4B75A4"/>
<path d="M14.7996 368.636L34.0761 388.128L31.7902 390.44L12.5137 370.947L14.7996 368.636Z" fill="white"/>
<path d="M33.5832 349.641L52.8597 369.133L48.7351 373.304L24.5108 364.185C30.4656 369.302 35.9225 375.122 41.43 380.691L38.8957 383.254L19.6191 363.761L23.6443 359.691L47.9674 368.809C42.0614 363.842 36.4581 357.673 31.0488 352.204L33.5832 349.641Z" fill="white"/>
<path d="M48.8899 334.163L50.4584 336.754L45.3895 341.88L62.6007 359.284L60.3645 361.545L43.1533 344.141L37.9354 349.417L36.2677 346.927L48.8899 334.163Z" fill="white"/>
<path d="M75.8401 345.895L56.5636 326.403L54.04 328.955L73.3166 348.447L75.8401 345.895Z" fill="#FEFEFE"/>
<path d="M72.0014 310.793L73.6214 313.332L68.5248 318.485L85.736 335.889L83.262 338.391L66.0508 320.987L60.8553 326.241L59.2353 323.702L72.0014 310.793Z" fill="#FEFEFE"/>
<path d="M90.9698 312.895L95.8398 307.971C93.326 306.534 90.2208 304.801 84.8976 301.83C87.6398 306.815 89.4029 310.004 90.9698 312.895ZM98.7478 309.605L92.6356 315.786L92.5372 315.686C93.8591 318.129 95.2794 320.67 97.2382 324.259L94.505 327.023L81.0923 301.601L84.8194 297.832L109.96 311.395L107.078 314.309C103.282 312.18 100.966 310.843 98.7478 309.605Z" fill="white"/>
<path fill-rule="evenodd" clip-rule="evenodd" d="M100.741 281.442L98.5075 283.7L110.533 310.814L112.815 308.505L100.741 281.442Z" fill="#4B75A4"/>
<path fill-rule="evenodd" clip-rule="evenodd" d="M118.375 297.24L121.665 281.435L105.252 283.97L102.461 281.147L122.529 278.482L124.83 280.81L121.166 300.062L118.375 297.24Z" fill="#4B75A4"/>
</g>
<g opacity="0.15">
<path fill-rule="evenodd" clip-rule="evenodd" d="M40.9352 186.493L58.7872 168.441C59.931 167.284 61.8607 167.224 63.0421 168.419L90.5081 196.192C91.6894 197.387 91.6302 199.338 90.4864 200.495L72.6343 218.547C71.4905 219.703 69.5608 219.763 68.3795 218.569L40.9134 190.795C39.7321 189.6 39.7914 187.649 40.9352 186.493Z" fill="#4B75A4"/>
<path d="M9.42656 232.795L28.7031 252.288L26.4171 254.599L7.14062 235.107L9.42656 232.795Z" fill="white"/>
<path d="M28.2102 213.801L47.4867 233.293L43.362 237.464L19.1377 228.345C25.0926 233.462 30.5495 239.282 36.057 244.851L33.5226 247.414L14.2461 227.921L18.2713 223.851L42.5944 232.969C36.6883 228.002 31.085 221.834 25.6757 216.364L28.2102 213.801Z" fill="white"/>
<path d="M43.5169 198.323L45.0853 200.914L40.0164 206.039L57.2276 223.443L54.9915 225.704L37.7803 208.3L32.5624 213.577L30.8947 211.086L43.5169 198.323Z" fill="white"/>
<path d="M70.467 210.055L51.1905 190.562L48.667 193.114L67.9435 212.607L70.467 210.055Z" fill="#FEFEFE"/>
<path d="M66.6274 174.952L68.2474 177.491L63.1508 182.645L80.362 200.049L77.888 202.55L60.6768 185.146L55.4813 190.4L53.8613 187.861L66.6274 174.952Z" fill="#FEFEFE"/>
<path d="M85.5968 177.055L90.4668 172.131C87.953 170.695 84.8478 168.961 79.5246 165.991C82.2668 170.975 84.0299 174.165 85.5968 177.055ZM93.3748 173.765L87.2625 179.946L87.1641 179.846C88.4861 182.289 89.9064 184.83 91.8652 188.419L89.132 191.183L75.7193 165.761L79.4464 161.992L104.587 175.555L101.704 178.47C97.9093 176.34 95.5928 175.003 93.3748 173.765Z" fill="white"/>
<path fill-rule="evenodd" clip-rule="evenodd" d="M95.3676 145.601L93.1345 147.859L105.16 174.973L107.442 172.664L95.3676 145.601Z" fill="#4B75A4"/>
<path fill-rule="evenodd" clip-rule="evenodd" d="M113.001 161.399L116.291 145.594L99.878 148.129L97.0869 145.307L117.155 142.642L119.456 144.969L115.792 164.222L113.001 161.399Z" fill="#4B75A4"/>
</g>
<g opacity="0.15">
<path fill-rule="evenodd" clip-rule="evenodd" d="M46.3082 454.552L64.1603 436.5C65.304 435.343 67.2338 435.284 68.4151 436.478L95.8812 464.252C97.0625 465.446 97.0032 467.398 95.8594 468.554L78.0074 486.606C76.8636 487.763 74.9338 487.823 73.7525 486.628L46.2865 458.855C45.1051 457.66 45.1644 455.709 46.3082 454.552Z" fill="#4B75A4"/>
<path d="M14.7996 500.854L34.0761 520.346L31.7902 522.658L12.5137 503.166L14.7996 500.854Z" fill="white"/>
<path d="M33.5832 481.859L52.8597 501.352L48.7351 505.523L24.5108 496.404C30.4656 501.521 35.9225 507.34 41.43 512.91L38.8957 515.472L19.6191 495.98L23.6443 491.91L47.9674 501.028C42.0614 496.061 36.4581 489.892 31.0488 484.422L33.5832 481.859Z" fill="white"/>
<path d="M48.8899 466.381L50.4584 468.972L45.3895 474.098L62.6007 491.502L60.3645 493.763L43.1533 476.359L37.9354 481.635L36.2677 479.145L48.8899 466.381Z" fill="white"/>
<path d="M75.8401 478.114L56.5636 458.622L54.04 461.173L73.3166 480.666L75.8401 478.114Z" fill="#FEFEFE"/>
<path d="M72.0014 443.011L73.6214 445.55L68.5248 450.704L85.736 468.108L83.262 470.609L66.0508 453.205L60.8553 458.459L59.2353 455.92L72.0014 443.011Z" fill="#FEFEFE"/>
<path d="M90.9698 445.113L95.8398 440.189C93.326 438.753 90.2208 437.02 84.8976 434.049C87.6398 439.033 89.4029 442.223 90.9698 445.113ZM98.7478 441.823L92.6356 448.004L92.5372 447.904C93.8591 450.347 95.2794 452.889 97.2382 456.477L94.505 459.241L81.0923 433.819L84.8194 430.05L109.96 443.613L107.078 446.528C103.282 444.398 100.966 443.061 98.7478 441.823Z" fill="white"/>
<path fill-rule="evenodd" clip-rule="evenodd" d="M100.741 413.66L98.5075 415.918L110.533 443.032L112.815 440.723L100.741 413.66Z" fill="#4B75A4"/>
<path fill-rule="evenodd" clip-rule="evenodd" d="M118.375 429.458L121.665 413.654L105.252 416.188L102.461 413.366L122.529 410.701L124.83 413.028L121.166 432.281L118.375 429.458Z" fill="#4B75A4"/>
</g>
<g opacity="0.15">
<path fill-rule="evenodd" clip-rule="evenodd" d="M549.621 54.2743L567.473 36.2223C568.617 35.0657 570.546 35.0057 571.728 36.2003L599.194 63.974C600.375 65.1685 600.316 67.1199 599.172 68.2765L581.32 86.3285C580.176 87.4851 578.246 87.545 577.065 86.3505L549.599 58.5768C548.418 57.3822 548.477 55.4309 549.621 54.2743Z" fill="#4B75A4"/>
<path d="M518.111 100.577L537.388 120.069L535.102 122.381L515.825 102.888L518.111 100.577Z" fill="white"/>
<path d="M536.894 81.5816L556.17 101.074L552.046 105.245L527.821 96.1261C533.776 101.243 539.233 107.063 544.741 112.632L542.206 115.195L522.93 95.7021L526.955 91.6319L551.278 100.75C545.372 95.7829 539.769 89.6144 534.359 84.1445L536.894 81.5816Z" fill="white"/>
<path d="M552.2 66.1044L553.769 68.6952L548.7 73.8209L565.911 91.2249L563.675 93.4861L546.464 76.0821L541.246 81.3585L539.578 78.868L552.2 66.1044Z" fill="white"/>
<path d="M579.152 77.8367L559.875 58.3442L557.352 60.896L576.628 80.3884L579.152 77.8367Z" fill="#FEFEFE"/>
<path d="M575.313 42.7334L576.933 45.2721L571.836 50.4259L589.048 67.8299L586.574 70.3315L569.362 52.9275L564.167 58.1812L562.547 55.6425L575.313 42.7334Z" fill="#FEFEFE"/>
<path d="M594.28 44.8366L599.15 39.912C596.637 38.4758 593.531 36.7427 588.208 33.7718C590.95 38.756 592.713 41.9459 594.28 44.8366ZM602.058 41.5463L595.946 47.727L595.848 47.6276C597.17 50.07 598.59 52.6117 600.549 56.2003L597.816 58.9641L584.403 33.5422L588.13 29.7734L613.27 43.3362L610.388 46.2508C606.593 44.1215 604.276 42.784 602.058 41.5463Z" fill="white"/>
<path fill-rule="evenodd" clip-rule="evenodd" d="M604.053 13.382L601.82 15.6401L613.845 42.754L616.128 40.4456L604.053 13.382Z" fill="#4B75A4"/>
<path fill-rule="evenodd" clip-rule="evenodd" d="M621.686 29.1804L624.976 13.3757L608.563 15.9103L605.771 13.0879L625.839 10.4228L628.141 12.75L624.477 32.0028L621.686 29.1804Z" fill="#4B75A4"/>
</g>
<g opacity="0.15">
<path fill-rule="evenodd" clip-rule="evenodd" d="M554.995 322.333L572.847 304.281C573.991 303.125 575.92 303.065 577.102 304.259L604.568 332.033C605.749 333.228 605.69 335.179 604.546 336.336L586.694 354.388C585.55 355.544 583.62 355.604 582.439 354.41L554.973 326.636C553.792 325.441 553.851 323.49 554.995 322.333Z" fill="#4B75A4"/>
<path d="M523.486 368.636L542.763 388.128L540.477 390.44L521.2 370.947L523.486 368.636Z" fill="white"/>
<path d="M542.269 349.641L561.545 369.133L557.421 373.304L533.196 364.185C539.151 369.302 544.608 375.122 550.116 380.691L547.581 383.254L528.305 363.761L532.33 359.691L556.653 368.809C550.747 363.842 545.144 357.673 539.734 352.204L542.269 349.641Z" fill="white"/>
<path d="M557.575 334.163L559.144 336.754L554.075 341.88L571.286 359.284L569.05 361.545L551.839 344.141L546.621 349.417L544.953 346.927L557.575 334.163Z" fill="white"/>
<path d="M584.526 345.895L565.249 326.402L562.726 328.954L582.002 348.447L584.526 345.895Z" fill="#FEFEFE"/>
<path d="M580.686 310.793L582.306 313.332L577.209 318.485L594.421 335.889L591.947 338.391L574.735 320.987L569.54 326.241L567.92 323.702L580.686 310.793Z" fill="#FEFEFE"/>
<path d="M599.655 312.895L604.525 307.971C602.012 306.534 598.906 304.801 593.583 301.83C596.325 306.815 598.088 310.004 599.655 312.895ZM607.433 309.605L601.321 315.786L601.223 315.686C602.545 318.129 603.965 320.67 605.924 324.259L603.191 327.023L589.778 301.601L593.505 297.832L618.645 311.395L615.763 314.309C611.968 312.18 609.651 310.843 607.433 309.605Z" fill="white"/>
<path fill-rule="evenodd" clip-rule="evenodd" d="M609.427 281.441L607.194 283.699L619.219 310.813L621.502 308.505L609.427 281.441Z" fill="#4B75A4"/>
<path fill-rule="evenodd" clip-rule="evenodd" d="M627.06 297.24L630.35 281.435L613.937 283.97L611.146 281.147L631.213 278.482L633.515 280.81L629.851 300.062L627.06 297.24Z" fill="#4B75A4"/>
</g>
<g opacity="0.15">
<path fill-rule="evenodd" clip-rule="evenodd" d="M549.621 186.493L567.473 168.441C568.617 167.284 570.546 167.224 571.728 168.419L599.194 196.193C600.375 197.387 600.316 199.339 599.172 200.495L581.32 218.547C580.176 219.704 578.246 219.764 577.065 218.569L549.599 190.796C548.418 189.601 548.477 187.65 549.621 186.493Z" fill="#4B75A4"/>
<path d="M518.111 232.796L537.388 252.288L535.102 254.6L515.825 235.107L518.111 232.796Z" fill="white"/>
<path d="M536.894 213.801L556.17 233.293L552.046 237.464L527.821 228.345C533.776 233.462 539.233 239.282 544.741 244.851L542.206 247.414L522.93 227.921L526.955 223.851L551.278 232.969C545.372 228.002 539.769 221.834 534.359 216.364L536.894 213.801Z" fill="white"/>
<path d="M552.2 198.323L553.769 200.914L548.7 206.039L565.911 223.443L563.675 225.704L546.464 208.3L541.246 213.577L539.578 211.086L552.2 198.323Z" fill="white"/>
<path d="M579.152 210.055L559.875 190.563L557.352 193.115L576.628 212.607L579.152 210.055Z" fill="#FEFEFE"/>
<path d="M575.313 174.952L576.933 177.491L571.836 182.645L589.048 200.049L586.574 202.55L569.362 185.146L564.167 190.4L562.547 187.861L575.313 174.952Z" fill="#FEFEFE"/>
<path d="M594.28 177.056L599.15 172.131C596.637 170.695 593.531 168.962 588.208 165.991C590.95 170.975 592.713 174.165 594.28 177.056ZM602.058 173.766L595.946 179.946L595.848 179.847C597.17 182.289 598.59 184.831 600.549 188.42L597.816 191.183L584.403 165.761L588.13 161.993L613.27 175.555L610.388 178.47C606.593 176.341 604.276 175.003 602.058 173.766Z" fill="white"/>
<path fill-rule="evenodd" clip-rule="evenodd" d="M604.053 145.601L601.82 147.859L613.845 174.973L616.128 172.664L604.053 145.601Z" fill="#4B75A4"/>
<path fill-rule="evenodd" clip-rule="evenodd" d="M621.686 161.4L624.976 145.595L608.563 148.129L605.771 145.307L625.839 142.642L628.141 144.969L624.477 164.222L621.686 161.4Z" fill="#4B75A4"/>
</g>
<g opacity="0.15">
<path fill-rule="evenodd" clip-rule="evenodd" d="M554.995 454.552L572.847 436.5C573.991 435.343 575.92 435.283 577.102 436.478L604.568 464.251C605.749 465.446 605.69 467.397 604.546 468.554L586.694 486.606C585.55 487.762 583.62 487.822 582.439 486.628L554.973 458.854C553.792 457.66 553.851 455.708 554.995 454.552Z" fill="#4B75A4"/>
<path d="M523.486 500.854L542.763 520.346L540.477 522.658L521.2 503.166L523.486 500.854Z" fill="white"/>
<path d="M542.269 481.859L561.545 501.352L557.421 505.523L533.196 496.404C539.151 501.521 544.608 507.34 550.116 512.91L547.581 515.472L528.305 495.98L532.33 491.91L556.653 501.028C550.747 496.061 545.144 489.892 539.734 484.422L542.269 481.859Z" fill="white"/>
<path d="M557.575 466.381L559.144 468.972L554.075 474.098L571.286 491.502L569.05 493.763L551.839 476.359L546.621 481.635L544.953 479.145L557.575 466.381Z" fill="white"/>
<path d="M584.526 478.114L565.249 458.621L562.726 461.173L582.002 480.665L584.526 478.114Z" fill="#FEFEFE"/>
<path d="M580.686 443.011L582.306 445.549L577.209 450.703L594.421 468.107L591.947 470.609L574.735 453.205L569.54 458.459L567.92 455.92L580.686 443.011Z" fill="#FEFEFE"/>
<path d="M599.655 445.113L604.525 440.189C602.012 438.753 598.906 437.02 593.583 434.049C596.325 439.033 598.088 442.223 599.655 445.113ZM607.433 441.823L601.321 448.004L601.223 447.904C602.545 450.347 603.965 452.889 605.924 456.477L603.191 459.241L589.778 433.819L593.505 430.05L618.645 443.613L615.763 446.528C611.968 444.398 609.651 443.061 607.433 441.823Z" fill="white"/>
<path fill-rule="evenodd" clip-rule="evenodd" d="M609.427 413.659L607.194 415.917L619.219 443.031L621.502 440.723L609.427 413.659Z" fill="#4B75A4"/>
<path fill-rule="evenodd" clip-rule="evenodd" d="M627.06 429.458L630.35 413.654L613.937 416.188L611.146 413.366L631.213 410.701L633.515 413.028L629.851 432.281L627.06 429.458Z" fill="#4B75A4"/>
</g>
<g opacity="0.15">
<path fill-rule="evenodd" clip-rule="evenodd" d="M295.279 52.4628L313.131 34.4107C314.275 33.2541 316.204 33.1942 317.386 34.3888L344.852 62.1625C346.033 63.357 345.974 65.3084 344.83 66.465L326.978 84.517C325.834 85.6736 323.905 85.7335 322.723 84.539L295.257 56.7653C294.076 55.5707 294.135 53.6194 295.279 52.4628Z" fill="#4B75A4"/>
<path d="M263.769 98.7656L283.046 118.258L280.76 120.57L261.483 101.077L263.769 98.7656Z" fill="white"/>
<path d="M282.553 79.7701L301.829 99.2626L297.705 103.433L273.481 94.3146C279.435 99.4315 284.892 105.251 290.4 110.82L287.865 113.383L268.589 93.8906L272.614 89.8204L296.937 98.9387C291.031 93.9714 285.428 87.8028 280.019 82.333L282.553 79.7701Z" fill="white"/>
<path d="M297.859 64.2933L299.427 66.8842L294.358 72.0099L311.569 89.4139L309.333 91.6751L292.122 74.2711L286.904 79.5474L285.236 77.0569L297.859 64.2933Z" fill="white"/>
<path d="M324.81 76.0251L305.533 56.5327L303.01 59.0845L322.286 78.5769L324.81 76.0251Z" fill="#FEFEFE"/>
<path d="M320.971 40.9219L322.591 43.4606L317.495 48.6143L334.706 66.0184L332.232 68.52L315.021 51.116L309.825 56.3697L308.205 53.831L320.971 40.9219Z" fill="#FEFEFE"/>
<path d="M339.939 43.0256L344.809 38.101C342.295 36.6648 339.19 34.9316 333.866 31.9608C336.609 36.9449 338.372 40.1349 339.939 43.0256ZM347.717 39.7353L341.604 45.916L341.506 45.8165C342.828 48.259 344.248 50.8007 346.207 54.3893L343.474 57.1531L330.061 31.7312L333.788 27.9623L358.929 41.5252L356.046 44.4398C352.251 42.3105 349.935 40.973 347.717 39.7353Z" fill="white"/>
<path fill-rule="evenodd" clip-rule="evenodd" d="M349.711 11.5704L347.478 13.8286L359.503 40.9425L361.786 38.6341L349.711 11.5704Z" fill="#4B75A4"/>
<path fill-rule="evenodd" clip-rule="evenodd" d="M367.344 27.3694L370.634 11.5647L354.221 14.0992L351.43 11.2769L371.498 8.61176L373.799 10.939L370.135 30.1918L367.344 27.3694Z" fill="#4B75A4"/>
</g>
<g opacity="0.15">
<path fill-rule="evenodd" clip-rule="evenodd" d="M300.651 320.523L318.503 302.471C319.647 301.314 321.577 301.254 322.758 302.449L350.224 330.223C351.405 331.417 351.346 333.368 350.202 334.525L332.35 352.577C331.206 353.734 329.277 353.794 328.095 352.599L300.629 324.825C299.448 323.631 299.507 321.679 300.651 320.523Z" fill="#4B75A4"/>
<path d="M269.14 366.825L288.417 386.317L286.131 388.629L266.854 369.136L269.14 366.825Z" fill="white"/>
<path d="M287.924 347.831L307.201 367.323L303.076 371.494L278.852 362.375C284.806 367.492 290.263 373.312 295.771 378.881L293.236 381.444L273.96 361.951L277.985 357.881L302.308 366.999C296.402 362.032 290.799 355.863 285.39 350.394L287.924 347.831Z" fill="white"/>
<path d="M303.232 332.352L304.8 334.943L299.731 340.069L316.942 357.473L314.706 359.734L297.495 342.33L292.277 347.607L290.61 345.116L303.232 332.352Z" fill="white"/>
<path d="M330.181 344.085L310.904 324.593L308.381 327.145L327.657 346.637L330.181 344.085Z" fill="#FEFEFE"/>
<path d="M326.342 308.981L327.962 311.52L322.866 316.674L340.077 334.078L337.603 336.58L320.392 319.176L315.196 324.429L313.576 321.891L326.342 308.981Z" fill="#FEFEFE"/>
<path d="M345.311 311.085L350.181 306.161C347.667 304.724 344.562 302.991 339.238 300.02C341.981 305.005 343.744 308.194 345.311 311.085ZM353.089 307.795L346.976 313.976L346.878 313.876C348.2 316.319 349.62 318.86 351.579 322.449L348.846 325.213L335.433 299.791L339.16 296.022L364.301 309.585L361.418 312.499C357.623 310.37 355.307 309.033 353.089 307.795Z" fill="white"/>
<path fill-rule="evenodd" clip-rule="evenodd" d="M355.082 279.631L352.849 281.889L364.874 309.003L367.157 306.695L355.082 279.631Z" fill="#4B75A4"/>
<path fill-rule="evenodd" clip-rule="evenodd" d="M372.716 295.429L376.006 279.624L359.593 282.159L356.802 279.336L376.87 276.671L379.171 278.999L375.507 298.251L372.716 295.429Z" fill="#4B75A4"/>
</g>
<g opacity="0.15">
<path fill-rule="evenodd" clip-rule="evenodd" d="M295.279 184.681L313.131 166.629C314.275 165.472 316.204 165.412 317.386 166.607L344.852 194.381C346.033 195.575 345.974 197.527 344.83 198.683L326.978 216.735C325.834 217.892 323.905 217.952 322.723 216.757L295.257 188.984C294.076 187.789 294.135 185.838 295.279 184.681Z" fill="#4B75A4"/>
<path d="M263.769 230.984L283.046 250.476L280.76 252.788L261.483 233.295L263.769 230.984Z" fill="white"/>
<path d="M282.554 211.988L301.83 231.481L297.706 235.652L273.481 226.533C279.436 231.65 284.893 237.469 290.401 243.039L287.866 245.601L268.59 226.109L272.615 222.039L296.938 231.157C291.032 226.19 285.429 220.021 280.019 214.551L282.554 211.988Z" fill="white"/>
<path d="M297.861 196.511L299.429 199.101L294.36 204.227L311.571 221.631L309.335 223.892L292.124 206.488L286.906 211.765L285.238 209.274L297.861 196.511Z" fill="white"/>
<path d="M324.811 208.243L305.534 188.751L303.011 191.303L322.287 210.795L324.811 208.243Z" fill="#FEFEFE"/>
<path d="M320.972 173.14L322.592 175.679L317.495 180.833L334.707 198.237L332.233 200.738L315.022 183.334L309.826 188.588L308.206 186.049L320.972 173.14Z" fill="#FEFEFE"/>
<path d="M339.94 175.244L344.81 170.319C342.296 168.883 339.191 167.15 333.867 164.179C336.61 169.163 338.373 172.353 339.94 175.244ZM347.718 171.954L341.605 178.134L341.507 178.035C342.829 180.477 344.249 183.019 346.208 186.608L343.475 189.371L330.062 163.949L333.789 160.181L358.93 173.743L356.047 176.658C352.252 174.529 349.936 173.191 347.718 171.954Z" fill="white"/>
<path fill-rule="evenodd" clip-rule="evenodd" d="M349.711 143.789L347.478 146.047L359.503 173.161L361.786 170.852L349.711 143.789Z" fill="#4B75A4"/>
<path fill-rule="evenodd" clip-rule="evenodd" d="M367.345 159.588L370.635 143.783L354.222 146.317L351.431 143.495L371.499 140.83L373.8 143.157L370.136 162.41L367.345 159.588Z" fill="#4B75A4"/>
</g>
<g opacity="0.15">
<path fill-rule="evenodd" clip-rule="evenodd" d="M300.651 452.74L318.503 434.688C319.647 433.531 321.577 433.472 322.758 434.666L350.224 462.44C351.405 463.634 351.346 465.586 350.202 466.742L332.35 484.794C331.206 485.951 329.277 486.011 328.095 484.816L300.629 457.043C299.448 455.848 299.507 453.897 300.651 452.74Z" fill="#4B75A4"/>
<path d="M269.14 499.042L288.417 518.534L286.131 520.846L266.854 501.354L269.14 499.042Z" fill="white"/>
<path d="M287.925 480.048L307.202 499.54L303.077 503.711L278.853 494.592C284.807 499.709 290.264 505.529 295.772 511.098L293.237 513.661L273.961 494.168L277.986 490.098L302.309 499.216C296.403 494.249 290.8 488.081 285.391 482.611L287.925 480.048Z" fill="white"/>
<path d="M303.232 464.57L304.8 467.161L299.731 472.286L316.942 489.69L314.706 491.951L297.495 474.547L292.277 479.824L290.61 477.333L303.232 464.57Z" fill="white"/>
<path d="M330.181 476.302L310.904 456.81L308.381 459.362L327.657 478.854L330.181 476.302Z" fill="#FEFEFE"/>
<path d="M326.342 441.199L327.962 443.737L322.866 448.891L340.077 466.295L337.603 468.797L320.392 451.393L315.196 456.647L313.576 454.108L326.342 441.199Z" fill="#FEFEFE"/>
<path d="M345.311 443.302L350.181 438.378C347.667 436.942 344.562 435.209 339.238 432.238C341.981 437.222 343.744 440.412 345.311 443.302ZM353.089 440.012L346.976 446.193L346.878 446.093C348.2 448.536 349.62 451.078 351.579 454.666L348.846 457.43L335.433 432.008L339.16 428.239L364.301 441.802L361.418 444.717C357.623 442.587 355.307 441.25 353.089 440.012Z" fill="white"/>
<path fill-rule="evenodd" clip-rule="evenodd" d="M355.082 411.848L352.849 414.106L364.874 441.22L367.157 438.912L355.082 411.848Z" fill="#4B75A4"/>
<path fill-rule="evenodd" clip-rule="evenodd" d="M372.716 427.646L376.006 411.842L359.593 414.376L356.802 411.554L376.87 408.889L379.171 411.216L375.507 430.469L372.716 427.646Z" fill="#4B75A4"/>
</g>
<g opacity="0.15">
<path fill-rule="evenodd" clip-rule="evenodd" d="M803.963 52.4618L821.816 34.4098C822.959 33.2532 824.889 33.1932 826.07 34.3878L853.536 62.1615C854.718 63.356 854.658 65.3074 853.515 66.464L835.663 84.516C834.519 85.6726 832.589 85.7325 831.408 84.538L803.942 56.7643C802.76 55.5697 802.82 53.6184 803.963 52.4618Z" fill="#4B75A4"/>
<path d="M772.455 98.7637L791.731 118.256L789.445 120.568L770.169 101.075L772.455 98.7637Z" fill="white"/>
<path d="M791.238 79.7687L810.514 99.2611L806.389 103.432L782.165 94.3131C788.12 99.43 793.577 105.25 799.084 110.819L796.55 113.382L777.273 93.8892L781.299 89.8189L805.622 98.9372C799.716 93.9699 794.112 87.8014 788.703 82.3315L791.238 79.7687Z" fill="white"/>
<path d="M806.544 64.2909L808.113 66.8818L803.044 72.0074L820.255 89.4115L818.019 91.6726L800.808 74.2686L795.59 79.545L793.922 77.0545L806.544 64.2909Z" fill="white"/>
<path d="M833.494 76.0232L814.218 56.5307L811.694 59.0825L830.971 78.575L833.494 76.0232Z" fill="#FEFEFE"/>
<path d="M829.655 40.9209L831.275 43.4596L826.178 48.6134L843.389 66.0174L840.915 68.519L823.704 51.115L818.509 56.3687L816.889 53.83L829.655 40.9209Z" fill="#FEFEFE"/>
<path d="M848.624 43.0231L853.494 38.0986C850.98 36.6623 847.875 34.9292 842.552 31.9583C845.294 36.9425 847.057 40.1324 848.624 43.0231ZM856.402 39.7328L850.29 45.9136L850.191 45.8141C851.513 48.2566 852.934 50.7982 854.893 54.3869L852.159 57.1507L838.747 31.7287L842.474 27.9599L867.614 41.5227L864.732 44.4373C860.937 42.3081 858.62 40.9706 856.402 39.7328Z" fill="white"/>
<path fill-rule="evenodd" clip-rule="evenodd" d="M858.396 11.5695L856.163 13.8276L868.188 40.9415L870.471 38.6331L858.396 11.5695Z" fill="#4B75A4"/>
<path fill-rule="evenodd" clip-rule="evenodd" d="M876.029 27.3679L879.318 11.5632L862.905 14.0978L860.114 11.2754L880.182 8.61029L882.484 10.9375L878.82 30.1903L876.029 27.3679Z" fill="#4B75A4"/>
</g>
<g opacity="0.15">
<path fill-rule="evenodd" clip-rule="evenodd" d="M809.336 320.523L827.188 302.471C828.331 301.314 830.261 301.254 831.442 302.449L858.909 330.223C860.09 331.417 860.031 333.368 858.887 334.525L841.035 352.577C839.891 353.734 837.961 353.794 836.78 352.599L809.314 324.825C808.132 323.631 808.192 321.679 809.336 320.523Z" fill="#4B75A4"/>
<path d="M777.827 366.825L797.103 386.317L794.818 388.629L775.541 369.136L777.827 366.825Z" fill="white"/>
<path d="M796.611 347.83L815.887 367.322L811.762 371.493L787.538 362.374C793.493 367.491 798.95 373.311 804.457 378.88L801.923 381.443L782.646 361.95L786.672 357.88L810.995 366.998C805.089 362.031 799.485 355.862 794.076 350.393L796.611 347.83Z" fill="white"/>
<path d="M811.917 332.352L813.486 334.943L808.417 340.068L825.628 357.472L823.392 359.734L806.181 342.33L800.963 347.606L799.295 345.116L811.917 332.352Z" fill="white"/>
<path d="M838.867 344.084L819.591 324.592L817.067 327.144L836.344 346.636L838.867 344.084Z" fill="#FEFEFE"/>
<path d="M835.029 308.982L836.649 311.521L831.552 316.674L848.763 334.078L846.289 336.58L829.078 319.176L823.883 324.43L822.263 321.891L835.029 308.982Z" fill="#FEFEFE"/>
<path d="M853.997 311.084L858.867 306.16C856.353 304.723 853.248 302.99 847.925 300.019C850.667 305.004 852.43 308.193 853.997 311.084ZM861.775 307.794L855.663 313.975L855.565 313.875C856.886 316.318 858.307 318.859 860.266 322.448L857.532 325.212L844.12 299.79L847.847 296.021L872.987 309.584L870.105 312.498C866.31 310.369 863.993 309.032 861.775 307.794Z" fill="white"/>
<path fill-rule="evenodd" clip-rule="evenodd" d="M863.769 279.63L861.536 281.889L873.561 309.003L875.844 306.694L863.769 279.63Z" fill="#4B75A4"/>
<path fill-rule="evenodd" clip-rule="evenodd" d="M881.403 295.429L884.692 279.624L868.279 282.159L865.488 279.336L885.556 276.671L887.858 278.999L884.194 298.251L881.403 295.429Z" fill="#4B75A4"/>
</g>
<g opacity="0.15">
<path fill-rule="evenodd" clip-rule="evenodd" d="M803.964 184.681L821.817 166.629C822.96 165.472 824.89 165.412 826.071 166.607L853.537 194.381C854.719 195.575 854.659 197.527 853.516 198.683L835.664 216.735C834.52 217.892 832.59 217.952 831.409 216.757L803.943 188.984C802.761 187.789 802.821 185.838 803.964 184.681Z" fill="#4B75A4"/>
<path d="M772.455 230.984L791.731 250.476L789.445 252.788L770.169 233.295L772.455 230.984Z" fill="white"/>
<path d="M791.238 211.989L810.514 231.481L806.389 235.652L782.165 226.533C788.12 231.65 793.577 237.47 799.084 243.039L796.55 245.602L777.273 226.109L781.299 222.039L805.622 231.157C799.716 226.19 794.112 220.022 788.703 214.552L791.238 211.989Z" fill="white"/>
<path d="M806.545 196.511L808.114 199.101L803.045 204.227L820.256 221.631L818.02 223.892L800.809 206.488L795.591 211.765L793.923 209.274L806.545 196.511Z" fill="white"/>
<path d="M833.494 208.243L814.218 188.751L811.694 191.303L830.971 210.795L833.494 208.243Z" fill="#FEFEFE"/>
<path d="M829.656 173.141L831.276 175.679L826.179 180.833L843.39 198.237L840.916 200.739L823.705 183.335L818.51 188.588L816.89 186.05L829.656 173.141Z" fill="#FEFEFE"/>
<path d="M848.624 175.244L853.494 170.319C850.98 168.883 847.875 167.15 842.552 164.179C845.294 169.163 847.057 172.353 848.624 175.244ZM856.402 171.954L850.29 178.134L850.191 178.035C851.513 180.477 852.934 183.019 854.893 186.608L852.159 189.371L838.747 163.949L842.474 160.181L867.614 173.743L864.732 176.658C860.937 174.529 858.62 173.191 856.402 171.954Z" fill="white"/>
<path fill-rule="evenodd" clip-rule="evenodd" d="M858.396 143.789L856.163 146.047L868.188 173.161L870.471 170.852L858.396 143.789Z" fill="#4B75A4"/>
<path fill-rule="evenodd" clip-rule="evenodd" d="M876.03 159.588L879.319 143.783L862.906 146.317L860.115 143.495L880.183 140.83L882.485 143.157L878.821 162.41L876.03 159.588Z" fill="#4B75A4"/>
</g>
<g opacity="0.15">
<path fill-rule="evenodd" clip-rule="evenodd" d="M809.336 452.74L827.188 434.688C828.331 433.531 830.261 433.472 831.442 434.666L858.909 462.44C860.09 463.634 860.031 465.586 858.887 466.742L841.035 484.794C839.891 485.951 837.961 486.011 836.78 484.816L809.314 457.043C808.132 455.848 808.192 453.897 809.336 452.74Z" fill="#4B75A4"/>
<path d="M777.827 499.042L797.103 518.534L794.818 520.846L775.541 501.354L777.827 499.042Z" fill="white"/>
<path d="M796.611 480.047L815.887 499.54L811.762 503.711L787.538 494.592C793.493 499.709 798.95 505.528 804.457 511.098L801.923 513.66L782.646 494.168L786.672 490.098L810.995 499.216C805.089 494.249 799.485 488.08 794.076 482.61L796.611 480.047Z" fill="white"/>
<path d="M811.917 464.569L813.486 467.16L808.417 472.286L825.628 489.69L823.392 491.951L806.181 474.547L800.963 479.823L799.295 477.333L811.917 464.569Z" fill="white"/>
<path d="M838.867 476.302L819.591 456.81L817.067 459.361L836.344 478.854L838.867 476.302Z" fill="#FEFEFE"/>
<path d="M835.029 441.199L836.649 443.738L831.552 448.892L848.763 466.296L846.289 468.797L829.078 451.393L823.883 456.647L822.263 454.108L835.029 441.199Z" fill="#FEFEFE"/>
<path d="M853.997 443.302L858.867 438.378C856.353 436.942 853.248 435.209 847.925 432.238C850.667 437.222 852.43 440.412 853.997 443.302ZM861.775 440.012L855.663 446.193L855.565 446.093C856.886 448.536 858.307 451.078 860.266 454.666L857.532 457.43L844.12 432.008L847.847 428.239L872.987 441.802L870.105 444.717C866.31 442.587 863.993 441.25 861.775 440.012Z" fill="white"/>
<path fill-rule="evenodd" clip-rule="evenodd" d="M863.769 411.848L861.536 414.106L873.561 441.22L875.844 438.911L863.769 411.848Z" fill="#4B75A4"/>
<path fill-rule="evenodd" clip-rule="evenodd" d="M881.403 427.646L884.692 411.842L868.279 414.376L865.488 411.554L885.556 408.889L887.858 411.216L884.194 430.469L881.403 427.646Z" fill="#4B75A4"/>
</g>
<g opacity="0.15">
<path fill-rule="evenodd" clip-rule="evenodd" d="M168.108 54.2738L185.96 36.2218C187.104 35.0652 189.034 35.0052 190.215 36.1998L217.681 63.9735C218.862 65.168 218.803 67.1194 217.659 68.276L199.807 86.3281C198.663 87.4847 196.734 87.5445 195.552 86.35L168.086 58.5763C166.905 57.3817 166.964 55.4304 168.108 54.2738Z" fill="#4B75A4"/>
<path d="M136.598 100.577L155.875 120.069L153.589 122.381L134.312 102.888L136.598 100.577Z" fill="white"/>
<path d="M155.382 81.5816L174.659 101.074L170.534 105.245L146.31 96.1261C152.264 101.243 157.721 107.063 163.229 112.632L160.694 115.195L141.418 95.7021L145.443 91.6319L169.766 100.75C163.86 95.7829 158.257 89.6144 152.848 84.1445L155.382 81.5816Z" fill="white"/>
<path d="M170.688 66.1044L172.256 68.6952L167.187 73.8209L184.399 91.2249L182.162 93.4861L164.951 76.0821L159.733 81.3585L158.066 78.868L170.688 66.1044Z" fill="white"/>
<path d="M197.639 77.8362L178.362 58.3437L175.839 60.8955L195.115 80.388L197.639 77.8362Z" fill="#FEFEFE"/>
<path d="M193.8 42.7329L195.42 45.2717L190.324 50.4254L207.535 67.8294L205.061 70.3311L187.85 52.927L182.654 58.1807L181.034 55.642L193.8 42.7329Z" fill="#FEFEFE"/>
<path d="M212.768 44.8366L217.638 39.912C215.124 38.4758 212.019 36.7427 206.695 33.7718C209.438 38.756 211.201 41.9459 212.768 44.8366ZM220.546 41.5463L214.433 47.727L214.335 47.6276C215.657 50.07 217.077 52.6117 219.036 56.2003L216.303 58.9641L202.89 33.5422L206.617 29.7734L231.758 43.3362L228.875 46.2508C225.08 44.1215 222.764 42.784 220.546 41.5463Z" fill="white"/>
<path fill-rule="evenodd" clip-rule="evenodd" d="M222.54 13.382L220.307 15.6401L232.332 42.754L234.615 40.4456L222.54 13.382Z" fill="#4B75A4"/>
<path fill-rule="evenodd" clip-rule="evenodd" d="M240.173 29.1804L243.463 13.3757L227.05 15.9103L224.259 13.0879L244.327 10.4228L246.628 12.75L242.964 32.0028L240.173 29.1804Z" fill="#4B75A4"/>
</g>
<g opacity="0.15">
<path fill-rule="evenodd" clip-rule="evenodd" d="M173.481 322.334L191.333 304.282C192.477 303.125 194.407 303.065 195.588 304.26L223.054 332.034C224.235 333.228 224.176 335.179 223.032 336.336L205.18 354.388C204.036 355.545 202.107 355.605 200.925 354.41L173.459 326.636C172.278 325.442 172.337 323.49 173.481 322.334Z" fill="#4B75A4"/>
<path d="M141.972 368.636L161.249 388.128L158.963 390.44L139.687 370.947L141.972 368.636Z" fill="white"/>
<path d="M160.755 349.641L180.032 369.133L175.907 373.304L151.683 364.185C157.637 369.302 163.094 375.122 168.602 380.691L166.068 383.254L146.791 363.761L150.816 359.691L175.139 368.809C169.233 363.842 163.63 357.673 158.221 352.204L160.755 349.641Z" fill="white"/>
<path d="M176.062 334.163L177.63 336.754L172.561 341.88L189.773 359.284L187.536 361.545L170.325 344.141L165.107 349.417L163.44 346.927L176.062 334.163Z" fill="white"/>
<path d="M203.012 345.895L183.735 326.403L181.212 328.955L200.488 348.447L203.012 345.895Z" fill="#FEFEFE"/>
<path d="M199.173 310.793L200.793 313.332L195.697 318.485L212.908 335.889L210.434 338.391L193.223 320.987L188.027 326.241L186.407 323.702L199.173 310.793Z" fill="#FEFEFE"/>
<path d="M218.142 312.896L223.012 307.971C220.498 306.535 217.393 304.802 212.069 301.831C214.812 306.815 216.575 310.005 218.142 312.896ZM225.92 309.605L219.807 315.786L219.709 315.687C221.031 318.129 222.451 320.671 224.41 324.259L221.677 327.023L208.264 301.601L211.991 297.832L237.132 311.395L234.249 314.31C230.454 312.181 228.138 310.843 225.92 309.605Z" fill="white"/>
<path fill-rule="evenodd" clip-rule="evenodd" d="M227.914 281.442L225.68 283.7L237.705 310.814L239.988 308.505L227.914 281.442Z" fill="#4B75A4"/>
<path fill-rule="evenodd" clip-rule="evenodd" d="M245.547 297.24L248.837 281.435L232.424 283.969L229.633 281.147L249.701 278.482L252.002 280.809L248.338 300.062L245.547 297.24Z" fill="#4B75A4"/>
</g>
<g opacity="0.15">
<path fill-rule="evenodd" clip-rule="evenodd" d="M168.106 186.493L185.958 168.441C187.102 167.284 189.032 167.224 190.213 168.419L217.679 196.192C218.86 197.387 218.801 199.338 217.657 200.495L199.805 218.547C198.661 219.703 196.732 219.763 195.55 218.569L168.084 190.795C166.903 189.6 166.962 187.649 168.106 186.493Z" fill="#4B75A4"/>
<path d="M136.597 232.795L155.874 252.288L153.588 254.599L134.312 235.107L136.597 232.795Z" fill="white"/>
<path d="M155.38 213.8L174.657 233.293L170.532 237.464L146.308 228.345C152.262 233.462 157.719 239.281 163.227 244.851L160.693 247.413L141.416 227.921L145.441 223.851L169.764 232.969C163.858 228.002 158.255 221.833 152.846 216.363L155.38 213.8Z" fill="white"/>
<path d="M170.687 198.323L172.255 200.914L167.186 206.039L184.398 223.443L182.161 225.704L164.95 208.3L159.732 213.577L158.065 211.086L170.687 198.323Z" fill="white"/>
<path d="M197.637 210.055L178.36 190.562L175.837 193.114L195.113 212.607L197.637 210.055Z" fill="#FEFEFE"/>
<path d="M193.798 174.952L195.418 177.49L190.322 182.644L207.533 200.048L205.059 202.55L187.848 185.146L182.652 190.399L181.032 187.861L193.798 174.952Z" fill="#FEFEFE"/>
<path d="M212.767 177.055L217.637 172.131C215.123 170.695 212.018 168.961 206.694 165.991C209.437 170.975 211.2 174.165 212.767 177.055ZM220.545 173.765L214.432 179.946L214.334 179.846C215.656 182.289 217.076 184.83 219.035 188.419L216.302 191.183L202.889 165.761L206.616 161.992L231.757 175.555L228.874 178.47C225.079 176.34 222.763 175.003 220.545 173.765Z" fill="white"/>
<path fill-rule="evenodd" clip-rule="evenodd" d="M222.539 145.601L220.305 147.859L232.33 174.973L234.613 172.664L222.539 145.601Z" fill="#4B75A4"/>
<path fill-rule="evenodd" clip-rule="evenodd" d="M240.172 161.399L243.462 145.594L227.049 148.129L224.258 145.307L244.326 142.642L246.627 144.969L242.963 164.222L240.172 161.399Z" fill="#4B75A4"/>
</g>
<g opacity="0.15">
<path fill-rule="evenodd" clip-rule="evenodd" d="M173.481 454.552L191.333 436.5C192.477 435.343 194.407 435.283 195.588 436.478L223.054 464.251C224.235 465.446 224.176 467.397 223.032 468.554L205.18 486.606C204.036 487.762 202.107 487.822 200.925 486.628L173.459 458.854C172.278 457.66 172.337 455.708 173.481 454.552Z" fill="#4B75A4"/>
<path d="M141.972 500.854L161.249 520.346L158.963 522.657L139.687 503.165L141.972 500.854Z" fill="white"/>
<path d="M160.755 481.859L180.032 501.352L175.907 505.523L151.683 496.404C157.637 501.521 163.094 507.34 168.602 512.91L166.068 515.472L146.791 495.98L150.816 491.91L175.139 501.028C169.233 496.061 163.63 489.892 158.221 484.422L160.755 481.859Z" fill="white"/>
<path d="M176.062 466.381L177.63 468.972L172.561 474.098L189.773 491.502L187.536 493.763L170.325 476.359L165.107 481.635L163.44 479.145L176.062 466.381Z" fill="white"/>
<path d="M203.012 478.114L183.735 458.622L181.212 461.173L200.488 480.666L203.012 478.114Z" fill="#FEFEFE"/>
<path d="M199.173 443.011L200.793 445.549L195.697 450.703L212.908 468.107L210.434 470.609L193.223 453.205L188.027 458.459L186.407 455.92L199.173 443.011Z" fill="#FEFEFE"/>
<path d="M218.142 445.113L223.012 440.189C220.498 438.753 217.393 437.02 212.069 434.049C214.812 439.033 216.575 442.223 218.142 445.113ZM225.92 441.823L219.807 448.004L219.709 447.904C221.031 450.347 222.451 452.889 224.41 456.477L221.677 459.241L208.264 433.819L211.991 430.05L237.132 443.613L234.249 446.528C230.454 444.398 228.138 443.061 225.92 441.823Z" fill="white"/>
<path fill-rule="evenodd" clip-rule="evenodd" d="M227.914 413.66L225.68 415.918L237.705 443.032L239.988 440.723L227.914 413.66Z" fill="#4B75A4"/>
<path fill-rule="evenodd" clip-rule="evenodd" d="M245.547 429.458L248.837 413.653L232.424 416.188L229.633 413.365L249.701 410.7L252.002 413.027L248.338 432.28L245.547 429.458Z" fill="#4B75A4"/>
</g>
<g opacity="0.15">
<path fill-rule="evenodd" clip-rule="evenodd" d="M676.793 54.2743L694.645 36.2223C695.788 35.0657 697.718 35.0057 698.899 36.2003L726.366 63.974C727.547 65.1685 727.488 67.1199 726.344 68.2765L708.492 86.3285C707.348 87.4851 705.418 87.545 704.237 86.3505L676.771 58.5768C675.59 57.3822 675.649 55.4309 676.793 54.2743Z" fill="#4B75A4"/>
<path d="M645.283 100.577L664.56 120.069L662.274 122.381L642.997 102.888L645.283 100.577Z" fill="white"/>
<path d="M664.067 81.5816L683.343 101.074L679.218 105.245L654.994 96.1261C660.949 101.243 666.406 107.063 671.913 112.632L669.379 115.195L650.103 95.7021L654.128 91.6319L678.451 100.75C672.545 95.7829 666.941 89.6144 661.532 84.1445L664.067 81.5816Z" fill="white"/>
<path d="M679.372 66.1044L680.941 68.6952L675.872 73.8209L693.083 91.2249L690.847 93.4861L673.636 76.0821L668.418 81.3585L666.75 78.868L679.372 66.1044Z" fill="white"/>
<path d="M706.323 77.8367L687.047 58.3442L684.523 60.896L703.8 80.3884L706.323 77.8367Z" fill="#FEFEFE"/>
<path d="M702.485 42.7334L704.105 45.2721L699.008 50.4259L716.219 67.8299L713.745 70.3315L696.534 52.9275L691.339 58.1812L689.719 55.6425L702.485 42.7334Z" fill="#FEFEFE"/>
<path d="M721.452 44.8366L726.322 39.912C723.808 38.4758 720.703 36.7427 715.38 33.7718C718.122 38.756 719.885 41.9459 721.452 44.8366ZM729.23 41.5463L723.118 47.727L723.02 47.6276C724.342 50.07 725.762 52.6117 727.721 56.2003L724.987 58.9641L711.575 33.5422L715.302 29.7734L740.442 43.3362L737.56 46.2508C733.765 44.1215 731.448 42.784 729.23 41.5463Z" fill="white"/>
<path fill-rule="evenodd" clip-rule="evenodd" d="M731.225 13.382L728.992 15.6401L741.017 42.754L743.3 40.4456L731.225 13.382Z" fill="#4B75A4"/>
<path fill-rule="evenodd" clip-rule="evenodd" d="M748.858 29.1804L752.147 13.3757L735.734 15.9103L732.943 13.0879L753.011 10.4228L755.313 12.75L751.649 32.0028L748.858 29.1804Z" fill="#4B75A4"/>
</g>
<g opacity="0.15">
<path fill-rule="evenodd" clip-rule="evenodd" d="M682.165 322.333L700.017 304.281C701.16 303.125 703.09 303.065 704.272 304.259L731.738 332.033C732.919 333.228 732.86 335.179 731.716 336.336L713.864 354.388C712.72 355.544 710.79 355.604 709.609 354.41L682.143 326.636C680.962 325.441 681.021 323.49 682.165 322.333Z" fill="#4B75A4"/>
<path d="M650.655 368.636L669.932 388.129L667.646 390.44L648.369 370.948L650.655 368.636Z" fill="white"/>
<path d="M669.439 349.641L688.715 369.133L684.591 373.304L660.366 364.185C666.321 369.302 671.778 375.122 677.285 380.691L674.751 383.254L655.475 363.761L659.5 359.691L683.823 368.809C677.917 363.842 672.314 357.673 666.904 352.204L669.439 349.641Z" fill="white"/>
<path d="M684.745 334.164L686.314 336.755L681.245 341.88L698.456 359.285L696.22 361.546L679.009 344.142L673.791 349.418L672.123 346.928L684.745 334.164Z" fill="white"/>
<path d="M711.696 345.896L692.419 326.403L689.896 328.955L709.172 348.448L711.696 345.896Z" fill="#FEFEFE"/>
<path d="M707.857 310.793L709.477 313.331L704.38 318.485L721.591 335.889L719.118 338.391L701.906 320.987L696.711 326.24L695.091 323.702L707.857 310.793Z" fill="#FEFEFE"/>
<path d="M726.824 312.896L731.694 307.972C729.181 306.535 726.075 304.802 720.752 301.831C723.494 306.816 725.257 310.005 726.824 312.896ZM734.602 309.606L728.49 315.787L728.392 315.687C729.714 318.13 731.134 320.671 733.093 324.26L730.36 327.024L716.947 301.602L720.674 297.833L745.814 311.396L742.932 314.31C739.137 312.181 736.82 310.844 734.602 309.606Z" fill="white"/>
<path fill-rule="evenodd" clip-rule="evenodd" d="M736.597 281.441L734.364 283.699L746.389 310.813L748.672 308.505L736.597 281.441Z" fill="#4B75A4"/>
<path fill-rule="evenodd" clip-rule="evenodd" d="M754.23 297.24L757.519 281.435L741.107 283.97L738.315 281.147L758.383 278.482L760.685 280.81L757.021 300.062L754.23 297.24Z" fill="#4B75A4"/>
</g>
<g opacity="0.15">
<path fill-rule="evenodd" clip-rule="evenodd" d="M676.793 186.493L694.645 168.441C695.788 167.284 697.718 167.224 698.899 168.419L726.366 196.193C727.547 197.387 727.488 199.339 726.344 200.495L708.492 218.547C707.348 219.704 705.418 219.764 704.237 218.569L676.771 190.796C675.59 189.601 675.649 187.65 676.793 186.493Z" fill="#4B75A4"/>
<path d="M645.283 232.796L664.56 252.288L662.274 254.6L642.997 235.107L645.283 232.796Z" fill="white"/>
<path d="M664.068 213.801L683.344 233.293L679.219 237.464L654.995 228.345C660.95 233.462 666.407 239.282 671.914 244.851L669.38 247.414L650.104 227.921L654.129 223.851L678.452 232.969C672.546 228.002 666.942 221.834 661.533 216.364L664.068 213.801Z" fill="white"/>
<path d="M679.374 198.323L680.943 200.914L675.874 206.039L693.085 223.443L690.849 225.704L673.638 208.3L668.42 213.577L666.752 211.086L679.374 198.323Z" fill="white"/>
<path d="M706.324 210.055L687.048 190.563L684.524 193.115L703.801 212.607L706.324 210.055Z" fill="#FEFEFE"/>
<path d="M702.486 174.952L704.106 177.491L699.009 182.645L716.22 200.049L713.746 202.55L696.535 185.146L691.34 190.4L689.72 187.861L702.486 174.952Z" fill="#FEFEFE"/>
<path d="M721.454 177.056L726.324 172.131C723.81 170.695 720.705 168.962 715.382 165.991C718.124 170.975 719.887 174.165 721.454 177.056ZM729.232 173.766L723.12 179.946L723.022 179.847C724.343 182.289 725.764 184.831 727.723 188.42L724.989 191.183L711.577 165.761L715.304 161.993L740.444 175.555L737.562 178.47C733.767 176.341 731.45 175.003 729.232 173.766Z" fill="white"/>
<path fill-rule="evenodd" clip-rule="evenodd" d="M731.225 145.601L728.992 147.859L741.017 174.973L743.3 172.664L731.225 145.601Z" fill="#4B75A4"/>
<path fill-rule="evenodd" clip-rule="evenodd" d="M748.859 161.4L752.148 145.595L735.735 148.129L732.944 145.307L753.012 142.642L755.314 144.969L751.65 164.222L748.859 161.4Z" fill="#4B75A4"/>
</g>
<g opacity="0.15">
<path fill-rule="evenodd" clip-rule="evenodd" d="M682.165 454.552L700.017 436.5C701.16 435.343 703.09 435.283 704.272 436.478L731.738 464.251C732.919 465.446 732.86 467.397 731.716 468.554L713.864 486.606C712.72 487.762 710.79 487.822 709.609 486.628L682.143 458.854C680.962 457.66 681.021 455.708 682.165 454.552Z" fill="#4B75A4"/>
<path d="M650.655 500.854L669.932 520.347L667.646 522.658L648.369 503.166L650.655 500.854Z" fill="white"/>
<path d="M669.439 481.859L688.715 501.351L684.591 505.522L660.366 496.403C666.321 501.52 671.778 507.34 677.285 512.909L674.751 515.472L655.475 495.979L659.5 491.909L683.823 501.028C677.917 496.06 672.314 489.892 666.904 484.422L669.439 481.859Z" fill="white"/>
<path d="M684.744 466.382L686.313 468.973L681.244 474.099L698.455 491.503L696.219 493.764L679.008 476.36L673.79 481.636L672.122 479.146L684.744 466.382Z" fill="white"/>
<path d="M711.696 478.114L692.419 458.622L689.896 461.173L709.172 480.666L711.696 478.114Z" fill="#FEFEFE"/>
<path d="M707.857 443.011L709.477 445.549L704.38 450.703L721.591 468.107L719.118 470.609L701.906 453.205L696.711 458.459L695.091 455.92L707.857 443.011Z" fill="#FEFEFE"/>
<path d="M726.824 445.114L731.694 440.19C729.181 438.754 726.075 437.021 720.752 434.05C723.494 439.034 725.257 442.224 726.824 445.114ZM734.602 441.824L728.49 448.005L728.392 447.905C729.714 450.348 731.134 452.89 733.093 456.478L730.36 459.242L716.947 433.82L720.674 430.051L745.814 443.614L742.932 446.529C739.137 444.399 736.82 443.062 734.602 441.824Z" fill="white"/>
<path fill-rule="evenodd" clip-rule="evenodd" d="M736.597 413.659L734.364 415.917L746.389 443.031L748.672 440.723L736.597 413.659Z" fill="#4B75A4"/>
<path fill-rule="evenodd" clip-rule="evenodd" d="M754.23 429.458L757.519 413.654L741.107 416.188L738.315 413.366L758.383 410.701L760.685 413.028L757.021 432.281L754.23 429.458Z" fill="#4B75A4"/>
</g>
<g opacity="0.15">
<path fill-rule="evenodd" clip-rule="evenodd" d="M422.45 52.4618L440.302 34.4098C441.446 33.2532 443.375 33.1932 444.557 34.3878L472.023 62.1615C473.204 63.356 473.145 65.3074 472.001 66.464L454.149 84.516C453.005 85.6726 451.075 85.7325 449.894 84.538L422.428 56.7643C421.247 55.5697 421.306 53.6184 422.45 52.4618Z" fill="#4B75A4"/>
<path d="M390.941 98.7637L410.218 118.256L407.932 120.568L388.655 101.075L390.941 98.7637Z" fill="white"/>
<path d="M409.724 79.7687L429 99.2611L424.876 103.432L400.651 94.3131C406.606 99.43 412.063 105.25 417.571 110.819L415.036 113.382L395.76 93.8892L399.785 89.8189L424.108 98.9372C418.202 93.9699 412.599 87.8014 407.189 82.3315L409.724 79.7687Z" fill="white"/>
<path d="M425.032 64.2909L426.6 66.8818L421.531 72.0074L438.742 89.4115L436.506 91.6726L419.295 74.2686L414.077 79.545L412.409 77.0545L425.032 64.2909Z" fill="white"/>
<path d="M451.981 76.0232L432.704 56.5307L430.181 59.0825L449.457 78.575L451.981 76.0232Z" fill="#FEFEFE"/>
<path d="M448.142 40.9209L449.762 43.4596L444.665 48.6134L461.877 66.0174L459.403 68.519L442.191 51.115L436.996 56.3687L435.376 53.83L448.142 40.9209Z" fill="#FEFEFE"/>
<path d="M467.11 43.0236L471.98 38.0991C469.467 36.6628 466.361 34.9297 461.038 31.9588C463.78 36.943 465.544 40.1329 467.11 43.0236ZM474.888 39.7333L468.776 45.914L468.678 45.8146C470 48.257 471.42 50.7987 473.379 54.3874L470.646 57.1511L457.233 31.7292L460.96 27.9604L486.1 41.5232L483.218 44.4378C479.423 42.3085 477.107 40.971 474.888 39.7333Z" fill="white"/>
<path fill-rule="evenodd" clip-rule="evenodd" d="M476.882 11.5695L474.649 13.8276L486.674 40.9415L488.957 38.6331L476.882 11.5695Z" fill="#4B75A4"/>
<path fill-rule="evenodd" clip-rule="evenodd" d="M494.516 27.3679L497.806 11.5632L481.393 14.0978L478.602 11.2754L498.669 8.61029L500.971 10.9375L497.307 30.1903L494.516 27.3679Z" fill="#4B75A4"/>
</g>
<g opacity="0.15">
<path fill-rule="evenodd" clip-rule="evenodd" d="M427.823 320.523L445.675 302.471C446.819 301.314 448.748 301.254 449.93 302.449L477.396 330.223C478.577 331.417 478.518 333.368 477.374 334.525L459.522 352.577C458.378 353.734 456.448 353.794 455.267 352.599L427.801 324.825C426.62 323.631 426.679 321.679 427.823 320.523Z" fill="#4B75A4"/>
<path d="M396.314 366.825L415.591 386.317L413.305 388.629L394.028 369.136L396.314 366.825Z" fill="white"/>
<path d="M415.098 347.83L434.374 367.322L430.25 371.493L406.025 362.374C411.98 367.491 417.437 373.311 422.945 378.88L420.41 381.443L401.134 361.95L405.159 357.88L429.482 366.998C423.576 362.031 417.973 355.862 412.563 350.393L415.098 347.83Z" fill="white"/>
<path d="M430.405 332.352L431.973 334.943L426.904 340.068L444.115 357.472L441.879 359.734L424.668 342.33L419.45 347.606L417.782 345.116L430.405 332.352Z" fill="white"/>
<path d="M457.355 344.084L438.078 324.592L435.555 327.144L454.831 346.636L457.355 344.084Z" fill="#FEFEFE"/>
<path d="M453.516 308.982L455.136 311.521L450.039 316.674L467.251 334.078L464.777 336.58L447.565 319.176L442.37 324.43L440.75 321.891L453.516 308.982Z" fill="#FEFEFE"/>
<path d="M472.484 311.084L477.354 306.16C474.841 304.723 471.735 302.99 466.412 300.019C469.154 305.004 470.918 308.193 472.484 311.084ZM480.262 307.794L474.15 313.975L474.052 313.875C475.374 316.318 476.794 318.859 478.753 322.448L476.02 325.212L462.607 299.79L466.334 296.021L491.475 309.584L488.592 312.498C484.797 310.369 482.481 309.032 480.262 307.794Z" fill="white"/>
<path fill-rule="evenodd" clip-rule="evenodd" d="M482.256 279.63L480.023 281.889L492.048 309.003L494.331 306.694L482.256 279.63Z" fill="#4B75A4"/>
<path fill-rule="evenodd" clip-rule="evenodd" d="M499.89 295.429L503.18 279.624L486.767 282.159L483.976 279.336L504.043 276.671L506.345 278.999L502.681 298.251L499.89 295.429Z" fill="#4B75A4"/>
</g>
<g opacity="0.15">
<path fill-rule="evenodd" clip-rule="evenodd" d="M422.45 184.681L440.302 166.629C441.446 165.472 443.375 165.412 444.557 166.607L472.023 194.381C473.204 195.575 473.145 197.527 472.001 198.683L454.149 216.735C453.005 217.892 451.075 217.952 449.894 216.757L422.428 188.984C421.247 187.789 421.306 185.838 422.45 184.681Z" fill="#4B75A4"/>
<path d="M390.941 230.984L410.218 250.476L407.932 252.788L388.655 233.295L390.941 230.984Z" fill="white"/>
<path d="M409.725 211.989L429.001 231.482L424.877 235.653L400.652 226.534C406.607 231.651 412.064 237.47 417.572 243.04L415.037 245.602L395.761 226.11L399.786 222.04L424.109 231.158C418.203 226.191 412.6 220.022 407.19 214.552L409.725 211.989Z" fill="white"/>
<path d="M425.032 196.511L426.6 199.102L421.531 204.228L438.742 221.632L436.506 223.893L419.295 206.489L414.077 211.765L412.409 209.275L425.032 196.511Z" fill="white"/>
<path d="M451.983 208.243L432.706 188.751L430.183 191.303L449.459 210.795L451.983 208.243Z" fill="#FEFEFE"/>
<path d="M448.143 173.141L449.763 175.679L444.666 180.833L461.878 198.237L459.404 200.739L442.192 183.335L436.997 188.588L435.377 186.05L448.143 173.141Z" fill="#FEFEFE"/>
<path d="M467.111 175.244L471.981 170.319C469.468 168.883 466.362 167.15 461.039 164.179C463.781 169.163 465.545 172.353 467.111 175.244ZM474.889 171.954L468.777 178.134L468.679 178.035C470.001 180.477 471.421 183.019 473.38 186.608L470.647 189.371L457.234 163.949L460.961 160.181L486.101 173.743L483.219 176.658C479.424 174.529 477.107 173.191 474.889 171.954Z" fill="white"/>
<path fill-rule="evenodd" clip-rule="evenodd" d="M476.883 143.789L474.65 146.047L486.675 173.161L488.958 170.853L476.883 143.789Z" fill="#4B75A4"/>
<path fill-rule="evenodd" clip-rule="evenodd" d="M494.516 159.588L497.806 143.783L481.393 146.317L478.602 143.495L498.669 140.83L500.971 143.157L497.307 162.41L494.516 159.588Z" fill="#4B75A4"/>
</g>
<g opacity="0.15">
<path fill-rule="evenodd" clip-rule="evenodd" d="M427.823 452.741L445.675 434.689C446.819 433.532 448.748 433.472 449.93 434.667L477.396 462.44C478.577 463.635 478.518 465.586 477.374 466.743L459.522 484.795C458.378 485.951 456.448 486.011 455.267 484.817L427.801 457.043C426.62 455.849 426.679 453.897 427.823 452.741Z" fill="#4B75A4"/>
<path d="M396.314 499.042L415.591 518.535L413.305 520.846L394.028 501.354L396.314 499.042Z" fill="white"/>
<path d="M415.098 480.048L434.374 499.54L430.25 503.711L406.025 494.592C411.98 499.709 417.437 505.529 422.945 511.098L420.41 513.661L401.134 494.168L405.159 490.098L429.482 499.216C423.576 494.249 417.973 488.081 412.563 482.611L415.098 480.048Z" fill="white"/>
<path d="M430.405 464.57L431.973 467.161L426.904 472.286L444.115 489.69L441.879 491.951L424.668 474.547L419.45 479.824L417.782 477.333L430.405 464.57Z" fill="white"/>
<path d="M457.355 476.302L438.078 456.81L435.555 459.362L454.831 478.854L457.355 476.302Z" fill="#FEFEFE"/>
<path d="M453.516 441.2L455.136 443.738L450.039 448.892L467.251 466.296L464.777 468.798L447.565 451.394L442.37 456.648L440.75 454.109L453.516 441.2Z" fill="#FEFEFE"/>
<path d="M472.484 443.303L477.354 438.378C474.841 436.942 471.735 435.209 466.412 432.238C469.154 437.222 470.918 440.412 472.484 443.303ZM480.262 440.013L474.15 446.193L474.052 446.094C475.374 448.536 476.794 451.078 478.753 454.667L476.02 457.43L462.607 432.009L466.334 428.24L491.475 441.802L488.592 444.717C484.797 442.588 482.481 441.25 480.262 440.013Z" fill="white"/>
<path fill-rule="evenodd" clip-rule="evenodd" d="M482.256 411.848L480.023 414.106L492.048 441.22L494.331 438.912L482.256 411.848Z" fill="#4B75A4"/>
<path fill-rule="evenodd" clip-rule="evenodd" d="M499.89 427.647L503.18 411.842L486.767 414.377L483.976 411.554L504.043 408.889L506.345 411.216L502.681 430.469L499.89 427.647Z" fill="#4B75A4"/>
</g>
<g opacity="0.15">
<path fill-rule="evenodd" clip-rule="evenodd" d="M931.134 52.4628L948.986 34.4107C950.13 33.2541 952.06 33.1942 953.241 34.3888L980.707 62.1625C981.889 63.357 981.829 65.3084 980.686 66.465L962.834 84.517C961.69 85.6736 959.76 85.7335 958.579 84.539L931.113 56.7653C929.931 55.5707 929.991 53.6194 931.134 52.4628Z" fill="#4B75A4"/>
<path d="M899.625 98.7656L918.901 118.258L916.615 120.57L897.339 101.077L899.625 98.7656Z" fill="white"/>
<path d="M918.408 79.7701L937.685 99.2626L933.56 103.433L909.336 94.3146C915.291 99.4315 920.748 105.251 926.255 110.82L923.721 113.383L904.444 93.8906L908.47 89.8204L932.793 98.9387C926.887 93.9714 921.283 87.8028 915.874 82.333L918.408 79.7701Z" fill="white"/>
<path d="M933.714 64.2933L935.283 66.8842L930.214 72.0099L947.425 89.4139L945.189 91.6751L927.978 74.2711L922.76 79.5474L921.092 77.0569L933.714 64.2933Z" fill="white"/>
<path d="M960.665 76.0251L941.389 56.5327L938.865 59.0845L958.142 78.5769L960.665 76.0251Z" fill="#FEFEFE"/>
</g>
<g opacity="0.15">
<path fill-rule="evenodd" clip-rule="evenodd" d="M936.509 320.523L954.361 302.471C955.505 301.314 957.435 301.254 958.616 302.449L986.082 330.223C987.264 331.417 987.204 333.368 986.061 334.525L968.209 352.577C967.065 353.734 965.135 353.794 963.954 352.599L936.488 324.825C935.306 323.631 935.366 321.679 936.509 320.523Z" fill="#4B75A4"/>
<path d="M905.001 366.825L924.277 386.317L921.991 388.629L902.715 369.136L905.001 366.825Z" fill="white"/>
<path d="M923.783 347.83L943.06 367.322L938.935 371.493L914.711 362.374C920.666 367.491 926.123 373.311 931.63 378.88L929.096 381.443L909.819 361.95L913.845 357.88L938.168 366.998C932.262 362.031 926.658 355.862 921.249 350.393L923.783 347.83Z" fill="white"/>
<path d="M939.09 332.352L940.659 334.943L935.59 340.068L952.801 357.472L950.565 359.734L933.354 342.33L928.136 347.606L926.468 345.116L939.09 332.352Z" fill="white"/>
</g>
<g opacity="0.15">
<path fill-rule="evenodd" clip-rule="evenodd" d="M931.134 184.681L948.986 166.629C950.13 165.472 952.06 165.412 953.241 166.607L980.707 194.381C981.889 195.575 981.829 197.527 980.686 198.683L962.834 216.735C961.69 217.892 959.76 217.952 958.579 216.757L931.113 188.984C929.931 187.789 929.991 185.838 931.134 184.681Z" fill="#4B75A4"/>
<path d="M899.625 230.984L918.901 250.476L916.615 252.788L897.339 233.295L899.625 230.984Z" fill="white"/>
<path d="M918.408 211.988L937.685 231.481L933.56 235.652L909.336 226.533C915.291 231.65 920.748 237.469 926.255 243.039L923.721 245.601L904.444 226.109L908.47 222.039L932.793 231.157C926.887 226.19 921.283 220.021 915.874 214.551L918.408 211.988Z" fill="white"/>
<path d="M933.714 196.512L935.283 199.102L930.214 204.228L947.425 221.632L945.189 223.893L927.978 206.489L922.76 211.766L921.092 209.275L933.714 196.512Z" fill="white"/>
<path d="M960.665 208.243L941.389 188.751L938.865 191.303L958.142 210.795L960.665 208.243Z" fill="#FEFEFE"/>
</g>
<g opacity="0.15">
<path fill-rule="evenodd" clip-rule="evenodd" d="M936.509 452.74L954.361 434.688C955.505 433.531 957.435 433.472 958.616 434.666L986.082 462.44C987.264 463.634 987.204 465.586 986.061 466.742L968.209 484.794C967.065 485.951 965.135 486.011 963.954 484.816L936.488 457.043C935.306 455.848 935.366 453.897 936.509 452.74Z" fill="#4B75A4"/>
<path d="M905.001 499.042L924.277 518.534L921.991 520.846L902.715 501.354L905.001 499.042Z" fill="white"/>
<path d="M923.783 480.047L943.06 499.54L938.935 503.711L914.711 494.592C920.666 499.709 926.123 505.528 931.63 511.098L929.096 513.66L909.819 494.168L913.845 490.098L938.168 499.216C932.262 494.249 926.658 488.08 921.249 482.61L923.783 480.047Z" fill="white"/>
<path d="M939.09 464.569L940.659 467.16L935.59 472.286L952.801 489.69L950.565 491.951L933.354 474.547L928.136 479.823L926.468 477.333L939.09 464.569Z" fill="white"/>
</g>
<path fill-rule="evenodd" clip-rule="evenodd" d="M439.197 136H527.812C533.49 136 538.426 140.703 538.426 146.645V284.776C538.426 290.717 533.49 295.42 527.812 295.42H439.197C433.52 295.42 428.583 290.717 428.583 284.776V146.645C428.583 140.703 433.52 136 439.197 136Z" fill="#4B75A4"/>
<path d="M247.347 171.904V268.849H236V171.904H247.347Z" fill="white"/>
<path d="M340.59 171.904V268.849H320.116L282.375 185.259C284.595 212.957 283.855 241.151 283.855 268.849H271.274V171.904H291.255L329.243 255.741C326.776 228.538 328.009 199.108 328.009 171.904H340.59Z" fill="white"/>
<path d="M416.565 171.904L414.099 182.291H388.937V268.849H377.837V182.291H351.937L353.91 171.904H416.565Z" fill="white"/>
<path d="M454.661 268.849V171.904H442.135V268.849H454.661Z" fill="#FEFEFE"/>
<path d="M531.292 171.904L529.082 182.291H503.783V268.849H491.503V182.291H465.713L467.923 171.904H531.292Z" fill="#FEFEFE"/>
<path d="M573.205 224.828H597.379C594.665 214.936 591.212 202.818 585.292 182.044C579.864 201.334 576.411 213.7 573.205 224.828ZM600.585 236.205H570.245V235.71C567.531 245.108 564.817 255 560.871 268.849H547.304L576.411 171.904H594.911L624.019 268.849H609.712C605.518 254.011 603.052 244.86 600.585 236.205Z" fill="white"/>
<path fill-rule="evenodd" clip-rule="evenodd" d="M674.66 171.188H663.575L626.871 268.851H638.203L674.66 171.188Z" fill="#4B75A4"/>
<path fill-rule="evenodd" clip-rule="evenodd" d="M679.652 254.813L726.609 223.783L679.652 188.814V174.777L736.001 218.612V230.187L679.652 268.85V254.813Z" fill="#4B75A4"/>
<g filter="url(#filter0_d_80_112)">
<path d="M220.931 398.273V431H215.05V403.195H200.732V431H194.851V398.273H220.931ZM228.022 431V398.273H240.295C242.809 398.273 244.918 398.741 246.623 399.679C248.338 400.616 249.632 401.906 250.506 403.546C251.39 405.176 251.832 407.03 251.832 409.107C251.832 411.206 251.39 413.07 250.506 414.7C249.622 416.33 248.317 417.614 246.591 418.551C244.865 419.478 242.74 419.942 240.215 419.942H232.081V415.068H239.416C240.886 415.068 242.09 414.812 243.027 414.301C243.965 413.789 244.657 413.086 245.105 412.191C245.563 411.297 245.792 410.268 245.792 409.107C245.792 407.946 245.563 406.923 245.105 406.039C244.657 405.155 243.959 404.468 243.011 403.978C242.074 403.477 240.865 403.227 239.384 403.227H233.951V431H228.022ZM286.225 414.636C286.225 418.163 285.565 421.183 284.244 423.697C282.934 426.201 281.144 428.118 278.875 429.45C276.616 430.782 274.054 431.447 271.188 431.447C268.322 431.447 265.755 430.782 263.486 429.45C261.227 428.108 259.438 426.185 258.116 423.681C256.806 421.167 256.151 418.152 256.151 414.636C256.151 411.11 256.806 408.095 258.116 405.592C259.438 403.077 261.227 401.154 263.486 399.823C265.755 398.491 268.322 397.825 271.188 397.825C274.054 397.825 276.616 398.491 278.875 399.823C281.144 401.154 282.934 403.077 284.244 405.592C285.565 408.095 286.225 411.11 286.225 414.636ZM280.265 414.636C280.265 412.154 279.876 410.061 279.098 408.356C278.331 406.641 277.266 405.347 275.902 404.473C274.539 403.589 272.967 403.147 271.188 403.147C269.409 403.147 267.838 403.589 266.474 404.473C265.11 405.347 264.04 406.641 263.262 408.356C262.495 410.061 262.112 412.154 262.112 414.636C262.112 417.119 262.495 419.217 263.262 420.933C264.04 422.637 265.11 423.931 266.474 424.816C267.838 425.689 269.409 426.126 271.188 426.126C272.967 426.126 274.539 425.689 275.902 424.816C277.266 423.931 278.331 422.637 279.098 420.933C279.876 419.217 280.265 417.119 280.265 414.636ZM312.876 398.273V403.243H297.759V431H291.831V398.273H312.876ZM317.89 431V398.273H330.163C332.677 398.273 334.786 398.741 336.491 399.679C338.206 400.616 339.501 401.906 340.374 403.546C341.258 405.176 341.7 407.03 341.7 409.107C341.7 411.206 341.258 413.07 340.374 414.7C339.49 416.33 338.185 417.614 336.459 418.551C334.733 419.478 332.608 419.942 330.083 419.942H321.949V415.068H329.284C330.754 415.068 331.958 414.812 332.895 414.301C333.833 413.789 334.525 413.086 334.973 412.191C335.431 411.297 335.66 410.268 335.66 409.107C335.66 407.946 335.431 406.923 334.973 406.039C334.525 405.155 333.828 404.468 332.879 403.978C331.942 403.477 330.733 403.227 329.252 403.227H323.819V431H317.89ZM347.405 431H341.077L352.599 398.273H359.918L371.455 431H365.127L356.386 404.984H356.131L347.405 431ZM347.613 418.168H364.872V422.93H347.613V418.168ZM375.766 398.273H383.021L392.737 421.987H393.12L402.836 398.273H410.091V431H404.402V408.516H404.099L395.054 430.904H390.803L381.759 408.468H381.455V431H375.766V398.273ZM419.472 431.447V426.462H421.341C422.183 426.462 422.875 426.339 423.419 426.094C423.962 425.849 424.399 425.498 424.729 425.039C425.07 424.581 425.352 424.049 425.576 423.441L426.008 422.339L414.31 398.273H420.51L428.66 415.787L435.707 398.273H441.812L430.53 424.96C430.008 426.11 429.406 427.181 428.724 428.172C428.042 429.152 427.153 429.945 426.055 430.553C424.969 431.149 423.552 431.447 421.805 431.447H419.472ZM446.035 398.273H451.915V420.581H452.219L467.608 398.273H472.929V431H467.001V408.708H466.729L451.292 431H446.035V398.273ZM462.654 389.835H466.985C466.985 391.7 466.308 393.212 464.955 394.374C463.613 395.524 461.791 396.099 459.49 396.099C457.21 396.099 455.394 395.524 454.041 394.374C452.698 393.212 452.032 391.7 452.043 389.835H456.342C456.342 390.602 456.576 391.289 457.045 391.897C457.524 392.493 458.339 392.792 459.49 392.792C460.619 392.792 461.423 392.493 461.903 391.897C462.393 391.3 462.643 390.613 462.654 389.835ZM490.551 398.273H497.806L507.522 421.987H507.906L517.622 398.273H524.877V431H519.188V408.516H518.884L509.839 430.904H505.589L496.544 408.468H496.24V431H490.551V398.273ZM535.535 431H529.207L540.729 398.273H548.048L559.585 431H553.257L544.516 404.984H544.26L535.535 431ZM535.743 418.168H553.002V422.93H535.743V418.168ZM563.896 398.273H569.777V420.581H570.08L585.469 398.273H590.79V431H584.862V408.708H584.59L569.153 431H563.896V398.273ZM580.515 389.835H584.846C584.846 391.7 584.169 393.212 582.816 394.374C581.474 395.524 579.652 396.099 577.351 396.099C575.071 396.099 573.255 395.524 571.902 394.374C570.56 393.212 569.894 391.7 569.904 389.835H574.203C574.203 390.602 574.438 391.289 574.906 391.897C575.386 392.493 576.201 392.792 577.351 392.792C578.48 392.792 579.285 392.493 579.764 391.897C580.254 391.3 580.505 390.613 580.515 389.835ZM597.25 431V398.273H618.296V403.243H603.179V410.913H609.491C611.995 410.913 614.141 411.323 615.931 412.143C617.732 412.953 619.111 414.098 620.07 415.579C621.029 417.06 621.508 418.802 621.508 420.805C621.508 422.818 621.029 424.592 620.07 426.126C619.111 427.65 617.732 428.843 615.931 429.706C614.141 430.569 611.995 431 609.491 431H597.25ZM603.179 426.142H609.491C610.812 426.142 611.931 425.892 612.847 425.391C613.763 424.89 614.456 424.23 614.924 423.409C615.404 422.589 615.644 421.7 615.644 420.741C615.644 419.356 615.111 418.179 614.046 417.209C612.991 416.229 611.473 415.739 609.491 415.739H603.179V426.142ZM629.618 431.447V426.462H631.488C632.329 426.462 633.022 426.339 633.565 426.094C634.109 425.849 634.545 425.498 634.876 425.039C635.217 424.581 635.499 424.049 635.723 423.441L636.154 422.339L624.457 398.273H630.657L638.807 415.787L645.854 398.273H651.958L640.676 424.96C640.154 426.11 639.552 427.181 638.871 428.172C638.189 429.152 637.299 429.945 636.202 430.553C635.115 431.149 633.698 431.447 631.951 431.447H629.618ZM656.808 403.243V398.273H682.92V403.243H672.804V431H666.924V403.243H656.808ZM687.954 431V398.273H693.882V412.127H709.047V398.273H714.992V431H709.047V417.097H693.882V431H687.954ZM733.952 431.447C731.278 431.447 728.94 430.814 726.937 429.546C724.934 428.267 723.379 426.488 722.271 424.208C721.163 421.918 720.609 419.249 720.609 416.202V413.869C720.609 410.663 721.168 407.855 722.287 405.448C723.416 403.04 724.993 401.17 727.017 399.839C729.041 398.496 731.406 397.825 734.112 397.825C736.541 397.825 738.682 398.278 740.536 399.184C742.4 400.078 743.881 401.368 744.979 403.051C746.087 404.734 746.72 406.737 746.88 409.059H740.984C740.909 407.77 740.557 406.657 739.929 405.719C739.311 404.782 738.496 404.063 737.484 403.562C736.483 403.061 735.359 402.811 734.112 402.811C732.589 402.811 731.246 403.253 730.085 404.137C728.935 405.011 728.034 406.241 727.384 407.829C726.745 409.406 726.426 411.238 726.426 413.326V416.714C726.426 418.663 726.74 420.379 727.369 421.859C727.997 423.34 728.876 424.496 730.005 425.327C731.134 426.147 732.45 426.558 733.952 426.558C735.209 426.558 736.349 426.312 737.372 425.822C738.405 425.332 739.242 424.629 739.881 423.713C740.52 422.797 740.877 421.705 740.952 420.437H746.88C746.763 422.717 746.15 424.683 745.043 426.334C743.935 427.974 742.432 429.237 740.536 430.121C738.64 431.005 736.445 431.447 733.952 431.447ZM723.965 417.401V412.479H737.548V417.401H723.965ZM759.157 398.273L758.63 421.38H753.484L752.973 398.273H759.157ZM756.057 431.352C755.087 431.352 754.256 431.011 753.564 430.329C752.882 429.647 752.541 428.816 752.541 427.836C752.541 426.877 752.882 426.057 753.564 425.375C754.256 424.693 755.087 424.352 756.057 424.352C757.005 424.352 757.825 424.693 758.518 425.375C759.221 426.057 759.572 426.877 759.572 427.836C759.572 428.486 759.407 429.077 759.077 429.61C758.757 430.142 758.331 430.569 757.799 430.888C757.277 431.197 756.696 431.352 756.057 431.352Z" fill="white"/>
</g>
</g>
</g>
<defs>
<filter id="filter0_d_80_112" x="190.852" y="389.835" width="572.721" height="49.6118" filterUnits="userSpaceOnUse" color-interpolation-filters="sRGB">
<feFlood flood-opacity="0" result="BackgroundImageFix"/>
<feColorMatrix in="SourceAlpha" type="matrix" values="0 0 0 0 0 0 0 0 0 0 0 0 0 0 0 0 0 0 127 0" result="hardAlpha"/>
<feOffset dy="4"/>
<feGaussianBlur stdDeviation="2"/>
<feComposite in2="hardAlpha" operator="out"/>
<feColorMatrix type="matrix" values="0 0 0 0 0 0 0 0 0 0 0 0 0 0 0 0 0 0 0.25 0"/>
<feBlend mode="normal" in2="BackgroundImageFix" result="effect1_dropShadow_80_112"/>
<feBlend mode="normal" in="SourceGraphic" in2="effect1_dropShadow_80_112" result="shape"/>
</filter>
<linearGradient id="paint0_linear_80_112" x1="477.5" y1="0" x2="477.5" y2="536" gradientUnits="userSpaceOnUse">
<stop stop-color="#0FF6F6"/>
<stop offset="1" stop-color="#569CB9"/>
</linearGradient>
<clipPath id="clip0_80_112">
<rect width="940" height="528" fill="white"/>
</clipPath>
<clipPath id="clip1_80_112">
<rect width="955" height="536" fill="white" transform="translate(0 -8)"/>
</clipPath>
</defs>
</svg>
