<svg width="768" height="431" viewBox="0 0 768 431" fill="none" xmlns="http://www.w3.org/2000/svg">
<g clip-path="url(#clip0_80_110)">
<rect width="768" height="431" fill="url(#paint0_linear_80_110)"/>
<g opacity="0.15">
<path fill-rule="evenodd" clip-rule="evenodd" d="M-24.275 38.5768L-9.56726 23.6255C-8.62493 22.6675 -7.0351 22.6179 -6.06184 23.6073L16.5665 46.6105C17.5397 47.5999 17.4909 49.2161 16.5486 50.174L1.84091 65.1254C0.898579 66.0833 -0.691289 66.1329 -1.66452 65.1435L-24.2929 42.1403C-25.2661 41.1509 -25.2173 39.5348 -24.275 38.5768Z" fill="#4B75A4"/>
<path d="M0.0555316 58.0919L-15.8257 41.9475L-17.9048 44.061L-2.02352 60.2054L0.0555316 58.0919Z" fill="#FEFEFE"/>
<path d="M-3.1078 29.0183L-1.77314 31.121L-5.97207 35.3895L8.20767 49.8041L6.16946 51.8761L-8.01028 37.4614L-12.2907 41.8127L-13.6253 39.7101L-3.1078 29.0183Z" fill="#FEFEFE"/>
<path d="M12.5195 30.7603L16.5318 26.6816C14.4607 25.4921 11.9025 24.0566 7.51681 21.5961C9.77605 25.7241 11.2286 28.3661 12.5195 30.7603ZM18.9275 28.0352L13.8919 33.1543L13.8108 33.0719C14.8999 35.0948 16.07 37.2 17.6838 40.1722L15.4321 42.4613L4.38176 21.4059L7.45238 18.2844L28.1648 29.5176L25.7901 31.9316C22.6634 30.1681 20.7549 29.0603 18.9275 28.0352Z" fill="white"/>
<path fill-rule="evenodd" clip-rule="evenodd" d="M20.5699 4.7084L18.7301 6.57868L28.6371 29.0354L30.5179 27.1235L20.5699 4.7084Z" fill="#4B75A4"/>
<path fill-rule="evenodd" clip-rule="evenodd" d="M35.0976 17.7933L37.8079 4.70324L24.2858 6.80243L21.9863 4.46484L38.5195 2.25751L40.4156 4.18503L37.397 20.1309L35.0976 17.7933Z" fill="#4B75A4"/>
</g>
<g opacity="0.15">
<path fill-rule="evenodd" clip-rule="evenodd" d="M-19.8482 260.594L-5.14051 245.643C-4.19818 244.685 -2.60834 244.635 -1.63508 245.624L20.9933 268.628C21.9665 269.617 21.9177 271.233 20.9754 272.191L6.26767 287.142C5.32534 288.1 3.73547 288.15 2.76224 287.161L-19.8661 264.157C-20.8394 263.168 -20.7905 261.552 -19.8482 260.594Z" fill="#4B75A4"/>
<path d="M4.4818 280.109L-11.3995 263.964L-13.4785 266.078L2.40275 282.222L4.4818 280.109Z" fill="#FEFEFE"/>
<path d="M1.31896 251.035L2.65362 253.138L-1.54531 257.407L12.6344 271.821L10.5962 273.893L-3.58352 259.479L-7.8639 263.83L-9.19856 261.727L1.31896 251.035Z" fill="#FEFEFE"/>
<path d="M16.9458 252.777L20.958 248.698C18.887 247.509 16.3287 246.073 11.9431 243.613C14.2023 247.741 15.6549 250.383 16.9458 252.777ZM23.3538 250.052L18.3181 255.171L18.2371 255.088C19.3262 257.111 20.4963 259.217 22.1101 262.189L19.8583 264.478L8.80803 243.422L11.8787 240.301L32.591 251.534L30.2164 253.948C27.0896 252.185 25.1812 251.077 23.3538 250.052Z" fill="white"/>
<path fill-rule="evenodd" clip-rule="evenodd" d="M24.9966 226.725L23.1568 228.596L33.0639 251.053L34.9446 249.141L24.9966 226.725Z" fill="#4B75A4"/>
<path fill-rule="evenodd" clip-rule="evenodd" d="M39.5243 239.81L42.2347 226.72L28.7126 228.82L26.4131 226.482L42.9463 224.275L44.8424 226.202L41.8238 242.148L39.5243 239.81Z" fill="#4B75A4"/>
</g>
<g opacity="0.15">
<path fill-rule="evenodd" clip-rule="evenodd" d="M-24.275 148.086L-9.56726 133.134C-8.62493 132.176 -7.0351 132.127 -6.06184 133.116L16.5665 156.119C17.5397 157.109 17.4909 158.725 16.5486 159.683L1.84091 174.634C0.898579 175.592 -0.691289 175.642 -1.66452 174.652L-24.2929 151.649C-25.2661 150.66 -25.2173 149.044 -24.275 148.086Z" fill="#4B75A4"/>
<path d="M0.0550433 167.601L-15.8262 151.456L-17.9053 153.57L-2.024 169.714L0.0550433 167.601Z" fill="#FEFEFE"/>
<path d="M-3.1078 138.527L-1.77314 140.63L-5.97207 144.898L8.20767 159.313L6.16946 161.385L-8.01028 146.97L-12.2907 151.322L-13.6253 149.219L-3.1078 138.527Z" fill="#FEFEFE"/>
<path d="M12.5195 140.269L16.5318 136.19C14.4607 135.001 11.9025 133.565 7.51681 131.105C9.77605 135.233 11.2286 137.875 12.5195 140.269ZM18.9275 137.544L13.8919 142.663L13.8108 142.581C14.8999 144.604 16.07 146.709 17.6838 149.681L15.4321 151.97L4.38176 130.915L7.45238 127.793L28.1648 139.026L25.7901 141.44C22.6634 139.677 20.7549 138.569 18.9275 137.544Z" fill="white"/>
<path fill-rule="evenodd" clip-rule="evenodd" d="M20.5699 114.217L18.7301 116.087L28.6371 138.544L30.5179 136.632L20.5699 114.217Z" fill="#4B75A4"/>
<path fill-rule="evenodd" clip-rule="evenodd" d="M35.0976 127.302L37.8079 114.212L24.2858 116.311L21.9863 113.974L38.5195 111.766L40.4156 113.694L37.397 129.64L35.0976 127.302Z" fill="#4B75A4"/>
</g>
<g opacity="0.15">
<path fill-rule="evenodd" clip-rule="evenodd" d="M-19.8482 370.102L-5.14051 355.15C-4.19818 354.192 -2.60834 354.143 -1.63508 355.132L20.9933 378.135C21.9665 379.125 21.9177 380.741 20.9754 381.699L6.26767 396.65C5.32534 397.608 3.73547 397.658 2.76224 396.668L-19.8661 373.665C-20.8394 372.676 -20.7905 371.06 -19.8482 370.102Z" fill="#4B75A4"/>
<path d="M4.4818 389.617L-11.3995 373.472L-13.4785 375.586L2.40275 391.73L4.4818 389.617Z" fill="#FEFEFE"/>
<path d="M1.31896 360.543L2.65362 362.646L-1.54531 366.914L12.6344 381.329L10.5962 383.401L-3.58352 368.986L-7.8639 373.338L-9.19856 371.235L1.31896 360.543Z" fill="#FEFEFE"/>
<path d="M16.9458 362.285L20.958 358.206C18.887 357.017 16.3287 355.581 11.9431 353.12C14.2023 357.249 15.6549 359.891 16.9458 362.285ZM23.3538 359.56L18.3181 364.679L18.2371 364.596C19.3262 366.619 20.4963 368.724 22.1101 371.697L19.8583 373.986L8.80803 352.93L11.8787 349.809L32.591 361.042L30.2164 363.456C27.0896 361.692 25.1812 360.585 23.3538 359.56Z" fill="white"/>
<path fill-rule="evenodd" clip-rule="evenodd" d="M24.9966 336.233L23.1568 338.104L33.0639 360.56L34.9446 358.648L24.9966 336.233Z" fill="#4B75A4"/>
<path fill-rule="evenodd" clip-rule="evenodd" d="M39.5243 349.318L42.2347 336.228L28.7126 338.327L26.4131 335.99L42.9463 333.782L44.8424 335.71L41.8238 351.656L39.5243 349.318Z" fill="#4B75A4"/>
</g>
<g opacity="0.15">
<path fill-rule="evenodd" clip-rule="evenodd" d="M394.813 38.5768L409.521 23.6255C410.463 22.6675 412.053 22.6179 413.027 23.6073L435.655 46.6105C436.628 47.5999 436.579 49.2161 435.637 50.174L420.929 65.1254C419.987 66.0833 418.397 66.1329 417.424 65.1435L394.796 42.1403C393.822 41.1509 393.871 39.5348 394.813 38.5768Z" fill="#4B75A4"/>
<path d="M368.854 76.9263L384.735 93.0707L382.852 94.9852L366.971 78.8408L368.854 76.9263Z" fill="white"/>
<path d="M384.329 61.194L400.211 77.3384L396.812 80.7929L376.855 73.2403C381.761 77.4783 386.256 82.2983 390.794 86.911L388.706 89.0335L372.825 72.8892L376.141 69.518L396.18 77.0701C391.314 72.956 386.698 67.847 382.241 63.3167L384.329 61.194Z" fill="white"/>
<path d="M396.94 48.375L398.232 50.5209L394.056 54.7661L408.236 69.1808L406.393 71.0536L392.214 56.6389L387.915 61.009L386.541 58.9463L396.94 48.375Z" fill="white"/>
<path d="M419.144 58.0919L403.263 41.9475L401.184 44.061L417.065 60.2054L419.144 58.0919Z" fill="#FEFEFE"/>
<path d="M415.981 29.0183L417.315 31.121L413.116 35.3895L427.296 49.8041L425.258 51.8761L411.078 37.4614L406.798 41.8127L405.463 39.7101L415.981 29.0183Z" fill="#FEFEFE"/>
<path d="M431.608 30.7603L435.62 26.6816C433.549 25.4921 430.991 24.0566 426.605 21.5961C428.864 25.7241 430.317 28.3661 431.608 30.7603ZM438.016 28.0352L432.98 33.1543L432.899 33.0719C433.988 35.0948 435.158 37.2 436.772 40.1722L434.52 42.4613L423.47 21.4059L426.541 18.2844L447.253 29.5176L444.878 31.9316C441.752 30.1681 439.843 29.0603 438.016 28.0352Z" fill="white"/>
<path fill-rule="evenodd" clip-rule="evenodd" d="M439.658 4.7084L437.818 6.57868L447.725 29.0354L449.606 27.1235L439.658 4.7084Z" fill="#4B75A4"/>
<path fill-rule="evenodd" clip-rule="evenodd" d="M454.186 17.7933L456.896 4.70324L443.374 6.80243L441.075 4.46484L457.608 2.25751L459.504 4.18503L456.485 20.1309L454.186 17.7933Z" fill="#4B75A4"/>
</g>
<g opacity="0.15">
<path fill-rule="evenodd" clip-rule="evenodd" d="M399.241 260.594L413.948 245.643C414.891 244.685 416.481 244.635 417.454 245.624L440.082 268.628C441.055 269.617 441.007 271.233 440.064 272.191L425.357 287.142C424.414 288.1 422.824 288.15 421.851 287.161L399.223 264.157C398.25 263.168 398.298 261.552 399.241 260.594Z" fill="#4B75A4"/>
<path d="M373.281 298.943L389.163 315.087L387.279 317.002L371.398 300.857L373.281 298.943Z" fill="white"/>
<path d="M388.756 283.211L404.638 299.355L401.24 302.809L381.282 295.257C386.188 299.495 390.684 304.315 395.221 308.928L393.133 311.05L377.252 294.906L380.568 291.535L400.607 299.087C395.741 294.973 391.125 289.864 386.668 285.333L388.756 283.211Z" fill="white"/>
<path d="M401.367 270.392L402.659 272.537L398.483 276.783L412.663 291.197L410.821 293.07L396.641 278.656L392.342 283.026L390.968 280.963L401.367 270.392Z" fill="white"/>
<path d="M423.571 280.109L407.69 263.964L405.611 266.078L421.492 282.222L423.571 280.109Z" fill="#FEFEFE"/>
<path d="M420.408 251.035L421.742 253.138L417.544 257.407L431.723 271.821L429.685 273.893L415.505 259.479L411.225 263.83L409.89 261.727L420.408 251.035Z" fill="#FEFEFE"/>
<path d="M436.035 252.777L440.047 248.698C437.976 247.509 435.418 246.073 431.032 243.613C433.292 247.741 434.744 250.383 436.035 252.777ZM442.443 250.052L437.407 255.171L437.326 255.088C438.416 257.111 439.586 259.217 441.199 262.189L438.948 264.478L427.897 243.422L430.968 240.301L451.68 251.534L449.306 253.948C446.179 252.185 444.271 251.077 442.443 250.052Z" fill="white"/>
<path fill-rule="evenodd" clip-rule="evenodd" d="M444.085 226.725L442.246 228.596L452.153 251.053L454.033 249.141L444.085 226.725Z" fill="#4B75A4"/>
<path fill-rule="evenodd" clip-rule="evenodd" d="M458.613 239.81L461.324 226.72L447.801 228.82L445.502 226.482L462.035 224.275L463.931 226.202L460.913 242.148L458.613 239.81Z" fill="#4B75A4"/>
</g>
<g opacity="0.15">
<path fill-rule="evenodd" clip-rule="evenodd" d="M394.813 148.086L409.521 133.134C410.463 132.176 412.053 132.127 413.026 133.116L435.654 156.119C436.628 157.109 436.579 158.725 435.636 159.683L420.929 174.634C419.986 175.592 418.397 175.642 417.423 174.652L394.795 151.649C393.822 150.66 393.871 149.044 394.813 148.086Z" fill="#4B75A4"/>
<path d="M368.854 186.435L384.735 202.579L382.851 204.494L366.97 188.35L368.854 186.435Z" fill="white"/>
<path d="M384.329 170.703L400.21 186.847L396.812 190.302L376.854 182.749C381.76 186.987 386.256 191.807 390.793 196.42L388.705 198.542L372.824 182.398L376.14 179.027L396.179 186.579C391.314 182.465 386.697 177.356 382.241 172.825L384.329 170.703Z" fill="white"/>
<path d="M396.939 157.883L398.232 160.029L394.056 164.274L408.235 178.689L406.393 180.562L392.213 166.147L387.914 170.517L386.54 168.455L396.939 157.883Z" fill="white"/>
<path d="M419.143 167.601L403.262 151.456L401.183 153.57L417.064 169.714L419.143 167.601Z" fill="#FEFEFE"/>
<path d="M415.98 138.527L417.315 140.63L413.116 144.898L427.296 159.313L425.257 161.385L411.078 146.97L406.797 151.322L405.463 149.219L415.98 138.527Z" fill="#FEFEFE"/>
<path d="M431.607 140.269L435.62 136.19C433.549 135.001 430.99 133.565 426.605 131.105C428.864 135.233 430.316 137.875 431.607 140.269ZM438.015 137.544L432.98 142.663L432.899 142.581C433.988 144.604 435.158 146.709 436.772 149.681L434.52 151.97L423.47 130.915L426.54 127.793L447.253 139.026L444.878 141.44C441.751 139.677 439.843 138.569 438.015 137.544Z" fill="white"/>
<path fill-rule="evenodd" clip-rule="evenodd" d="M439.658 114.217L437.818 116.087L447.725 138.544L449.606 136.632L439.658 114.217Z" fill="#4B75A4"/>
<path fill-rule="evenodd" clip-rule="evenodd" d="M454.186 127.302L456.896 114.212L443.374 116.311L441.075 113.974L457.608 111.766L459.504 113.694L456.485 129.64L454.186 127.302Z" fill="#4B75A4"/>
</g>
<g opacity="0.15">
<path fill-rule="evenodd" clip-rule="evenodd" d="M399.241 370.102L413.948 355.15C414.891 354.192 416.481 354.143 417.454 355.132L440.082 378.135C441.055 379.125 441.007 380.741 440.064 381.699L425.357 396.65C424.414 397.608 422.824 397.658 421.851 396.668L399.223 373.665C398.25 372.676 398.298 371.06 399.241 370.102Z" fill="#4B75A4"/>
<path d="M373.281 408.451L389.163 424.595L387.279 426.51L371.398 410.365L373.281 408.451Z" fill="white"/>
<path d="M388.756 392.719L404.638 408.863L401.24 412.318L381.282 404.765C386.188 409.003 390.684 413.823 395.221 418.436L393.133 420.558L377.252 404.414L380.568 401.043L400.607 408.595C395.741 404.481 391.125 399.372 386.668 394.842L388.756 392.719Z" fill="white"/>
<path d="M401.367 379.899L402.659 382.045L398.483 386.291L412.663 400.705L410.821 402.578L396.641 388.163L392.342 392.533L390.968 390.471L401.367 379.899Z" fill="white"/>
<path d="M423.571 389.617L407.69 373.472L405.611 375.586L421.492 391.73L423.571 389.617Z" fill="#FEFEFE"/>
<path d="M420.408 360.543L421.742 362.646L417.544 366.914L431.723 381.329L429.685 383.401L415.505 368.986L411.225 373.338L409.89 371.235L420.408 360.543Z" fill="#FEFEFE"/>
<path d="M436.035 362.285L440.047 358.206C437.976 357.017 435.418 355.581 431.032 353.12C433.292 357.249 434.744 359.891 436.035 362.285ZM442.443 359.56L437.407 364.679L437.326 364.596C438.416 366.619 439.586 368.724 441.199 371.697L438.948 373.986L427.897 352.93L430.968 349.809L451.68 361.042L449.306 363.456C446.179 361.692 444.271 360.585 442.443 359.56Z" fill="white"/>
<path fill-rule="evenodd" clip-rule="evenodd" d="M444.085 336.233L442.246 338.104L452.153 360.56L454.033 358.648L444.085 336.233Z" fill="#4B75A4"/>
<path fill-rule="evenodd" clip-rule="evenodd" d="M458.613 349.318L461.324 336.228L447.801 338.327L445.502 335.99L462.035 333.782L463.931 335.71L460.913 351.656L458.613 349.318Z" fill="#4B75A4"/>
</g>
<g opacity="0.15">
<path fill-rule="evenodd" clip-rule="evenodd" d="M185.269 37.0768L199.977 22.1255C200.919 21.1675 202.509 21.1179 203.482 22.1073L226.11 45.1105C227.084 46.0999 227.035 47.7161 226.093 48.674L211.385 63.6254C210.443 64.5833 208.853 64.6329 207.879 63.6435L185.251 40.6403C184.278 39.6509 184.327 38.0348 185.269 37.0768Z" fill="#4B75A4"/>
<path d="M159.31 75.4263L175.191 91.5707L173.308 93.4852L157.426 77.3408L159.31 75.4263Z" fill="white"/>
<path d="M174.785 59.694L190.666 75.8384L187.268 79.2929L167.31 71.7403C172.216 75.9783 176.712 80.7983 181.25 85.411L179.162 87.5335L163.28 71.3892L166.596 68.018L186.635 75.5701C181.77 71.456 177.153 66.347 172.697 61.8167L174.785 59.694Z" fill="white"/>
<path d="M187.396 46.875L188.688 49.0209L184.512 53.2661L198.691 67.6808L196.849 69.5536L182.669 55.1389L178.37 59.509L176.997 57.4463L187.396 46.875Z" fill="white"/>
<path d="M209.599 56.5919L193.718 40.4475L191.639 42.561L207.52 58.7054L209.599 56.5919Z" fill="#FEFEFE"/>
<path d="M206.436 27.5183L207.771 29.621L203.572 33.8895L217.752 48.3041L215.713 50.3761L201.534 35.9614L197.253 40.3127L195.919 38.2101L206.436 27.5183Z" fill="#FEFEFE"/>
<path d="M222.063 29.2603L226.076 25.1816C224.005 23.9921 221.446 22.5566 217.061 20.0961C219.32 24.2241 220.773 26.8661 222.063 29.2603ZM228.471 26.5352L223.436 31.6543L223.355 31.5719C224.444 33.5948 225.614 35.7 227.228 38.6722L224.976 40.9613L213.926 19.9059L216.996 16.7844L237.709 28.0176L235.334 30.4316C232.207 28.6681 230.299 27.5603 228.471 26.5352Z" fill="white"/>
<path fill-rule="evenodd" clip-rule="evenodd" d="M230.114 3.2084L228.274 5.07868L238.181 27.5354L240.062 25.6235L230.114 3.2084Z" fill="#4B75A4"/>
<path fill-rule="evenodd" clip-rule="evenodd" d="M244.641 16.2933L247.352 3.20324L233.83 5.30243L231.53 2.96484L248.063 0.75751L249.96 2.68503L246.941 18.6309L244.641 16.2933Z" fill="#4B75A4"/>
</g>
<g opacity="0.15">
<path fill-rule="evenodd" clip-rule="evenodd" d="M189.696 259.094L204.404 244.143C205.346 243.185 206.936 243.135 207.909 244.124L230.538 267.128C231.511 268.117 231.462 269.733 230.52 270.691L215.812 285.642C214.87 286.6 213.28 286.65 212.307 285.661L189.678 262.657C188.705 261.668 188.754 260.052 189.696 259.094Z" fill="#4B75A4"/>
<path d="M163.736 297.443L179.618 313.587L177.734 315.502L161.853 299.357L163.736 297.443Z" fill="white"/>
<path d="M179.212 281.711L195.093 297.855L191.695 301.31L171.738 293.757C176.644 297.995 181.139 302.815 185.677 307.428L183.589 309.551L167.708 293.406L171.024 290.035L191.063 297.587C186.197 293.473 181.581 288.364 177.124 283.834L179.212 281.711Z" fill="white"/>
<path d="M191.823 268.892L193.115 271.037L188.939 275.283L203.119 289.697L201.276 291.57L187.097 277.156L182.798 281.526L181.424 279.463L191.823 268.892Z" fill="white"/>
<path d="M214.026 278.609L198.144 262.465L196.065 264.578L211.947 280.722L214.026 278.609Z" fill="#FEFEFE"/>
<path d="M210.863 249.535L212.198 251.638L207.999 255.906L222.179 270.321L220.141 272.393L205.961 257.978L201.681 262.329L200.346 260.227L210.863 249.535Z" fill="#FEFEFE"/>
<path d="M226.491 251.277L230.503 247.199C228.432 246.009 225.874 244.574 221.488 242.113C223.747 246.241 225.2 248.883 226.491 251.277ZM232.899 248.552L227.863 253.671L227.782 253.589C228.871 255.612 230.041 257.717 231.655 260.689L229.403 262.978L218.353 241.923L221.424 238.801L242.136 250.035L239.761 252.449C236.635 250.685 234.726 249.577 232.899 248.552Z" fill="white"/>
<path fill-rule="evenodd" clip-rule="evenodd" d="M234.541 225.225L232.701 227.096L242.608 249.553L244.489 247.641L234.541 225.225Z" fill="#4B75A4"/>
<path fill-rule="evenodd" clip-rule="evenodd" d="M249.069 238.31L251.779 225.22L238.257 227.32L235.958 224.982L252.491 222.775L254.387 224.702L251.368 240.648L249.069 238.31Z" fill="#4B75A4"/>
</g>
<g opacity="0.15">
<path fill-rule="evenodd" clip-rule="evenodd" d="M185.269 146.585L199.977 131.634C200.919 130.676 202.509 130.626 203.483 131.616L226.111 154.619C227.084 155.608 227.035 157.224 226.093 158.182L211.385 173.134C210.443 174.092 208.853 174.141 207.88 173.152L185.252 150.149C184.278 149.159 184.327 147.543 185.269 146.585Z" fill="#4B75A4"/>
<path d="M159.31 184.935L175.191 201.079L173.308 202.993L157.427 186.849L159.31 184.935Z" fill="white"/>
<path d="M174.785 169.202L190.667 185.347L187.268 188.801L167.311 181.249C172.217 185.487 176.713 190.307 181.25 194.919L179.162 197.042L163.281 180.897L166.597 177.526L186.636 185.078C181.77 180.964 177.154 175.855 172.697 171.325L174.785 169.202Z" fill="white"/>
<path d="M187.396 156.383L188.688 158.529L184.512 162.774L198.691 177.189L196.849 179.061L182.669 164.647L178.37 169.017L176.997 166.954L187.396 156.383Z" fill="white"/>
<path d="M209.599 166.1L193.718 149.956L191.639 152.069L207.52 168.214L209.599 166.1Z" fill="#FEFEFE"/>
<path d="M206.437 137.027L207.771 139.129L203.572 143.398L217.752 157.812L215.714 159.884L201.534 145.47L197.254 149.821L195.919 147.718L206.437 137.027Z" fill="#FEFEFE"/>
<path d="M222.063 138.769L226.076 134.69C224.005 133.5 221.446 132.065 217.061 129.604C219.32 133.732 220.773 136.374 222.063 138.769ZM228.471 136.043L223.436 141.163L223.355 141.08C224.444 143.103 225.614 145.208 227.228 148.18L224.976 150.47L213.926 129.414L216.996 126.293L237.709 137.526L235.334 139.94C232.207 138.176 230.299 137.069 228.471 136.043Z" fill="white"/>
<path fill-rule="evenodd" clip-rule="evenodd" d="M230.114 112.717L228.274 114.587L238.182 137.044L240.062 135.132L230.114 112.717Z" fill="#4B75A4"/>
<path fill-rule="evenodd" clip-rule="evenodd" d="M244.642 125.802L247.352 112.712L233.83 114.811L231.531 112.473L248.064 110.266L249.96 112.193L246.941 128.139L244.642 125.802Z" fill="#4B75A4"/>
</g>
<g opacity="0.15">
<path fill-rule="evenodd" clip-rule="evenodd" d="M189.696 368.602L204.404 353.65C205.346 352.692 206.936 352.643 207.909 353.632L230.538 376.635C231.511 377.625 231.462 379.241 230.52 380.199L215.812 395.15C214.87 396.108 213.28 396.158 212.307 395.168L189.678 372.165C188.705 371.176 188.754 369.56 189.696 368.602Z" fill="#4B75A4"/>
<path d="M163.736 406.951L179.618 423.095L177.734 425.01L161.853 408.865L163.736 406.951Z" fill="white"/>
<path d="M179.212 391.219L195.093 407.363L191.695 410.818L171.738 403.265C176.644 407.503 181.139 412.323 185.677 416.936L183.589 419.058L167.708 402.914L171.024 399.543L191.063 407.095C186.197 402.981 181.581 397.872 177.124 393.342L179.212 391.219Z" fill="white"/>
<path d="M191.823 378.399L193.115 380.545L188.939 384.791L203.119 399.205L201.276 401.078L187.097 386.663L182.798 391.033L181.424 388.971L191.823 378.399Z" fill="white"/>
<path d="M214.026 388.117L198.144 371.972L196.065 374.086L211.947 390.23L214.026 388.117Z" fill="#FEFEFE"/>
<path d="M210.863 359.043L212.198 361.145L207.999 365.414L222.179 379.829L220.141 381.901L205.961 367.486L201.681 371.837L200.346 369.734L210.863 359.043Z" fill="#FEFEFE"/>
<path d="M226.491 360.785L230.503 356.707C228.432 355.517 225.874 354.082 221.488 351.621C223.747 355.749 225.2 358.391 226.491 360.785ZM232.899 358.06L227.863 363.179L227.782 363.097C228.871 365.12 230.041 367.225 231.655 370.197L229.403 372.486L218.353 351.431L221.424 348.309L242.136 359.543L239.761 361.957C236.635 360.193 234.726 359.085 232.899 358.06Z" fill="white"/>
<path fill-rule="evenodd" clip-rule="evenodd" d="M234.541 334.733L232.701 336.604L242.608 359.06L244.489 357.148L234.541 334.733Z" fill="#4B75A4"/>
<path fill-rule="evenodd" clip-rule="evenodd" d="M249.069 347.818L251.779 334.728L238.257 336.827L235.958 334.49L252.491 332.282L254.387 334.21L251.368 350.156L249.069 347.818Z" fill="#4B75A4"/>
</g>
<g opacity="0.15">
<path fill-rule="evenodd" clip-rule="evenodd" d="M604.358 37.0763L619.066 22.125C620.008 21.167 621.598 21.1174 622.571 22.1068L645.199 45.11C646.173 46.0994 646.124 47.7156 645.181 48.6735L630.474 63.6249C629.531 64.5828 627.942 64.6324 626.968 63.6431L604.34 40.6398C603.367 39.6505 603.416 38.0343 604.358 37.0763Z" fill="#4B75A4"/>
<path d="M578.398 75.4253L594.28 91.5697L592.396 93.4842L576.515 77.3398L578.398 75.4253Z" fill="white"/>
<path d="M593.874 59.6931L609.755 75.8374L606.357 79.2919L586.399 71.7393C591.305 75.9773 595.801 80.7974 600.338 85.41L598.25 87.5326L582.369 71.3882L585.685 68.017L605.724 75.5692C600.859 71.4551 596.242 66.346 591.786 61.8157L593.874 59.6931Z" fill="white"/>
<path d="M606.484 46.874L607.777 49.0199L603.6 53.2652L617.78 67.6798L615.938 69.5526L601.758 55.138L597.459 59.508L596.085 57.4453L606.484 46.874Z" fill="white"/>
<path d="M628.688 56.5909L612.807 40.4466L610.728 42.5601L626.609 58.7044L628.688 56.5909Z" fill="#FEFEFE"/>
<path d="M625.525 27.5178L626.86 29.6205L622.661 33.889L636.84 48.3036L634.802 50.3756L620.623 35.9609L616.342 40.3122L615.007 38.2096L625.525 27.5178Z" fill="#FEFEFE"/>
<path d="M641.152 29.2594L645.165 25.1806C643.094 23.9911 640.535 22.5557 636.15 20.0951C638.409 24.2232 639.861 26.8652 641.152 29.2594ZM647.56 26.5342L642.525 31.6533L642.444 31.5709C643.533 33.5939 644.703 35.699 646.317 38.6712L644.065 40.9603L633.015 19.9049L636.085 16.7834L656.798 28.0166L654.423 30.4306C651.296 28.6671 649.388 27.5593 647.56 26.5342Z" fill="white"/>
<path fill-rule="evenodd" clip-rule="evenodd" d="M649.203 3.20791L647.363 5.07819L657.27 27.535L659.151 25.623L649.203 3.20791Z" fill="#4B75A4"/>
<path fill-rule="evenodd" clip-rule="evenodd" d="M663.73 16.2928L666.441 3.20275L652.919 5.30194L650.619 2.96436L667.152 0.757021L669.048 2.68454L666.03 18.6304L663.73 16.2928Z" fill="#4B75A4"/>
</g>
<g opacity="0.15">
<path fill-rule="evenodd" clip-rule="evenodd" d="M608.785 259.094L623.492 244.143C624.435 243.185 626.024 243.135 626.998 244.124L649.626 267.128C650.599 268.117 650.551 269.733 649.608 270.691L634.9 285.642C633.958 286.6 632.368 286.65 631.395 285.661L608.767 262.657C607.793 261.668 607.842 260.052 608.785 259.094Z" fill="#4B75A4"/>
<path d="M582.825 297.443L598.706 313.587L596.823 315.502L580.942 299.357L582.825 297.443Z" fill="white"/>
<path d="M598.3 281.711L614.182 297.855L610.784 301.309L590.826 293.757C595.732 297.995 600.228 302.815 604.765 307.428L602.677 309.55L586.796 293.406L590.112 290.035L610.151 297.587C605.285 293.473 600.669 288.364 596.212 283.833L598.3 281.711Z" fill="white"/>
<path d="M610.911 268.892L612.203 271.037L608.027 275.283L622.207 289.697L620.365 291.57L606.185 277.156L601.886 281.526L600.512 279.463L610.911 268.892Z" fill="white"/>
<path d="M633.115 278.609L617.233 262.464L615.154 264.578L631.036 280.722L633.115 278.609Z" fill="#FEFEFE"/>
<path d="M629.952 249.535L631.286 251.638L627.087 255.907L641.267 270.321L639.229 272.393L625.049 257.979L620.769 262.33L619.434 260.227L629.952 249.535Z" fill="#FEFEFE"/>
<path d="M645.579 251.277L649.591 247.198C647.52 246.009 644.962 244.573 640.576 242.113C642.835 246.241 644.288 248.883 645.579 251.277ZM651.987 248.552L646.951 253.671L646.87 253.588C647.959 255.611 649.129 257.717 650.743 260.689L648.491 262.978L637.441 241.922L640.511 238.801L661.224 250.034L658.849 252.448C655.722 250.685 653.814 249.577 651.987 248.552Z" fill="white"/>
<path fill-rule="evenodd" clip-rule="evenodd" d="M653.629 225.225L651.79 227.096L661.697 249.553L663.577 247.641L653.629 225.225Z" fill="#4B75A4"/>
<path fill-rule="evenodd" clip-rule="evenodd" d="M668.157 238.31L670.867 225.22L657.345 227.32L655.046 224.982L671.579 222.775L673.475 224.702L670.457 240.648L668.157 238.31Z" fill="#4B75A4"/>
</g>
<g opacity="0.15">
<path fill-rule="evenodd" clip-rule="evenodd" d="M604.358 146.585L619.066 131.634C620.008 130.676 621.598 130.626 622.571 131.616L645.199 154.619C646.173 155.608 646.124 157.224 645.181 158.182L630.474 173.134C629.531 174.092 627.942 174.141 626.968 173.152L604.34 150.149C603.367 149.159 603.416 147.543 604.358 146.585Z" fill="#4B75A4"/>
<path d="M578.398 184.935L594.28 201.079L592.396 202.993L576.515 186.849L578.398 184.935Z" fill="white"/>
<path d="M593.874 169.202L609.755 185.347L606.357 188.801L586.399 181.249C591.305 185.487 595.801 190.307 600.338 194.919L598.25 197.042L582.369 180.897L585.685 177.526L605.724 185.078C600.859 180.964 596.242 175.855 591.786 171.325L593.874 169.202Z" fill="white"/>
<path d="M606.484 156.383L607.777 158.529L603.6 162.774L617.78 177.189L615.938 179.061L601.758 164.647L597.459 169.017L596.085 166.954L606.484 156.383Z" fill="white"/>
<path d="M628.688 166.1L612.807 149.956L610.728 152.069L626.609 168.214L628.688 166.1Z" fill="#FEFEFE"/>
<path d="M625.525 137.027L626.86 139.129L622.661 143.398L636.84 157.812L634.802 159.884L620.623 145.47L616.342 149.821L615.007 147.718L625.525 137.027Z" fill="#FEFEFE"/>
<path d="M641.152 138.769L645.165 134.69C643.094 133.5 640.535 132.065 636.15 129.604C638.409 133.732 639.861 136.374 641.152 138.769ZM647.56 136.043L642.525 141.163L642.444 141.08C643.533 143.103 644.703 145.208 646.317 148.18L644.065 150.47L633.015 129.414L636.085 126.293L656.798 137.526L654.423 139.94C651.296 138.176 649.388 137.069 647.56 136.043Z" fill="white"/>
<path fill-rule="evenodd" clip-rule="evenodd" d="M649.203 112.717L647.363 114.587L657.27 137.044L659.151 135.132L649.203 112.717Z" fill="#4B75A4"/>
<path fill-rule="evenodd" clip-rule="evenodd" d="M663.73 125.802L666.441 112.712L652.919 114.811L650.619 112.473L667.152 110.266L669.048 112.193L666.03 128.139L663.73 125.802Z" fill="#4B75A4"/>
</g>
<g opacity="0.15">
<path fill-rule="evenodd" clip-rule="evenodd" d="M608.785 368.602L623.492 353.65C624.435 352.692 626.024 352.643 626.998 353.632L649.626 376.635C650.599 377.625 650.551 379.241 649.608 380.199L634.9 395.15C633.958 396.108 632.368 396.158 631.395 395.168L608.767 372.165C607.793 371.176 607.842 369.56 608.785 368.602Z" fill="#4B75A4"/>
<path d="M582.825 406.951L598.706 423.095L596.823 425.01L580.942 408.865L582.825 406.951Z" fill="white"/>
<path d="M598.3 391.219L614.182 407.363L610.784 410.818L590.826 403.265C595.732 407.503 600.228 412.323 604.765 416.936L602.677 419.058L586.796 402.914L590.112 399.543L610.151 407.095C605.285 402.981 600.669 397.872 596.212 393.342L598.3 391.219Z" fill="white"/>
<path d="M610.911 378.399L612.203 380.545L608.027 384.791L622.207 399.205L620.365 401.078L606.185 386.663L601.886 391.033L600.512 388.971L610.911 378.399Z" fill="white"/>
<path d="M633.115 388.117L617.233 371.972L615.154 374.086L631.036 390.23L633.115 388.117Z" fill="#FEFEFE"/>
<path d="M629.952 359.043L631.286 361.146L627.087 365.414L641.267 379.829L639.229 381.901L625.049 367.486L620.769 371.838L619.434 369.735L629.952 359.043Z" fill="#FEFEFE"/>
<path d="M645.579 360.785L649.591 356.707C647.52 355.517 644.962 354.082 640.576 351.621C642.835 355.749 644.288 358.391 645.579 360.785ZM651.987 358.06L646.951 363.179L646.87 363.097C647.959 365.12 649.129 367.225 650.743 370.197L648.491 372.486L637.441 351.431L640.511 348.309L661.224 359.543L658.849 361.957C655.722 360.193 653.814 359.085 651.987 358.06Z" fill="white"/>
<path fill-rule="evenodd" clip-rule="evenodd" d="M653.629 334.733L651.79 336.604L661.697 359.06L663.577 357.148L653.629 334.733Z" fill="#4B75A4"/>
<path fill-rule="evenodd" clip-rule="evenodd" d="M668.157 347.818L670.867 334.728L657.345 336.827L655.046 334.49L671.579 332.282L673.475 334.21L670.457 350.156L668.157 347.818Z" fill="#4B75A4"/>
</g>
<g opacity="0.15">
<path fill-rule="evenodd" clip-rule="evenodd" d="M80.4975 38.5768L95.2052 23.6255C96.1475 22.6675 97.7374 22.6179 98.7106 23.6073L121.339 46.6105C122.312 47.5999 122.263 49.2161 121.321 50.174L106.613 65.1254C105.671 66.0833 104.081 66.1329 103.108 65.1435L80.4796 42.1403C79.5063 41.1509 79.5552 39.5348 80.4975 38.5768Z" fill="#4B75A4"/>
<path d="M54.5381 76.9263L70.4194 93.0707L68.5361 94.9852L52.6548 78.8408L54.5381 76.9263Z" fill="white"/>
<path d="M70.0133 61.194L85.8946 77.3384L82.4964 80.7929L62.5388 73.2403C67.4448 77.4783 71.9406 82.2983 76.478 86.911L74.3901 89.0335L58.5088 72.8892L61.825 69.518L81.864 77.0701C76.9982 72.956 72.3818 67.847 67.9253 63.3167L70.0133 61.194Z" fill="white"/>
<path d="M82.624 48.375L83.9162 50.5209L79.7401 54.7661L93.9199 69.1808L92.0776 71.0536L77.8978 56.6389L73.599 61.009L72.225 58.9463L82.624 48.375Z" fill="white"/>
<path d="M104.828 58.0919L88.9467 41.9475L86.8677 44.061L102.749 60.2054L104.828 58.0919Z" fill="#FEFEFE"/>
<path d="M101.665 29.0183L102.999 31.121L98.8004 35.3895L112.98 49.8041L110.942 51.8761L96.7622 37.4614L92.4818 41.8127L91.1471 39.7101L101.665 29.0183Z" fill="#FEFEFE"/>
<path d="M117.292 30.7603L121.304 26.6816C119.233 25.4921 116.675 24.0566 112.289 21.5961C114.549 25.7241 116.001 28.3661 117.292 30.7603ZM123.7 28.0352L118.664 33.1543L118.583 33.0719C119.672 35.0948 120.843 37.2 122.456 40.1722L120.205 42.4613L109.154 21.4059L112.225 18.2844L132.937 29.5176L130.563 31.9316C127.436 30.1681 125.527 29.0603 123.7 28.0352Z" fill="white"/>
<path fill-rule="evenodd" clip-rule="evenodd" d="M125.342 4.7084L123.503 6.57868L133.41 29.0354L135.29 27.1235L125.342 4.7084Z" fill="#4B75A4"/>
<path fill-rule="evenodd" clip-rule="evenodd" d="M139.87 17.7933L142.58 4.70324L129.058 6.80243L126.759 4.46484L143.292 2.25751L145.188 4.18503L142.17 20.1309L139.87 17.7933Z" fill="#4B75A4"/>
</g>
<g opacity="0.15">
<path fill-rule="evenodd" clip-rule="evenodd" d="M84.9243 260.594L99.632 245.643C100.574 244.685 102.164 244.635 103.137 245.624L125.766 268.628C126.739 269.617 126.69 271.233 125.748 272.191L111.04 287.142C110.098 288.1 108.508 288.15 107.535 287.161L84.9064 264.157C83.9331 263.168 83.9819 261.552 84.9243 260.594Z" fill="#4B75A4"/>
<path d="M58.9648 298.943L74.8461 315.087L72.9628 317.002L57.0815 300.857L58.9648 298.943Z" fill="white"/>
<path d="M74.4401 283.211L90.3213 299.355L86.9232 302.809L66.9656 295.257C71.8716 299.495 76.3673 304.315 80.9048 308.928L78.8168 311.05L62.9355 294.906L66.2517 291.535L86.2907 299.087C81.425 294.973 76.8086 289.864 72.352 285.333L74.4401 283.211Z" fill="white"/>
<path d="M87.0508 270.392L88.343 272.537L84.1669 276.783L98.3466 291.197L96.5043 293.07L82.3246 278.656L78.0257 283.026L76.6518 280.963L87.0508 270.392Z" fill="white"/>
<path d="M109.255 280.109L93.3735 263.964L91.2944 266.078L107.176 282.222L109.255 280.109Z" fill="#FEFEFE"/>
<path d="M106.091 251.035L107.426 253.138L103.227 257.407L117.407 271.821L115.369 273.893L101.189 259.479L96.9086 263.83L95.5739 261.727L106.091 251.035Z" fill="#FEFEFE"/>
<path d="M121.719 252.777L125.731 248.698C123.66 247.509 121.102 246.073 116.716 243.613C118.975 247.741 120.428 250.383 121.719 252.777ZM128.127 250.052L123.091 255.171L123.01 255.088C124.099 257.111 125.269 259.217 126.883 262.189L124.631 264.478L113.581 243.422L116.652 240.301L137.364 251.534L134.989 253.948C131.863 252.185 129.954 251.077 128.127 250.052Z" fill="white"/>
<path fill-rule="evenodd" clip-rule="evenodd" d="M129.769 226.725L127.929 228.596L137.836 251.053L139.717 249.141L129.769 226.725Z" fill="#4B75A4"/>
<path fill-rule="evenodd" clip-rule="evenodd" d="M144.297 239.81L147.007 226.72L133.485 228.819L131.186 226.481L147.719 224.274L149.615 226.202L146.596 242.147L144.297 239.81Z" fill="#4B75A4"/>
</g>
<g opacity="0.15">
<path fill-rule="evenodd" clip-rule="evenodd" d="M80.497 148.086L95.2047 133.134C96.147 132.176 97.7369 132.127 98.7101 133.116L121.338 156.119C122.312 157.109 122.263 158.725 121.321 159.683L106.613 174.634C105.671 175.592 104.081 175.642 103.107 174.652L80.4791 151.649C79.5059 150.66 79.5547 149.044 80.497 148.086Z" fill="#4B75A4"/>
<path d="M54.5376 186.435L70.4189 202.579L68.5356 204.494L52.6543 188.35L54.5376 186.435Z" fill="white"/>
<path d="M70.0128 170.703L85.8941 186.847L82.4959 190.302L62.5384 182.749C67.4443 186.987 71.9401 191.807 76.4775 196.42L74.3896 198.542L58.5083 182.398L61.8245 179.027L81.8635 186.579C76.9977 182.465 72.3813 177.356 67.9248 172.825L70.0128 170.703Z" fill="white"/>
<path d="M82.6236 157.883L83.9157 160.029L79.7396 164.274L93.9194 178.689L92.0771 180.562L77.8974 166.147L73.5985 170.517L72.2245 168.455L82.6236 157.883Z" fill="white"/>
<path d="M104.828 167.601L88.9462 151.456L86.8672 153.57L102.748 169.714L104.828 167.601Z" fill="#FEFEFE"/>
<path d="M101.664 138.527L102.999 140.63L98.7999 144.898L112.98 159.313L110.941 161.385L96.7617 146.97L92.4813 151.322L91.1467 149.219L101.664 138.527Z" fill="#FEFEFE"/>
<path d="M117.291 140.269L121.304 136.19C119.233 135.001 116.674 133.565 112.289 131.105C114.548 135.233 116.001 137.875 117.291 140.269ZM123.699 137.544L118.664 142.663L118.583 142.581C119.672 144.604 120.842 146.709 122.456 149.681L120.204 151.97L109.154 130.915L112.224 127.793L132.937 139.026L130.562 141.44C127.435 139.677 125.527 138.569 123.699 137.544Z" fill="white"/>
<path fill-rule="evenodd" clip-rule="evenodd" d="M125.342 114.217L123.502 116.087L133.409 138.544L135.29 136.632L125.342 114.217Z" fill="#4B75A4"/>
<path fill-rule="evenodd" clip-rule="evenodd" d="M139.87 127.302L142.58 114.212L129.058 116.311L126.759 113.974L143.292 111.766L145.188 113.694L142.17 129.64L139.87 127.302Z" fill="#4B75A4"/>
</g>
<g opacity="0.15">
<path fill-rule="evenodd" clip-rule="evenodd" d="M84.9243 370.102L99.632 355.15C100.574 354.192 102.164 354.143 103.137 355.132L125.766 378.135C126.739 379.125 126.69 380.741 125.748 381.699L111.04 396.65C110.098 397.608 108.508 397.658 107.535 396.668L84.9064 373.665C83.9331 372.676 83.9819 371.06 84.9243 370.102Z" fill="#4B75A4"/>
<path d="M58.9648 408.451L74.8461 424.595L72.9628 426.51L57.0815 410.365L58.9648 408.451Z" fill="white"/>
<path d="M74.4401 392.719L90.3213 408.863L86.9232 412.318L66.9656 404.765C71.8716 409.003 76.3673 413.823 80.9048 418.436L78.8168 420.558L62.9355 404.414L66.2517 401.043L86.2907 408.595C81.425 404.481 76.8086 399.372 72.352 394.842L74.4401 392.719Z" fill="white"/>
<path d="M87.0508 379.899L88.343 382.045L84.1669 386.291L98.3466 400.705L96.5043 402.578L82.3246 388.163L78.0257 392.533L76.6518 390.471L87.0508 379.899Z" fill="white"/>
<path d="M109.255 389.617L93.3735 373.472L91.2944 375.586L107.176 391.73L109.255 389.617Z" fill="#FEFEFE"/>
<path d="M106.091 360.543L107.426 362.646L103.227 366.914L117.407 381.329L115.369 383.401L101.189 368.986L96.9086 373.338L95.5739 371.235L106.091 360.543Z" fill="#FEFEFE"/>
<path d="M121.719 362.285L125.731 358.206C123.66 357.017 121.102 355.581 116.716 353.12C118.975 357.249 120.428 359.891 121.719 362.285ZM128.127 359.56L123.091 364.679L123.01 364.596C124.099 366.619 125.269 368.724 126.883 371.697L124.631 373.986L113.581 352.93L116.652 349.809L137.364 361.042L134.989 363.456C131.863 361.692 129.954 360.585 128.127 359.56Z" fill="white"/>
<path fill-rule="evenodd" clip-rule="evenodd" d="M129.769 336.233L127.929 338.104L137.836 360.56L139.717 358.648L129.769 336.233Z" fill="#4B75A4"/>
<path fill-rule="evenodd" clip-rule="evenodd" d="M144.297 349.318L147.007 336.228L133.485 338.327L131.186 335.99L147.719 333.782L149.615 335.71L146.596 351.656L144.297 349.318Z" fill="#4B75A4"/>
</g>
<g opacity="0.15">
<path fill-rule="evenodd" clip-rule="evenodd" d="M499.585 38.5768L514.293 23.6255C515.235 22.6675 516.825 22.6179 517.799 23.6073L540.427 46.6105C541.4 47.5999 541.351 49.2161 540.409 50.174L525.701 65.1254C524.759 66.0833 523.169 66.1329 522.196 65.1435L499.567 42.1403C498.594 41.1509 498.643 39.5348 499.585 38.5768Z" fill="#4B75A4"/>
<path d="M473.626 76.9263L489.507 93.0707L487.624 94.9852L471.743 78.8408L473.626 76.9263Z" fill="white"/>
<path d="M489.101 61.194L504.982 77.3384L501.584 80.7929L481.627 73.2403C486.533 77.4783 491.028 82.2983 495.566 86.911L493.478 89.0335L477.597 72.8892L480.913 69.518L500.952 77.0701C496.086 72.956 491.47 67.847 487.013 63.3167L489.101 61.194Z" fill="white"/>
<path d="M501.712 48.375L503.004 50.5209L498.828 54.7661L513.008 69.1808L511.165 71.0536L496.986 56.6389L492.687 61.009L491.313 58.9463L501.712 48.375Z" fill="white"/>
<path d="M523.916 58.0919L508.035 41.9475L505.956 44.061L521.837 60.2054L523.916 58.0919Z" fill="#FEFEFE"/>
<path d="M520.753 29.0183L522.087 31.121L517.888 35.3895L532.068 49.8041L530.03 51.8761L515.85 37.4614L511.57 41.8127L510.235 39.7101L520.753 29.0183Z" fill="#FEFEFE"/>
<path d="M536.38 30.7603L540.392 26.6816C538.321 25.4921 535.763 24.0566 531.377 21.5961C533.636 25.7241 535.089 28.3661 536.38 30.7603ZM542.788 28.0352L537.752 33.1543L537.671 33.0719C538.76 35.0948 539.93 37.2 541.544 40.1722L539.292 42.4613L528.242 21.4059L531.313 18.2844L552.025 29.5176L549.65 31.9316C546.524 30.1681 544.615 29.0603 542.788 28.0352Z" fill="white"/>
<path fill-rule="evenodd" clip-rule="evenodd" d="M544.43 4.7084L542.59 6.57868L552.497 29.0354L554.378 27.1235L544.43 4.7084Z" fill="#4B75A4"/>
<path fill-rule="evenodd" clip-rule="evenodd" d="M558.958 17.7933L561.668 4.70324L548.146 6.80243L545.847 4.46484L562.38 2.25751L564.276 4.18503L561.257 20.1309L558.958 17.7933Z" fill="#4B75A4"/>
</g>
<g opacity="0.15">
<path fill-rule="evenodd" clip-rule="evenodd" d="M504.012 260.594L518.72 245.643C519.662 244.685 521.252 244.635 522.225 245.624L544.854 268.628C545.827 269.617 545.778 271.233 544.836 272.191L530.128 287.142C529.186 288.1 527.596 288.15 526.623 287.161L503.994 264.157C503.021 263.168 503.07 261.552 504.012 260.594Z" fill="#4B75A4"/>
<path d="M478.053 298.943L493.934 315.088L492.051 317.002L476.169 300.858L478.053 298.943Z" fill="white"/>
<path d="M493.528 283.211L509.409 299.355L506.011 302.81L486.053 295.257C490.959 299.495 495.455 304.315 499.993 308.928L497.905 311.051L482.023 294.906L485.34 291.535L505.379 299.087C500.513 294.973 495.896 289.864 491.44 285.334L493.528 283.211Z" fill="white"/>
<path d="M506.139 270.392L507.431 272.538L503.255 276.783L517.435 291.198L515.592 293.071L501.412 278.656L497.114 283.026L495.74 280.963L506.139 270.392Z" fill="white"/>
<path d="M528.343 280.109L512.461 263.965L510.382 266.078L526.264 282.222L528.343 280.109Z" fill="#FEFEFE"/>
<path d="M525.179 251.035L526.514 253.138L522.315 257.407L536.495 271.821L534.457 273.893L520.277 259.479L515.996 263.83L514.662 261.727L525.179 251.035Z" fill="#FEFEFE"/>
<path d="M540.807 252.777L544.819 248.699C542.748 247.509 540.19 246.074 535.804 243.613C538.063 247.741 539.516 250.383 540.807 252.777ZM547.215 250.052L542.179 255.171L542.098 255.089C543.187 257.112 544.357 259.217 545.971 262.189L543.719 264.478L532.669 243.423L535.739 240.301L556.452 251.535L554.077 253.949C550.95 252.185 549.042 251.077 547.215 250.052Z" fill="white"/>
<path fill-rule="evenodd" clip-rule="evenodd" d="M548.857 226.725L547.017 228.596L556.924 251.053L558.805 249.141L548.857 226.725Z" fill="#4B75A4"/>
<path fill-rule="evenodd" clip-rule="evenodd" d="M563.385 239.81L566.095 226.72L552.573 228.82L550.273 226.482L566.807 224.275L568.703 226.202L565.684 242.148L563.385 239.81Z" fill="#4B75A4"/>
</g>
<g opacity="0.15">
<path fill-rule="evenodd" clip-rule="evenodd" d="M499.586 148.086L514.294 133.134C515.236 132.176 516.826 132.127 517.799 133.116L540.427 156.119C541.401 157.109 541.352 158.725 540.409 159.683L525.702 174.634C524.759 175.592 523.17 175.642 522.196 174.652L499.568 151.649C498.595 150.66 498.644 149.044 499.586 148.086Z" fill="#4B75A4"/>
<path d="M473.626 186.435L489.508 202.579L487.624 204.494L471.743 188.35L473.626 186.435Z" fill="white"/>
<path d="M489.102 170.703L504.983 186.847L501.585 190.302L481.627 182.749C486.533 186.987 491.029 191.807 495.566 196.42L493.478 198.542L477.597 182.398L480.913 179.027L500.952 186.579C496.087 182.465 491.47 177.356 487.014 172.825L489.102 170.703Z" fill="white"/>
<path d="M501.712 157.883L503.005 160.029L498.829 164.274L513.008 178.689L511.166 180.562L496.986 166.147L492.687 170.517L491.313 168.455L501.712 157.883Z" fill="white"/>
<path d="M523.916 167.601L508.035 151.456L505.956 153.57L521.837 169.714L523.916 167.601Z" fill="#FEFEFE"/>
<path d="M520.753 138.527L522.088 140.63L517.889 144.898L532.069 159.313L530.03 161.385L515.851 146.97L511.57 151.322L510.236 149.219L520.753 138.527Z" fill="#FEFEFE"/>
<path d="M536.38 140.269L540.392 136.19C538.321 135.001 535.763 133.565 531.377 131.105C533.636 135.233 535.089 137.875 536.38 140.269ZM542.788 137.544L537.752 142.663L537.671 142.581C538.76 144.604 539.93 146.709 541.544 149.681L539.292 151.97L528.242 130.915L531.313 127.793L552.025 139.026L549.65 141.44C546.524 139.677 544.615 138.569 542.788 137.544Z" fill="white"/>
<path fill-rule="evenodd" clip-rule="evenodd" d="M544.431 114.217L542.591 116.087L552.498 138.544L554.379 136.632L544.431 114.217Z" fill="#4B75A4"/>
<path fill-rule="evenodd" clip-rule="evenodd" d="M558.958 127.302L561.669 114.212L548.147 116.311L545.847 113.974L562.38 111.766L564.276 113.694L561.258 129.64L558.958 127.302Z" fill="#4B75A4"/>
</g>
<g opacity="0.15">
<path fill-rule="evenodd" clip-rule="evenodd" d="M504.012 370.102L518.72 355.15C519.662 354.192 521.252 354.143 522.225 355.132L544.854 378.135C545.827 379.125 545.778 380.741 544.836 381.699L530.128 396.65C529.186 397.608 527.596 397.658 526.623 396.668L503.994 373.665C503.021 372.676 503.07 371.06 504.012 370.102Z" fill="#4B75A4"/>
<path d="M478.053 408.451L493.934 424.596L492.051 426.51L476.169 410.366L478.053 408.451Z" fill="white"/>
<path d="M493.528 392.719L509.409 408.863L506.011 412.318L486.053 404.765C490.959 409.003 495.455 413.823 499.993 418.436L497.905 420.558L482.023 404.414L485.34 401.043L505.379 408.595C500.513 404.481 495.896 399.372 491.44 394.842L493.528 392.719Z" fill="white"/>
<path d="M506.139 379.9L507.431 382.046L503.255 386.291L517.435 400.706L515.592 402.579L501.412 388.164L497.114 392.534L495.74 390.471L506.139 379.9Z" fill="white"/>
<path d="M528.343 389.617L512.461 373.472L510.382 375.586L526.264 391.73L528.343 389.617Z" fill="#FEFEFE"/>
<path d="M525.179 360.543L526.514 362.646L522.315 366.914L536.495 381.329L534.457 383.401L520.277 368.986L515.996 373.338L514.662 371.235L525.179 360.543Z" fill="#FEFEFE"/>
<path d="M540.807 362.285L544.819 358.207C542.748 357.017 540.19 355.582 535.804 353.121C538.063 357.249 539.516 359.891 540.807 362.285ZM547.215 359.56L542.179 364.679L542.098 364.597C543.187 366.62 544.357 368.725 545.971 371.697L543.719 373.986L532.669 352.931L535.739 349.809L556.452 361.043L554.077 363.457C550.95 361.693 549.042 360.585 547.215 359.56Z" fill="white"/>
<path fill-rule="evenodd" clip-rule="evenodd" d="M548.857 336.233L547.017 338.104L556.924 360.56L558.805 358.648L548.857 336.233Z" fill="#4B75A4"/>
<path fill-rule="evenodd" clip-rule="evenodd" d="M563.385 349.318L566.095 336.228L552.573 338.327L550.273 335.99L566.807 333.782L568.703 335.71L565.684 351.656L563.385 349.318Z" fill="#4B75A4"/>
</g>
<g opacity="0.15">
<path fill-rule="evenodd" clip-rule="evenodd" d="M290.041 37.0763L304.749 22.125C305.691 21.167 307.281 21.1174 308.255 22.1068L330.883 45.11C331.856 46.0994 331.807 47.7156 330.865 48.6735L316.157 63.6249C315.215 64.5828 313.625 64.6324 312.652 63.6431L290.024 40.6398C289.05 39.6505 289.099 38.0343 290.041 37.0763Z" fill="#4B75A4"/>
<path d="M264.082 75.4253L279.963 91.5697L278.08 93.4842L262.199 77.3398L264.082 75.4253Z" fill="white"/>
<path d="M279.557 59.6931L295.439 75.8374L292.04 79.2919L272.083 71.7393C276.989 75.9773 281.485 80.7974 286.022 85.41L283.934 87.5326L268.053 71.3882L271.369 68.017L291.408 75.5692C286.542 71.4551 281.926 66.346 277.469 61.8157L279.557 59.6931Z" fill="white"/>
<path d="M292.168 46.874L293.46 49.0199L289.284 53.2652L303.464 67.6798L301.622 69.5526L287.442 55.138L283.143 59.508L281.769 57.4453L292.168 46.874Z" fill="white"/>
<path d="M314.371 56.5909L298.49 40.4466L296.411 42.5601L312.292 58.7044L314.371 56.5909Z" fill="#FEFEFE"/>
<path d="M311.209 27.5178L312.543 29.6205L308.344 33.889L322.524 48.3036L320.486 50.3756L306.306 35.9609L302.026 40.3122L300.691 38.2096L311.209 27.5178Z" fill="#FEFEFE"/>
<path d="M326.836 29.2594L330.848 25.1806C328.777 23.9911 326.219 22.5557 321.833 20.0951C324.092 24.2232 325.545 26.8652 326.836 29.2594ZM333.244 26.5342L328.208 31.6533L328.127 31.5709C329.216 33.5939 330.386 35.699 332 38.6712L329.748 40.9603L318.698 19.9049L321.769 16.7834L342.481 28.0166L340.107 30.4306C336.98 28.6671 335.071 27.5593 333.244 26.5342Z" fill="white"/>
<path fill-rule="evenodd" clip-rule="evenodd" d="M334.886 3.20791L333.046 5.07819L342.953 27.535L344.834 25.623L334.886 3.20791Z" fill="#4B75A4"/>
<path fill-rule="evenodd" clip-rule="evenodd" d="M349.414 16.2928L352.124 3.20275L338.602 5.30194L336.303 2.96436L352.836 0.757021L354.732 2.68454L351.713 18.6304L349.414 16.2928Z" fill="#4B75A4"/>
</g>
<g opacity="0.15">
<path fill-rule="evenodd" clip-rule="evenodd" d="M294.469 259.094L309.176 244.143C310.119 243.185 311.709 243.135 312.682 244.124L335.31 267.128C336.283 268.117 336.235 269.733 335.292 270.691L320.585 285.642C319.642 286.6 318.052 286.65 317.079 285.661L294.451 262.657C293.478 261.668 293.526 260.052 294.469 259.094Z" fill="#4B75A4"/>
<path d="M268.509 297.443L284.391 313.587L282.507 315.502L266.626 299.357L268.509 297.443Z" fill="white"/>
<path d="M283.985 281.711L299.866 297.855L296.468 301.309L276.51 293.757C281.416 297.995 285.912 302.815 290.449 307.428L288.361 309.55L272.48 293.406L275.796 290.035L295.835 297.587C290.969 293.473 286.353 288.364 281.896 283.833L283.985 281.711Z" fill="white"/>
<path d="M296.595 268.892L297.887 271.037L293.711 275.283L307.891 289.697L306.049 291.57L291.869 277.156L287.57 281.526L286.196 279.463L296.595 268.892Z" fill="white"/>
<path d="M318.799 278.609L302.917 262.464L300.838 264.578L316.72 280.722L318.799 278.609Z" fill="#FEFEFE"/>
<path d="M315.636 249.535L316.971 251.638L312.772 255.907L326.951 270.321L324.913 272.393L310.733 257.979L306.453 262.33L305.118 260.227L315.636 249.535Z" fill="#FEFEFE"/>
<path d="M331.263 251.277L335.275 247.198C333.204 246.009 330.646 244.573 326.26 242.113C328.519 246.241 329.972 248.883 331.263 251.277ZM337.671 248.552L332.635 253.671L332.554 253.588C333.643 255.611 334.813 257.717 336.427 260.689L334.175 262.978L323.125 241.922L326.196 238.801L346.908 250.034L344.533 252.448C341.407 250.685 339.498 249.577 337.671 248.552Z" fill="white"/>
<path fill-rule="evenodd" clip-rule="evenodd" d="M339.314 225.225L337.474 227.096L347.381 249.553L349.262 247.641L339.314 225.225Z" fill="#4B75A4"/>
<path fill-rule="evenodd" clip-rule="evenodd" d="M353.841 238.31L356.552 225.22L343.029 227.32L340.73 224.982L357.263 222.775L359.159 224.702L356.141 240.648L353.841 238.31Z" fill="#4B75A4"/>
</g>
<g opacity="0.15">
<path fill-rule="evenodd" clip-rule="evenodd" d="M290.041 146.585L304.749 131.634C305.691 130.676 307.281 130.626 308.255 131.616L330.883 154.619C331.856 155.608 331.807 157.224 330.865 158.182L316.157 173.134C315.215 174.092 313.625 174.141 312.652 173.152L290.024 150.149C289.05 149.159 289.099 147.543 290.041 146.585Z" fill="#4B75A4"/>
<path d="M264.082 184.935L279.963 201.079L278.08 202.993L262.199 186.849L264.082 184.935Z" fill="white"/>
<path d="M279.557 169.202L295.439 185.347L292.04 188.801L272.083 181.249C276.989 185.487 281.485 190.307 286.022 194.919L283.934 197.042L268.053 180.897L271.369 177.526L291.408 185.078C286.542 180.964 281.926 175.855 277.469 171.325L279.557 169.202Z" fill="white"/>
<path d="M292.168 156.383L293.46 158.529L289.284 162.774L303.464 177.189L301.622 179.061L287.442 164.647L283.143 169.017L281.769 166.954L292.168 156.383Z" fill="white"/>
<path d="M314.371 166.1L298.49 149.956L296.411 152.069L312.292 168.214L314.371 166.1Z" fill="#FEFEFE"/>
<path d="M311.209 137.027L312.543 139.129L308.344 143.398L322.524 157.812L320.486 159.884L306.306 145.47L302.026 149.821L300.691 147.718L311.209 137.027Z" fill="#FEFEFE"/>
<path d="M326.836 138.769L330.848 134.69C328.777 133.5 326.219 132.065 321.833 129.604C324.092 133.732 325.545 136.374 326.836 138.769ZM333.244 136.043L328.208 141.163L328.127 141.08C329.216 143.103 330.386 145.208 332 148.18L329.748 150.47L318.698 129.414L321.769 126.293L342.481 137.526L340.107 139.94C336.98 138.176 335.071 137.069 333.244 136.043Z" fill="white"/>
<path fill-rule="evenodd" clip-rule="evenodd" d="M334.886 112.717L333.046 114.587L342.953 137.044L344.834 135.132L334.886 112.717Z" fill="#4B75A4"/>
<path fill-rule="evenodd" clip-rule="evenodd" d="M349.414 125.802L352.124 112.712L338.602 114.811L336.303 112.473L352.836 110.266L354.732 112.193L351.713 128.139L349.414 125.802Z" fill="#4B75A4"/>
</g>
<g opacity="0.15">
<path fill-rule="evenodd" clip-rule="evenodd" d="M294.469 368.602L309.176 353.65C310.119 352.692 311.709 352.643 312.682 353.632L335.31 376.635C336.283 377.625 336.235 379.241 335.292 380.199L320.585 395.15C319.642 396.108 318.052 396.158 317.079 395.168L294.451 372.165C293.478 371.176 293.526 369.56 294.469 368.602Z" fill="#4B75A4"/>
<path d="M268.509 406.951L284.391 423.095L282.507 425.01L266.626 408.865L268.509 406.951Z" fill="white"/>
<path d="M283.985 391.219L299.866 407.363L296.468 410.818L276.51 403.265C281.416 407.503 285.912 412.323 290.449 416.936L288.361 419.058L272.48 402.914L275.796 399.543L295.835 407.095C290.969 402.981 286.353 397.872 281.896 393.342L283.985 391.219Z" fill="white"/>
<path d="M296.595 378.399L297.887 380.545L293.711 384.791L307.891 399.205L306.049 401.078L291.869 386.663L287.57 391.033L286.196 388.971L296.595 378.399Z" fill="white"/>
<path d="M318.799 388.117L302.917 371.972L300.838 374.086L316.72 390.23L318.799 388.117Z" fill="#FEFEFE"/>
<path d="M315.636 359.043L316.971 361.146L312.772 365.414L326.951 379.829L324.913 381.901L310.733 367.486L306.453 371.838L305.118 369.735L315.636 359.043Z" fill="#FEFEFE"/>
<path d="M331.263 360.785L335.275 356.707C333.204 355.517 330.646 354.082 326.26 351.621C328.519 355.749 329.972 358.391 331.263 360.785ZM337.671 358.06L332.635 363.179L332.554 363.097C333.643 365.12 334.813 367.225 336.427 370.197L334.175 372.486L323.125 351.431L326.196 348.309L346.908 359.543L344.533 361.957C341.407 360.193 339.498 359.085 337.671 358.06Z" fill="white"/>
<path fill-rule="evenodd" clip-rule="evenodd" d="M339.314 334.733L337.474 336.604L347.381 359.06L349.262 357.148L339.314 334.733Z" fill="#4B75A4"/>
<path fill-rule="evenodd" clip-rule="evenodd" d="M353.841 347.818L356.552 334.728L343.029 336.827L340.73 334.49L357.263 332.282L359.159 334.21L356.141 350.156L353.841 347.818Z" fill="#4B75A4"/>
</g>
<g opacity="0.15">
<path fill-rule="evenodd" clip-rule="evenodd" d="M709.13 37.0768L723.838 22.1255C724.78 21.1675 726.37 21.1179 727.343 22.1073L749.971 45.1105C750.945 46.0999 750.896 47.7161 749.953 48.674L735.246 63.6254C734.303 64.5833 732.713 64.6329 731.74 63.6435L709.112 40.6403C708.139 39.6509 708.187 38.0348 709.13 37.0768Z" fill="#4B75A4"/>
<path d="M683.17 75.4263L699.052 91.5707L697.168 93.4852L681.287 77.3408L683.17 75.4263Z" fill="white"/>
<path d="M698.646 59.694L714.527 75.8384L711.129 79.2929L691.171 71.7403C696.077 75.9783 700.573 80.7983 705.11 85.411L703.022 87.5335L687.141 71.3892L690.457 68.018L710.496 75.5701C705.631 71.456 701.014 66.347 696.558 61.8167L698.646 59.694Z" fill="white"/>
<path d="M711.256 46.875L712.549 49.0209L708.372 53.2661L722.552 67.6808L720.71 69.5536L706.53 55.1389L702.231 59.509L700.857 57.4463L711.256 46.875Z" fill="white"/>
<path d="M733.46 56.5919L717.579 40.4475L715.5 42.561L731.381 58.7054L733.46 56.5919Z" fill="#FEFEFE"/>
<path d="M730.297 27.5183L731.632 29.621L727.433 33.8895L741.612 48.3041L739.574 50.3761L725.395 35.9614L721.114 40.3127L719.779 38.2101L730.297 27.5183Z" fill="#FEFEFE"/>
<path d="M745.924 29.2603L749.937 25.1816C747.865 23.9921 745.307 22.5566 740.922 20.0961C743.181 24.2241 744.633 26.8661 745.924 29.2603ZM752.332 26.5352L747.297 31.6543L747.216 31.5719C748.305 33.5948 749.475 35.7 751.089 38.6722L748.837 40.9613L737.787 19.9059L740.857 16.7844L761.57 28.0176L759.195 30.4316C756.068 28.6681 754.16 27.5603 752.332 26.5352Z" fill="white"/>
<path fill-rule="evenodd" clip-rule="evenodd" d="M753.975 3.2084L752.135 5.07868L762.042 27.5354L763.923 25.6235L753.975 3.2084Z" fill="#4B75A4"/>
<path fill-rule="evenodd" clip-rule="evenodd" d="M768.502 16.2933L771.213 3.20324L757.691 5.30243L755.391 2.96484L771.924 0.75751L773.82 2.68503L770.802 18.6309L768.502 16.2933Z" fill="#4B75A4"/>
</g>
<g opacity="0.15">
<path fill-rule="evenodd" clip-rule="evenodd" d="M713.557 259.094L728.264 244.143C729.207 243.185 730.796 243.135 731.77 244.124L754.398 267.128C755.371 268.117 755.322 269.733 754.38 270.691L739.672 285.642C738.73 286.6 737.14 286.65 736.167 285.661L713.539 262.657C712.565 261.668 712.614 260.052 713.557 259.094Z" fill="#4B75A4"/>
<path d="M687.597 297.443L703.478 313.587L701.595 315.502L685.714 299.357L687.597 297.443Z" fill="white"/>
<path d="M703.072 281.711L718.954 297.855L715.555 301.309L695.598 293.757C700.504 297.995 705 302.815 709.537 307.428L707.449 309.55L691.568 293.406L694.884 290.035L714.923 297.587C710.057 293.473 705.441 288.364 700.984 283.833L703.072 281.711Z" fill="white"/>
<path d="M715.683 268.892L716.975 271.037L712.799 275.283L726.979 289.697L725.137 291.57L710.957 277.156L706.658 281.526L705.284 279.463L715.683 268.892Z" fill="white"/>
<path d="M737.887 278.609L722.006 262.464L719.927 264.578L735.808 280.722L737.887 278.609Z" fill="#FEFEFE"/>
<path d="M734.724 249.535L736.058 251.638L731.859 255.907L746.039 270.321L744.001 272.393L729.821 257.979L725.541 262.33L724.206 260.227L734.724 249.535Z" fill="#FEFEFE"/>
<path d="M750.351 251.277L754.363 247.198C752.292 246.009 749.734 244.573 745.348 242.113C747.608 246.241 749.06 248.883 750.351 251.277ZM756.759 248.552L751.723 253.671L751.642 253.588C752.731 255.611 753.902 257.717 755.515 260.689L753.264 262.978L742.213 241.922L745.284 238.801L765.996 250.034L763.622 252.448C760.495 250.685 758.586 249.577 756.759 248.552Z" fill="white"/>
<path fill-rule="evenodd" clip-rule="evenodd" d="M758.401 225.225L756.562 227.096L766.469 249.553L768.349 247.641L758.401 225.225Z" fill="#4B75A4"/>
<path fill-rule="evenodd" clip-rule="evenodd" d="M772.929 238.31L775.639 225.22L762.117 227.32L759.818 224.982L776.351 222.775L778.247 224.702L775.229 240.648L772.929 238.31Z" fill="#4B75A4"/>
</g>
<g opacity="0.15">
<path fill-rule="evenodd" clip-rule="evenodd" d="M709.13 146.585L723.838 131.634C724.78 130.676 726.37 130.626 727.343 131.616L749.971 154.619C750.945 155.608 750.896 157.224 749.953 158.182L735.246 173.134C734.303 174.092 732.713 174.141 731.74 173.152L709.112 150.149C708.139 149.159 708.187 147.543 709.13 146.585Z" fill="#4B75A4"/>
<path d="M683.17 184.935L699.052 201.079L697.168 202.993L681.287 186.849L683.17 184.935Z" fill="white"/>
<path d="M698.646 169.202L714.527 185.347L711.129 188.801L691.171 181.249C696.077 185.487 700.573 190.307 705.11 194.919L703.022 197.042L687.141 180.897L690.457 177.526L710.496 185.078C705.631 180.964 701.014 175.855 696.558 171.325L698.646 169.202Z" fill="white"/>
<path d="M711.256 156.383L712.549 158.529L708.372 162.774L722.552 177.189L720.71 179.062L706.53 164.647L702.231 169.017L700.857 166.955L711.256 156.383Z" fill="white"/>
<path d="M733.46 166.1L717.579 149.956L715.5 152.069L731.381 168.214L733.46 166.1Z" fill="#FEFEFE"/>
<path d="M730.297 137.027L731.632 139.129L727.433 143.398L741.612 157.812L739.574 159.884L725.395 145.47L721.114 149.821L719.779 147.718L730.297 137.027Z" fill="#FEFEFE"/>
<path d="M745.924 138.769L749.937 134.69C747.865 133.5 745.307 132.065 740.922 129.604C743.181 133.732 744.633 136.374 745.924 138.769ZM752.332 136.043L747.297 141.163L747.216 141.08C748.305 143.103 749.475 145.208 751.089 148.18L748.837 150.47L737.787 129.414L740.857 126.293L761.57 137.526L759.195 139.94C756.068 138.176 754.16 137.069 752.332 136.043Z" fill="white"/>
<path fill-rule="evenodd" clip-rule="evenodd" d="M753.975 112.717L752.135 114.587L762.042 137.044L763.923 135.132L753.975 112.717Z" fill="#4B75A4"/>
<path fill-rule="evenodd" clip-rule="evenodd" d="M768.502 125.802L771.213 112.712L757.691 114.811L755.391 112.473L771.924 110.266L773.82 112.193L770.802 128.139L768.502 125.802Z" fill="#4B75A4"/>
</g>
<g opacity="0.15">
<path fill-rule="evenodd" clip-rule="evenodd" d="M713.557 368.602L728.264 353.65C729.207 352.692 730.796 352.643 731.77 353.632L754.398 376.635C755.371 377.625 755.322 379.241 754.38 380.199L739.672 395.15C738.73 396.108 737.14 396.158 736.167 395.168L713.539 372.165C712.565 371.176 712.614 369.56 713.557 368.602Z" fill="#4B75A4"/>
<path d="M687.597 406.951L703.478 423.095L701.595 425.01L685.714 408.865L687.597 406.951Z" fill="white"/>
<path d="M703.072 391.219L718.954 407.363L715.555 410.818L695.598 403.265C700.504 407.503 705 412.323 709.537 416.936L707.449 419.058L691.568 402.914L694.884 399.543L714.923 407.095C710.057 402.981 705.441 397.872 700.984 393.342L703.072 391.219Z" fill="white"/>
<path d="M715.683 378.399L716.975 380.545L712.799 384.791L726.979 399.205L725.137 401.078L710.957 386.663L706.658 391.033L705.284 388.971L715.683 378.399Z" fill="white"/>
<path d="M737.887 388.117L722.006 371.972L719.927 374.086L735.808 390.23L737.887 388.117Z" fill="#FEFEFE"/>
<path d="M734.724 359.043L736.058 361.146L731.859 365.414L746.039 379.829L744.001 381.901L729.821 367.486L725.541 371.838L724.206 369.735L734.724 359.043Z" fill="#FEFEFE"/>
<path d="M750.351 360.785L754.363 356.707C752.292 355.517 749.734 354.082 745.348 351.621C747.608 355.749 749.06 358.391 750.351 360.785ZM756.759 358.06L751.723 363.179L751.642 363.097C752.731 365.12 753.902 367.225 755.515 370.197L753.264 372.486L742.213 351.431L745.284 348.309L765.996 359.543L763.622 361.957C760.495 360.193 758.586 359.085 756.759 358.06Z" fill="white"/>
<path fill-rule="evenodd" clip-rule="evenodd" d="M758.401 334.733L756.562 336.604L766.469 359.06L768.349 357.148L758.401 334.733Z" fill="#4B75A4"/>
<path fill-rule="evenodd" clip-rule="evenodd" d="M772.929 347.818L775.639 334.728L762.117 336.827L759.818 334.49L776.351 332.282L778.247 334.21L775.229 350.156L772.929 347.818Z" fill="#4B75A4"/>
</g>
<path fill-rule="evenodd" clip-rule="evenodd" d="M368.558 115H439.45C443.992 115 447.941 118.763 447.941 123.516V234.021C447.941 238.773 443.992 242.536 439.45 242.536H368.558C364.016 242.536 360.066 238.773 360.066 234.021V123.516C360.066 118.763 364.016 115 368.558 115Z" fill="#4B75A4"/>
<path d="M215.078 143.724V221.28H206V143.724H215.078Z" fill="white"/>
<path d="M289.672 143.724V221.28H273.293L243.1 154.407C244.876 176.566 244.284 199.121 244.284 221.28H234.22V143.724H250.204L280.594 210.793C278.621 189.031 279.608 165.487 279.608 143.724H289.672Z" fill="white"/>
<path d="M350.452 143.724L348.479 152.033H328.35V221.28H319.47V152.033H298.749L300.328 143.724H350.452Z" fill="white"/>
<path d="M380.929 221.28V143.724H370.908V221.28H380.929Z" fill="#FEFEFE"/>
<path d="M442.234 143.724L440.466 152.033H420.226V221.28H410.402V152.033H389.771L391.539 143.724H442.234Z" fill="#FEFEFE"/>
<path d="M475.763 186.063H495.102C492.931 178.149 490.169 168.454 485.433 151.835C481.091 167.267 478.328 177.16 475.763 186.063ZM497.667 195.164H473.395V194.768C471.224 202.286 469.053 210.2 465.896 221.28H455.042L478.328 143.724H493.129L516.415 221.28H504.969C501.614 209.409 499.641 202.088 497.667 195.164Z" fill="white"/>
<path fill-rule="evenodd" clip-rule="evenodd" d="M556.928 143.151H548.061L518.697 221.281H527.763L556.928 143.151Z" fill="#4B75A4"/>
<path fill-rule="evenodd" clip-rule="evenodd" d="M560.921 210.05L598.487 185.227L560.921 157.251V146.022L606 181.09V190.349L560.921 221.28V210.05Z" fill="#4B75A4"/>
<g filter="url(#filter0_d_80_110)">
<path d="M196.279 329.545V355H191.706V333.374H180.569V355H175.995V329.545H196.279ZM201.795 355V329.545H211.34C213.296 329.545 214.936 329.91 216.262 330.639C217.596 331.368 218.603 332.371 219.282 333.647C219.97 334.915 220.314 336.357 220.314 337.972C220.314 339.605 219.97 341.055 219.282 342.322C218.595 343.59 217.58 344.589 216.237 345.318C214.895 346.039 213.242 346.399 211.278 346.399H204.952V342.608H210.657C211.8 342.608 212.736 342.409 213.466 342.012C214.195 341.614 214.733 341.067 215.081 340.371C215.438 339.675 215.616 338.875 215.616 337.972C215.616 337.069 215.438 336.274 215.081 335.586C214.733 334.898 214.191 334.364 213.453 333.983C212.724 333.593 211.784 333.398 210.632 333.398H206.406V355H201.795ZM247.064 342.273C247.064 345.015 246.551 347.364 245.523 349.32C244.504 351.267 243.112 352.759 241.347 353.794C239.59 354.83 237.598 355.348 235.369 355.348C233.14 355.348 231.143 354.83 229.378 353.794C227.621 352.75 226.229 351.255 225.202 349.308C224.183 347.352 223.673 345.007 223.673 342.273C223.673 339.53 224.183 337.185 225.202 335.238C226.229 333.282 227.621 331.787 229.378 330.751C231.143 329.715 233.14 329.197 235.369 329.197C237.598 329.197 239.59 329.715 241.347 330.751C243.112 331.787 244.504 333.282 245.523 335.238C246.551 337.185 247.064 339.53 247.064 342.273ZM242.428 342.273C242.428 340.342 242.126 338.714 241.521 337.388C240.924 336.054 240.096 335.047 239.035 334.368C237.975 333.68 236.752 333.336 235.369 333.336C233.985 333.336 232.763 333.68 231.702 334.368C230.641 335.047 229.809 336.054 229.204 337.388C228.607 338.714 228.309 340.342 228.309 342.273C228.309 344.203 228.607 345.836 229.204 347.17C229.809 348.496 230.641 349.502 231.702 350.19C232.763 350.869 233.985 351.209 235.369 351.209C236.752 351.209 237.975 350.869 239.035 350.19C240.096 349.502 240.924 348.496 241.521 347.17C242.126 345.836 242.428 344.203 242.428 342.273ZM267.793 329.545V333.411H256.035V355H251.424V329.545H267.793ZM271.692 355V329.545H281.238C283.193 329.545 284.834 329.91 286.16 330.639C287.494 331.368 288.5 332.371 289.18 333.647C289.868 334.915 290.211 336.357 290.211 337.972C290.211 339.605 289.868 341.055 289.18 342.322C288.492 343.59 287.477 344.589 286.135 345.318C284.792 346.039 283.139 346.399 281.176 346.399H274.849V342.608H280.554C281.698 342.608 282.634 342.409 283.363 342.012C284.092 341.614 284.631 341.067 284.979 340.371C285.335 339.675 285.513 338.875 285.513 337.972C285.513 337.069 285.335 336.274 284.979 335.586C284.631 334.898 284.088 334.364 283.351 333.983C282.622 333.593 281.681 333.398 280.529 333.398H276.303V355H271.692ZM294.649 355H289.727L298.688 329.545H304.381L313.354 355H308.432L301.634 334.766H301.435L294.649 355ZM294.81 345.02H308.233V348.723H294.81V345.02ZM316.707 329.545H322.35L329.907 347.99H330.205L337.762 329.545H343.404V355H338.98V337.512H338.744L331.709 354.925H328.403L321.368 337.475H321.132V355H316.707V329.545ZM350.7 355.348V351.47H352.154C352.809 351.47 353.348 351.375 353.77 351.184C354.193 350.994 354.532 350.72 354.789 350.364C355.054 350.008 355.274 349.593 355.448 349.121L355.784 348.263L346.686 329.545H351.508L357.847 343.168L363.328 329.545H368.076L359.301 350.302C358.895 351.197 358.427 352.029 357.897 352.8C357.366 353.562 356.674 354.18 355.821 354.652C354.976 355.116 353.874 355.348 352.515 355.348H350.7ZM371.36 329.545H375.934V346.896H376.17L388.139 329.545H392.278V355H387.667V337.662H387.456L375.449 355H371.36V329.545ZM384.286 322.983H387.655C387.655 324.433 387.128 325.61 386.076 326.513C385.032 327.408 383.615 327.855 381.825 327.855C380.052 327.855 378.64 327.408 377.587 326.513C376.543 325.61 376.025 324.433 376.034 322.983H379.377C379.377 323.58 379.559 324.114 379.924 324.586C380.297 325.05 380.931 325.282 381.825 325.282C382.704 325.282 383.329 325.05 383.702 324.586C384.083 324.122 384.278 323.588 384.286 322.983ZM405.984 329.545H411.627L419.184 347.99H419.482L427.039 329.545H432.682V355H428.257V337.512H428.021L420.986 354.925H417.68L410.645 337.475H410.409V355H405.984V329.545ZM440.972 355H436.05L445.011 329.545H450.704L459.677 355H454.756L447.957 334.766H447.758L440.972 355ZM441.133 345.02H454.557V348.723H441.133V345.02ZM463.03 329.545H467.604V346.896H467.84L479.809 329.545H483.948V355H479.337V337.662H479.126L467.119 355H463.03V329.545ZM475.956 322.983H479.325C479.325 324.433 478.798 325.61 477.746 326.513C476.702 327.408 475.285 327.855 473.495 327.855C471.722 327.855 470.309 327.408 469.257 326.513C468.213 325.61 467.695 324.433 467.703 322.983H471.047C471.047 323.58 471.229 324.114 471.594 324.586C471.967 325.05 472.6 325.282 473.495 325.282C474.374 325.282 474.999 325.05 475.372 324.586C475.753 324.122 475.948 323.588 475.956 322.983ZM488.973 355V329.545H505.342V333.411H493.584V339.377H498.493C500.44 339.377 502.11 339.696 503.502 340.334C504.902 340.964 505.975 341.854 506.721 343.006C507.467 344.158 507.84 345.513 507.84 347.07C507.84 348.636 507.467 350.016 506.721 351.209C505.975 352.394 504.902 353.322 503.502 353.993C502.11 354.664 500.44 355 498.493 355H488.973ZM493.584 351.222H498.493C499.521 351.222 500.391 351.027 501.103 350.637C501.816 350.248 502.354 349.734 502.719 349.096C503.092 348.458 503.278 347.766 503.278 347.021C503.278 345.943 502.864 345.028 502.035 344.274C501.215 343.511 500.034 343.13 498.493 343.13H493.584V351.222ZM514.147 355.348V351.47H515.602C516.256 351.47 516.795 351.375 517.217 351.184C517.64 350.994 517.98 350.72 518.237 350.364C518.502 350.008 518.721 349.593 518.895 349.121L519.231 348.263L510.133 329.545H514.955L521.294 343.168L526.775 329.545H531.523L522.748 350.302C522.342 351.197 521.874 352.029 521.344 352.8C520.814 353.562 520.122 354.18 519.268 354.652C518.423 355.116 517.321 355.348 515.962 355.348H514.147ZM535.295 333.411V329.545H555.604V333.411H547.737V355H543.163V333.411H535.295ZM559.519 355V329.545H564.131V340.321H575.926V329.545H580.549V355H575.926V344.187H564.131V355H559.519ZM595.296 355.348C593.216 355.348 591.398 354.855 589.84 353.869C588.282 352.875 587.072 351.491 586.211 349.718C585.349 347.936 584.918 345.861 584.918 343.491V341.676C584.918 339.182 585.353 336.999 586.223 335.126C587.101 333.253 588.328 331.799 589.902 330.763C591.476 329.719 593.316 329.197 595.421 329.197C597.31 329.197 598.975 329.55 600.417 330.254C601.867 330.95 603.019 331.953 603.872 333.262C604.734 334.571 605.227 336.129 605.351 337.935H600.765C600.707 336.932 600.434 336.067 599.945 335.337C599.464 334.608 598.83 334.049 598.043 333.659C597.264 333.27 596.39 333.075 595.421 333.075C594.236 333.075 593.192 333.419 592.288 334.107C591.394 334.786 590.693 335.743 590.188 336.978C589.691 338.204 589.442 339.629 589.442 341.254V343.888C589.442 345.405 589.687 346.739 590.176 347.891C590.664 349.042 591.348 349.941 592.226 350.588C593.105 351.226 594.128 351.545 595.296 351.545C596.274 351.545 597.161 351.354 597.956 350.973C598.76 350.592 599.41 350.045 599.907 349.332C600.405 348.62 600.682 347.77 600.74 346.784H605.351C605.26 348.558 604.784 350.086 603.922 351.371C603.06 352.647 601.892 353.629 600.417 354.316C598.942 355.004 597.235 355.348 595.296 355.348ZM587.528 344.423V340.595H598.093V344.423H587.528ZM614.9 329.545L614.49 347.518H610.488L610.09 329.545H614.9ZM612.489 355.273C611.735 355.273 611.088 355.008 610.55 354.478C610.019 353.948 609.754 353.301 609.754 352.539C609.754 351.793 610.019 351.155 610.55 350.625C611.088 350.095 611.735 349.83 612.489 349.83C613.226 349.83 613.864 350.095 614.403 350.625C614.95 351.155 615.223 351.793 615.223 352.539C615.223 353.045 615.095 353.504 614.838 353.919C614.589 354.333 614.258 354.664 613.843 354.913C613.437 355.153 612.986 355.273 612.489 355.273Z" fill="white"/>
</g>
</g>
<defs>
<filter id="filter0_d_80_110" x="171.996" y="322.983" width="447.228" height="40.3652" filterUnits="userSpaceOnUse" color-interpolation-filters="sRGB">
<feFlood flood-opacity="0" result="BackgroundImageFix"/>
<feColorMatrix in="SourceAlpha" type="matrix" values="0 0 0 0 0 0 0 0 0 0 0 0 0 0 0 0 0 0 127 0" result="hardAlpha"/>
<feOffset dy="4"/>
<feGaussianBlur stdDeviation="2"/>
<feComposite in2="hardAlpha" operator="out"/>
<feColorMatrix type="matrix" values="0 0 0 0 0 0 0 0 0 0 0 0 0 0 0 0 0 0 0.25 0"/>
<feBlend mode="normal" in2="BackgroundImageFix" result="effect1_dropShadow_80_110"/>
<feBlend mode="normal" in="SourceGraphic" in2="effect1_dropShadow_80_110" result="shape"/>
</filter>
<linearGradient id="paint0_linear_80_110" x1="384" y1="0" x2="384" y2="431" gradientUnits="userSpaceOnUse">
<stop stop-color="#0FF6F6"/>
<stop offset="1" stop-color="#569CB9"/>
</linearGradient>
<clipPath id="clip0_80_110">
<rect width="768" height="431" fill="white"/>
</clipPath>
</defs>
</svg>
