<svg width="30" height="22" viewBox="0 0 30 22" fill="none" xmlns="http://www.w3.org/2000/svg">
<path d="M26.6667 0H3.33333C2.44928 0 1.60143 0.356594 0.976311 0.991334C0.35119 1.62608 0 2.48697 0 3.38463L0 11H30V3.38463C30 2.48697 29.6488 1.62608 29.0237 0.991334C28.3986 0.356594 27.5507 0 26.6667 0Z" fill="#005BBB"/>
<path d="M30 18.6154C30 19.5131 29.6488 20.374 29.0237 21.0087C28.3986 21.6434 27.5507 22 26.6667 22H3.33333C2.44928 22 1.60143 21.6434 0.976311 21.0087C0.35119 20.374 0 19.5131 0 18.6154V11H30V18.6154Z" fill="#FFD500"/>
</svg>
