<svg width="20" height="16" viewBox="0 0 20 16" fill="none" xmlns="http://www.w3.org/2000/svg">
<rect x="1" width="18" height="16" fill="#2162B4"/>
<path d="M1.53251 2.00817L1.53251 2.08757L1.59244 2.13978L16.9371 15.5054L16.9865 15.5485L17.0522 15.5485L18.3019 15.5485L18.4772 15.5485L18.4772 15.3736L18.4772 13.9929L18.4772 13.9134L18.4171 13.8612L3.04436 0.507748L2.99494 0.464822L2.9294 0.464822L1.70782 0.464822L1.53251 0.464822L1.53251 0.639754L1.53251 2.00817Z" fill="white" stroke="white" stroke-width="0.35"/>
<path d="M18.4677 2.00817L18.4677 2.08757L18.4078 2.13978L3.06317 15.5054L3.01371 15.5485L2.94803 15.5485L1.69831 15.5485L1.523 15.5485L1.523 15.3736L1.523 13.9929L1.523 13.9134L1.58311 13.8612L16.9559 0.507748L17.0053 0.464822L17.0708 0.464822L18.2924 0.464822L18.4677 0.464822L18.4677 0.639754L18.4677 2.00817Z" fill="white" stroke="white" stroke-width="0.35"/>
<path d="M18.3025 0.628042L17.0561 0.628041L9.99291 6.82221L9.99291 7.96616L18.3025 0.628042Z" fill="#CF0032"/>
<path d="M9.99278 7.96278L8.74638 7.96278L1.68322 1.76861L1.68322 0.624659L9.99278 7.96278Z" fill="#CF0032"/>
<path d="M9.99269 8.0367L11.2391 8.0367L18.3023 14.2309L18.3023 15.3748L9.99269 8.0367Z" fill="#CF0032"/>
<path d="M1.67336 15.375L2.91975 15.375L9.98292 9.18084L9.98292 8.03689L1.67336 15.375Z" fill="#CF0032"/>
<rect x="1.26399" y="9.66927" width="3.33769" height="17.4565" transform="rotate(-90 1.26399 9.66927)" fill="#CF0032" stroke="white" stroke-width="0.35"/>
<rect x="8.50557" y="0.175" width="2.97384" height="15.65" fill="#CF0032" stroke="white" stroke-width="0.35"/>
</svg>
